<svg width="74" height="76" viewBox="0 0 74 76" fill="none" xmlns="http://www.w3.org/2000/svg">
<path d="M62.419 4.69336V5.78742H67.7624V66.4071H54.9453V67.5012H68.856V4.69336H62.419Z" fill="#FFCD2B"/>
<path d="M19.0554 66.4071H6.23618V5.78742H11.5795V4.69336H5.14258V67.5012H19.0554V66.4071Z" fill="#FFCD2B"/>
<path d="M30.7351 33.0735H30.348C30.1774 33.0735 30.0112 33.0822 29.8493 33.0954C29.869 33.0888 29.8843 33.08 29.904 33.0735H27.2006C22.7868 33.0735 19.9216 34.3382 17.6425 36.406C15.3546 38.4803 14.751 41.3949 14.751 43.4911C14.751 49.1671 19.2151 53.0948 23.8214 53.7906C22.2903 52.8563 21.5423 51.6594 21.2754 50.4121C19.6744 49.1146 17.8328 47.154 17.8328 43.7712C17.8328 41.2505 18.8476 38.7538 21.2011 37.0777C22.6446 36.0515 24.261 35.5745 26.9491 35.5745H28.2286C28.7207 34.4586 29.6197 33.5614 30.7373 33.0713L30.7351 33.0735Z" fill="#FFCD2B"/>
<path d="M50.7409 15.2754C52.2719 16.2097 52.8493 17.4066 53.1162 18.6538C55.0322 20.0871 56.1695 21.947 56.1695 25.1088C56.1695 27.6295 55.3384 29.9621 53.0812 31.7082C51.7973 32.7016 50.3122 33.2005 48.0637 33.2771H46.3052C45.894 34.3427 45.1175 35.2289 44.1289 35.7803H44.6845C44.6845 35.7803 44.6648 35.789 44.6538 35.7912H46.9854C51.7863 35.7912 54.6035 34.3252 56.3598 32.474C58.4858 30.2334 59.2513 27.4851 59.2513 25.3889C59.2513 19.7129 55.3471 15.9734 50.7409 15.2754Z" fill="#FFCD2B"/>
<path d="M13.3857 5.05207C13.3857 4.87046 13.4557 4.73042 13.5979 4.63196C13.7379 4.53349 13.9129 4.48535 14.1206 4.48535C14.3722 4.48535 14.5887 4.53787 14.7702 4.64071V4.89891C14.5909 4.78294 14.3809 4.72605 14.1403 4.73042C13.8122 4.73042 13.6482 4.83326 13.6482 5.04113C13.6482 5.12428 13.681 5.19649 13.7444 5.25557C13.8079 5.31465 13.8866 5.3606 13.9785 5.39561C14.0703 5.43062 14.1731 5.46782 14.2825 5.50939C14.3919 5.55097 14.4947 5.58816 14.5931 5.62536C14.6893 5.66256 14.7702 5.72383 14.8315 5.80916C14.8927 5.8945 14.9255 5.99953 14.9255 6.12207C14.9255 6.22491 14.9037 6.31462 14.8599 6.3912C14.8162 6.46779 14.7571 6.52906 14.6806 6.57501C14.604 6.62096 14.5209 6.65159 14.429 6.67347C14.3372 6.69317 14.2388 6.70411 14.1316 6.70411C13.8604 6.70411 13.6154 6.64284 13.3967 6.5203V6.26211C13.611 6.39339 13.8494 6.45904 14.1141 6.45904C14.4815 6.45904 14.6653 6.35182 14.6653 6.13957C14.6653 6.06299 14.6412 5.99515 14.5953 5.93826C14.5493 5.88137 14.4859 5.8398 14.4094 5.80916C14.3328 5.78072 14.2475 5.7479 14.1578 5.71508C14.0682 5.68007 13.9785 5.64724 13.8888 5.61442C13.7991 5.5816 13.7182 5.54221 13.6416 5.49845C13.5651 5.45469 13.506 5.39561 13.4579 5.31903C13.412 5.24463 13.3879 5.15492 13.3879 5.05207H13.3857Z" fill="#231F20"/>
<path d="M14.129 6.79005C13.8447 6.79005 13.5822 6.72441 13.3503 6.59531L13.3066 6.57124V6.10736L13.44 6.18832C13.6391 6.31086 13.8665 6.37212 14.1115 6.37212C14.5752 6.37212 14.5752 6.19926 14.5752 6.14018C14.5752 6.0811 14.5599 6.03734 14.5249 5.99577C14.4877 5.94981 14.4374 5.91699 14.374 5.89292L13.8556 5.69599C13.7637 5.66098 13.6762 5.61941 13.5953 5.57346C13.5078 5.52313 13.4356 5.45311 13.381 5.36559C13.3263 5.27587 13.2979 5.17084 13.2979 5.05269C13.2979 4.84263 13.381 4.67633 13.5472 4.56036C13.7025 4.45314 13.895 4.39844 14.1202 4.39844C14.3849 4.39844 14.6189 4.45533 14.8136 4.56692L14.8573 4.59318V5.06144L14.7217 4.97391C14.5642 4.87107 14.3761 4.81856 14.164 4.81856H14.1421C13.7353 4.81856 13.7353 4.98048 13.7353 5.04175C13.7353 5.10301 13.7572 5.14896 13.8031 5.19054C13.8578 5.24086 13.9278 5.28244 14.0087 5.31307L14.6233 5.54282C14.737 5.5844 14.8289 5.65661 14.9033 5.75726C14.9776 5.85791 15.0148 5.98045 15.0148 6.12049C15.0148 6.23865 14.9886 6.34368 14.9383 6.43339C14.888 6.5231 14.8158 6.5975 14.7283 6.65001C14.6452 6.70034 14.5511 6.73535 14.4505 6.75942C14.3521 6.7813 14.2471 6.79224 14.1356 6.79224L14.129 6.79005ZM13.4816 6.46621C13.6741 6.56468 13.8928 6.615 14.129 6.615C14.2274 6.615 14.3215 6.60625 14.4068 6.58656C14.4899 6.56905 14.5642 6.53842 14.6321 6.49903C14.6955 6.46184 14.7436 6.41151 14.7786 6.34805C14.8158 6.2846 14.8333 6.20801 14.8333 6.12049C14.8333 6.01765 14.807 5.93231 14.7567 5.8601C14.7042 5.78789 14.6386 5.73757 14.5577 5.70693L13.9431 5.47718C13.8403 5.43779 13.7506 5.38528 13.6806 5.31964C13.5997 5.24305 13.5581 5.15115 13.5581 5.04175C13.5581 4.86013 13.6587 4.64351 14.1377 4.64351H14.1618C14.3521 4.64351 14.5249 4.6807 14.6802 4.75072V4.69383C14.5205 4.61287 14.3324 4.57349 14.1181 4.57349C13.93 4.57349 13.7703 4.61725 13.6434 4.70477C13.5275 4.78573 13.4706 4.89952 13.4706 5.05269C13.4706 5.13802 13.4903 5.21023 13.5275 5.27369C13.5669 5.33714 13.6172 5.38747 13.6806 5.42467C13.7528 5.46624 13.8293 5.50344 13.9146 5.53407L14.433 5.731C14.5249 5.76601 14.5992 5.81634 14.6561 5.88417C14.7174 5.95638 14.748 6.04172 14.748 6.14018C14.748 6.32617 14.6364 6.54717 14.1093 6.54717C13.884 6.54717 13.6741 6.50122 13.4794 6.40932V6.4684L13.4816 6.46621Z" fill="#231F20"/>
<path d="M15.3145 5.60907C15.3145 5.37275 15.3713 5.16707 15.4829 4.99202C15.5944 4.81697 15.7344 4.69006 15.9028 4.60691C16.069 4.52595 16.2506 4.48438 16.4409 4.48438C16.6618 4.48438 16.863 4.53251 17.0445 4.62879V4.88699C16.8892 4.78196 16.7033 4.73163 16.4846 4.73163C16.2396 4.73163 16.0275 4.80603 15.8481 4.95701C15.6688 5.10799 15.5769 5.32461 15.5747 5.61126C15.5747 5.79287 15.6207 5.95042 15.7147 6.08389C15.8088 6.21737 15.9225 6.31146 16.0581 6.37272C16.1937 6.4318 16.3403 6.46244 16.4955 6.46244C16.7252 6.46244 16.9155 6.40992 17.062 6.30708V6.56528C16.8761 6.66156 16.6683 6.70969 16.4409 6.70969C16.3031 6.70969 16.1697 6.68562 16.0362 6.63749C15.9028 6.58935 15.7825 6.52152 15.6753 6.4318C15.566 6.34209 15.4807 6.22831 15.4151 6.08608C15.3495 5.94385 15.3166 5.78631 15.3166 5.61563L15.3145 5.60907Z" fill="#231F20"/>
<path d="M16.4361 6.79032C16.2895 6.79032 16.143 6.76406 16.003 6.71374C15.863 6.66341 15.7318 6.58902 15.6159 6.49493C15.4978 6.39865 15.4015 6.27174 15.3315 6.11857C15.2616 5.9654 15.2266 5.79473 15.2266 5.61092C15.2266 5.35929 15.2878 5.13391 15.4081 4.94574C15.5284 4.75756 15.6815 4.61971 15.863 4.52999C16.2458 4.344 16.7226 4.36151 17.0835 4.55187L17.1294 4.57594V5.05077L16.9938 4.95886C16.8538 4.86478 16.6832 4.81664 16.482 4.81664C16.2567 4.81664 16.0665 4.88447 15.9002 5.02232C15.7406 5.1558 15.6618 5.34835 15.6596 5.61092C15.6596 5.77503 15.699 5.91289 15.7821 6.03104C15.8652 6.1492 15.968 6.23673 16.0883 6.28924C16.213 6.34395 16.3464 6.3702 16.4908 6.3702C16.7007 6.3702 16.8757 6.32206 17.007 6.23016L17.1447 6.1317V6.6109L17.0966 6.63497C16.8998 6.73781 16.6767 6.78813 16.4339 6.78813L16.4361 6.79032ZM16.4405 4.57376C16.2633 4.57376 16.0949 4.61095 15.9396 4.68754C15.7865 4.76193 15.6574 4.88009 15.5546 5.03983C15.4518 5.19956 15.3994 5.39211 15.3994 5.60874C15.3994 5.76628 15.43 5.91289 15.489 6.04198C15.5481 6.17108 15.629 6.27611 15.7252 6.35707C15.8259 6.44022 15.9374 6.50368 16.0599 6.54744C16.3705 6.66122 16.7029 6.62402 16.9676 6.50368V6.45116C16.7073 6.56932 16.3224 6.58245 16.0161 6.44898C15.8652 6.38333 15.7384 6.27611 15.6356 6.1317C15.5328 5.98509 15.4803 5.81004 15.4803 5.60874C15.4803 5.29584 15.5853 5.05514 15.7843 4.88666C15.979 4.72474 16.213 4.64159 16.4776 4.64159C16.6526 4.64159 16.8123 4.67441 16.9501 4.73568V4.68097C16.7948 4.60658 16.6198 4.56938 16.4339 4.56938L16.4405 4.57376Z" fill="#231F20"/>
<path d="M17.6113 4.52148H17.8694V6.66584H17.6113V4.52148Z" fill="#231F20"/>
<path d="M17.9546 6.753H17.5215V4.43359H17.9546V6.753ZM17.6986 6.57795H17.7818V4.60864H17.6986V6.57795Z" fill="#231F20"/>
<path d="M18.585 4.52148H20.0307V4.76655H18.8431V5.46238H19.9388V5.70745H18.8431V6.42077H20.0504V6.66584H18.5871V4.52148H18.585Z" fill="#231F20"/>
<path d="M20.1353 6.753H18.4971V4.43359H20.1178V4.85371H18.9301V5.37449H20.0259V5.7946H18.9301V6.33288H20.1375V6.753H20.1353ZM18.672 6.57795H19.9603V6.50793H18.753V5.61956H19.8488V5.54954H18.753V4.67866H19.9406V4.60864H18.6699V6.57795H18.672Z" fill="#231F20"/>
<path d="M20.8919 6.66584H20.6338V4.52148H20.8678L22.1627 6.23916V4.52148H22.4207V6.66584H22.1823L20.8941 4.95473V6.66584H20.8919Z" fill="#231F20"/>
<path d="M22.5078 6.753H22.1382L20.979 5.21694V6.753H20.5459V4.43359H20.9112L22.0748 5.97622V4.43359H22.5078V6.753ZM22.2257 6.57795H22.3329V4.60864H22.2497V6.49918L20.8237 4.60864H20.7209V6.57795H20.804V4.69398L22.2235 6.57795H22.2257Z" fill="#231F20"/>
<path d="M22.8975 4.52148H24.6604V4.76655H23.908V6.66584H23.6499V4.76655H22.8975V4.52148Z" fill="#231F20"/>
<path d="M23.995 6.753H23.562V4.85371H22.8096V4.43359H24.7474V4.85371H23.995V6.753ZM23.7391 6.57795H23.8222V4.67866H24.5747V4.60864H22.9867V4.67866H23.7391V6.57795Z" fill="#231F20"/>
<path d="M25.1396 4.52148H25.3977V6.66584H25.1396V4.52148Z" fill="#231F20"/>
<path d="M25.4848 6.753H25.0518V4.43359H25.4848V6.753ZM25.2267 6.57795H25.3098V4.60864H25.2267V6.57795Z" fill="#231F20"/>
<path d="M26.1332 6.66584H25.8555L26.7894 4.52148H27.0737L28.0033 6.66584H27.7277L27.509 6.14726H26.352L26.1332 6.66584ZM26.8966 4.86064L26.4526 5.90875H27.4084L26.9644 4.86283C26.9644 4.86283 26.9491 4.82563 26.9294 4.77968C26.9119 4.82563 26.901 4.85189 26.8966 4.85846V4.86064Z" fill="#231F20"/>
<path d="M28.1364 6.753H27.6705L27.4518 6.23442H26.4107L26.1919 6.753H25.7217L26.7322 4.43359H27.1324L28.1385 6.753H28.1364ZM27.7864 6.57795H27.8695L27.0143 4.60864H26.9509L27.5393 5.99591H26.321L26.8153 4.82527C26.8218 4.80995 26.8328 4.78588 26.8481 4.7465L26.905 4.60646H26.8459L25.9885 6.57576H26.076L26.2947 6.05718H27.5677L27.7864 6.57576V6.57795ZM26.5834 5.82305H27.2746L26.929 5.00688L26.5834 5.82305Z" fill="#231F20"/>
<path d="M29.5668 5.38044C29.5975 5.40889 29.6128 5.44609 29.6128 5.49641C29.6128 5.54674 29.5975 5.58394 29.5668 5.61019C29.5362 5.63645 29.499 5.65177 29.4531 5.65177C29.4072 5.65177 29.37 5.63864 29.3372 5.61019C29.3044 5.58175 29.2891 5.54455 29.2891 5.49641C29.2891 5.44827 29.3044 5.40889 29.3372 5.38044C29.37 5.352 29.4072 5.33887 29.4531 5.33887C29.499 5.33887 29.5362 5.352 29.5668 5.38044Z" fill="#231F20"/>
<path d="M29.455 5.92552C29.3435 5.92552 29.2429 5.88832 29.1597 5.81611C29.0679 5.73734 29.0176 5.62356 29.0176 5.49446C29.0176 5.36536 29.0679 5.25377 29.1597 5.17281C29.3238 5.03058 29.5906 5.03058 29.7503 5.17499C29.8378 5.25377 29.8859 5.36755 29.8859 5.49227C29.8859 5.61699 29.8378 5.73078 29.7503 5.80955C29.6694 5.88176 29.5666 5.92114 29.455 5.92114V5.92552ZM29.455 5.37849C29.4375 5.37849 29.4091 5.38505 29.385 5.40693C29.3544 5.43538 29.3413 5.47258 29.3413 5.49446C29.3413 5.51634 29.3544 5.55573 29.385 5.58198C29.4288 5.62137 29.4769 5.62356 29.5206 5.58417C29.5534 5.55573 29.5666 5.51634 29.5666 5.49227C29.5666 5.4682 29.5513 5.42882 29.5206 5.40037C29.501 5.38286 29.4725 5.37411 29.455 5.37411V5.37849Z" fill="#231F20"/>
<path d="M31.1592 4.52148H31.4173V6.42077H32.6049V6.66584H31.1592V4.52148Z" fill="#231F20"/>
<path d="M32.692 6.753H31.0713V4.43359H31.5044V6.33288H32.692V6.753ZM31.2463 6.57795H32.517V6.50793H31.3294V4.60864H31.2463V6.57795Z" fill="#231F20"/>
<path d="M33.103 6.66584H32.8252L33.7591 4.52148H34.0435L34.9752 6.66584H34.6996L34.4809 6.14726H33.3239L33.1052 6.66584H33.103ZM33.8685 4.86064L33.4245 5.90875H34.3803L33.9363 4.86283C33.9363 4.86283 33.921 4.82563 33.9013 4.77968C33.8838 4.82563 33.8729 4.85189 33.8685 4.85846V4.86064Z" fill="#231F20"/>
<path d="M35.109 6.753H34.6431L34.4244 6.23442H33.3833L33.1646 6.753H32.6943L33.7048 4.43359H34.1051L35.1112 6.753H35.109ZM34.7569 6.57795H34.84L33.9848 4.60864H33.9214L34.5075 5.99591H33.2893L33.7836 4.82527C33.7901 4.80995 33.8011 4.78588 33.8164 4.7465L33.8732 4.60646H33.812L32.9546 6.57576H33.0421L33.2608 6.05718H34.5338L34.7525 6.57576L34.7569 6.57795ZM33.5561 5.82305H34.2473L33.9017 5.00688L33.5561 5.82305Z" fill="#231F20"/>
<path d="M35.4346 4.52148H36.3138C36.5391 4.52148 36.7163 4.56743 36.8475 4.66152C36.9787 4.75561 37.0444 4.88909 37.0444 5.06414C37.0444 5.19105 37.0116 5.29389 36.9437 5.37485C36.8759 5.45581 36.795 5.51051 36.701 5.53896C36.8147 5.56959 36.9153 5.62867 37.0006 5.7162C37.0859 5.80372 37.1297 5.92407 37.1297 6.07943C37.1297 6.17352 37.1122 6.25666 37.075 6.32668C37.04 6.39889 36.9941 6.45578 36.9394 6.49736C36.8847 6.53893 36.8213 6.57394 36.7491 6.6002C36.6769 6.62646 36.6069 6.64396 36.5413 6.65271C36.4757 6.66147 36.4079 6.66584 36.3379 6.66584H35.4346V4.52148ZM36.7819 5.10134C36.7819 4.98099 36.7403 4.89565 36.6572 4.84314C36.5741 4.79062 36.4516 4.76655 36.292 4.76655H35.6927V5.43393H36.3641C36.4866 5.43393 36.5872 5.40767 36.666 5.35297C36.7447 5.29827 36.7841 5.21512 36.7841 5.09915L36.7819 5.10134ZM36.8672 6.05098C36.8672 5.80372 36.6966 5.68119 36.3554 5.68119H35.6905V6.42296H36.2854C36.351 6.42296 36.4057 6.42296 36.4516 6.41859C36.4976 6.4164 36.5479 6.40764 36.6047 6.39452C36.6616 6.38139 36.7075 6.36169 36.7425 6.33544C36.7775 6.30918 36.806 6.27198 36.8322 6.22603C36.8563 6.17789 36.8694 6.121 36.8694 6.05317L36.8672 6.05098Z" fill="#231F20"/>
<path d="M36.3375 6.753H35.3467V4.43359H36.3134C36.5562 4.43359 36.7509 4.48611 36.8974 4.58895C37.0527 4.69836 37.1293 4.85809 37.1293 5.06377C37.1293 5.21038 37.0877 5.3351 37.0068 5.43138C36.974 5.46857 36.9412 5.50358 36.904 5.53203C36.9608 5.56485 37.0133 5.60643 37.0615 5.65457C37.1643 5.75741 37.2146 5.89963 37.2146 6.07906C37.2146 6.18628 37.1927 6.28256 37.1511 6.3657C37.1096 6.44885 37.0549 6.51668 36.9915 6.56701C36.9302 6.61515 36.858 6.65235 36.7771 6.68298C36.7006 6.71143 36.624 6.73112 36.5518 6.73987C36.4818 6.74863 36.4097 6.75519 36.3353 6.75519L36.3375 6.753ZM35.5217 6.57795H36.3375C36.4031 6.57795 36.4665 6.57358 36.53 6.56482C36.589 6.55607 36.6546 6.54075 36.7202 6.51668C36.7837 6.49262 36.8405 6.46417 36.8865 6.42697C36.9302 6.39415 36.9674 6.34601 36.9958 6.28693C37.0243 6.22785 37.0396 6.15783 37.0396 6.07687C37.0396 5.94559 37.0068 5.84493 36.9368 5.77491C36.8624 5.69833 36.7771 5.648 36.6765 5.62174L36.3812 5.54297L36.4797 5.51234C36.4425 5.5189 36.4031 5.52109 36.3615 5.52109H35.6026V4.67866H36.2894C36.4687 4.67866 36.6043 4.70711 36.7006 4.76838C36.7771 4.81433 36.8668 4.9106 36.8668 5.10097C36.8668 5.29134 36.7815 5.37667 36.7115 5.42481C36.6918 5.43794 36.6721 5.45107 36.6503 5.45982L36.6721 5.45326C36.7509 5.42919 36.8165 5.38543 36.8712 5.31759C36.9258 5.25195 36.9521 5.1688 36.9521 5.06158C36.9521 4.91498 36.8996 4.80557 36.7924 4.73118C36.6765 4.65022 36.5147 4.60864 36.3112 4.60864H35.5195V6.57795H35.5217ZM35.7776 5.34823H36.3615C36.4643 5.34823 36.5496 5.32635 36.6131 5.28258C36.6481 5.25852 36.694 5.21475 36.694 5.10097C36.694 4.98281 36.6459 4.93905 36.6109 4.91717C36.5431 4.87559 36.4359 4.85371 36.2916 4.85371H35.7797V5.34604L35.7776 5.34823ZM36.285 6.50793H35.6026V5.59111H36.355C36.8493 5.59111 36.9543 5.84056 36.9543 6.04843C36.9543 6.12939 36.939 6.2016 36.9084 6.26067C36.8777 6.31975 36.8405 6.36789 36.7946 6.40071C36.7487 6.43354 36.6918 6.45761 36.624 6.47292C36.5628 6.48824 36.5059 6.49699 36.4578 6.49918C36.4097 6.50137 36.3528 6.50356 36.2872 6.50356L36.285 6.50793ZM35.7776 6.33288H36.285C36.3484 6.33288 36.4009 6.33288 36.4447 6.32851C36.4862 6.32632 36.5322 6.31757 36.5846 6.30663C36.6306 6.29568 36.6656 6.28256 36.6896 6.26286C36.7137 6.24536 36.7334 6.2191 36.7509 6.18409C36.7684 6.14908 36.7771 6.10313 36.7771 6.05061C36.7771 5.91933 36.729 5.76835 36.3528 5.76835H35.7754V6.33507L35.7776 6.33288Z" fill="#231F20"/>
<path d="M37.6298 6.0027C37.5817 5.87141 37.5576 5.73575 37.5576 5.59571C37.5576 5.45567 37.5817 5.32 37.6298 5.18871C37.6779 5.05743 37.7457 4.93927 37.8376 4.83424C37.9273 4.72921 38.0454 4.64387 38.1897 4.58042C38.3341 4.51696 38.4981 4.48633 38.6797 4.48633C38.8612 4.48633 39.0252 4.51696 39.1696 4.58042C39.3139 4.64387 39.4321 4.72702 39.5217 4.83424C39.6114 4.93927 39.6814 5.05743 39.7273 5.18871C39.7755 5.32 39.7995 5.45567 39.7995 5.59571C39.7995 5.73575 39.7755 5.8736 39.7273 6.0027C39.6792 6.13398 39.6114 6.25214 39.5217 6.35717C39.4321 6.4622 39.3139 6.54754 39.1696 6.61099C39.0252 6.67445 38.8612 6.70508 38.6797 6.70508C38.4981 6.70508 38.3341 6.67445 38.1897 6.61099C38.0454 6.54754 37.9273 6.46439 37.8376 6.35717C37.7479 6.25214 37.6779 6.13398 37.6298 6.0027ZM39.4867 5.91517C39.5217 5.81233 39.5414 5.70511 39.5414 5.59352C39.5414 5.48192 39.5239 5.37471 39.4867 5.27186C39.4496 5.16902 39.3993 5.07712 39.3314 4.99616C39.2636 4.9152 39.1718 4.84956 39.0602 4.80142C38.9487 4.75328 38.8218 4.72921 38.6797 4.72921C38.5375 4.72921 38.4128 4.75328 38.2991 4.80142C38.1875 4.84956 38.0957 4.9152 38.0279 4.99616C37.9601 5.07712 37.9076 5.16902 37.8726 5.27186C37.8376 5.37471 37.8179 5.48192 37.8179 5.59352C37.8179 5.70511 37.8354 5.81233 37.8726 5.91517C37.9076 6.01801 37.9601 6.10991 38.0279 6.19087C38.0957 6.27184 38.1875 6.33748 38.2991 6.38562C38.4106 6.43376 38.5375 6.45783 38.6797 6.45783C38.8218 6.45783 38.9465 6.43376 39.0602 6.38562C39.1718 6.33748 39.2636 6.27184 39.3314 6.19087C39.3993 6.10991 39.4517 6.01801 39.4867 5.91517Z" fill="#231F20"/>
<path d="M38.68 6.79017C38.4875 6.79017 38.3104 6.75516 38.1551 6.68733C37.9976 6.6195 37.8685 6.52541 37.7723 6.41163C37.6761 6.30003 37.6017 6.17093 37.5492 6.03089C37.4989 5.89085 37.4727 5.74425 37.4727 5.59327C37.4727 5.44229 37.4989 5.29568 37.5492 5.15564C37.6017 5.01561 37.6761 4.88651 37.7723 4.77491C37.8707 4.66113 37.9998 4.56704 38.1551 4.49921C38.4657 4.36355 38.8943 4.36355 39.2049 4.49921C39.3624 4.56704 39.4915 4.66113 39.5877 4.77491C39.6839 4.88869 39.7583 5.01561 39.8108 5.15564C39.8611 5.29568 39.8873 5.44229 39.8873 5.59327C39.8873 5.74425 39.8611 5.89085 39.8108 6.03089C39.7605 6.17093 39.6839 6.29784 39.5877 6.41163C39.4893 6.52541 39.3602 6.6195 39.2049 6.68733C39.0496 6.75516 38.8725 6.79017 38.68 6.79017ZM38.68 4.5736C38.5116 4.5736 38.3585 4.60205 38.2251 4.66113C38.0938 4.71802 37.9845 4.79679 37.9035 4.89088C37.8204 4.98716 37.757 5.09657 37.7132 5.2191C37.6695 5.33945 37.6476 5.46636 37.6476 5.59546C37.6476 5.72456 37.6695 5.85147 37.7132 5.97181C37.757 6.09216 37.8226 6.20157 37.9035 6.29784C37.9845 6.39193 38.0916 6.46852 38.2251 6.5276C38.4897 6.64357 38.8681 6.64357 39.1349 6.5276C39.2662 6.47071 39.3755 6.39193 39.4565 6.29784C39.5396 6.20157 39.603 6.08997 39.6467 5.97181C39.6905 5.85147 39.7124 5.72456 39.7124 5.59546C39.7124 5.46636 39.6905 5.33945 39.6467 5.2191C39.603 5.09875 39.5396 4.98935 39.4565 4.89088C39.3755 4.79679 39.2684 4.72021 39.1349 4.66113C39.0015 4.60205 38.8484 4.5736 38.68 4.5736ZM38.68 6.5451C38.5269 6.5451 38.3891 6.51884 38.2666 6.46633C38.1419 6.41381 38.0391 6.33942 37.9626 6.24752C37.8882 6.1578 37.8292 6.05496 37.792 5.94556C37.7526 5.83615 37.7329 5.71799 37.7329 5.59546C37.7329 5.47292 37.7526 5.35476 37.792 5.24536C37.8314 5.13376 37.8882 5.03311 37.9626 4.9434C38.0391 4.8515 38.1419 4.7771 38.2666 4.72459C38.5116 4.61956 38.8484 4.61956 39.0956 4.72459C39.2202 4.7771 39.3209 4.8515 39.3996 4.9434C39.474 5.03311 39.533 5.13595 39.5724 5.24755C39.6117 5.35914 39.6314 5.4773 39.6314 5.59765C39.6314 5.71799 39.6117 5.83615 39.5724 5.94774C39.533 6.05934 39.4761 6.16218 39.4018 6.24971C39.3252 6.34161 39.2224 6.416 39.0978 6.46852C38.9753 6.52103 38.8353 6.54729 38.6844 6.54729L38.68 6.5451ZM38.68 4.81867C38.551 4.81867 38.435 4.84056 38.3344 4.88432C38.236 4.92589 38.1551 4.98278 38.096 5.05499C38.0348 5.1272 37.9866 5.21254 37.956 5.30225C37.9232 5.39415 37.9079 5.49262 37.9079 5.59546C37.9079 5.6983 37.9254 5.79676 37.956 5.88867C37.9888 5.98057 38.0348 6.06371 38.096 6.13811C38.1551 6.20813 38.236 6.26502 38.3344 6.30878C38.5356 6.39412 38.8244 6.39412 39.0256 6.30878C39.124 6.26721 39.2049 6.21032 39.264 6.13811C39.3252 6.0659 39.3733 5.98057 39.404 5.89085C39.4368 5.79895 39.4521 5.70049 39.4521 5.59765C39.4521 5.4948 39.4346 5.39853 39.404 5.30444C39.3712 5.21254 39.3252 5.12939 39.264 5.05718C39.2049 4.98716 39.124 4.92808 39.0256 4.88651C38.925 4.84274 38.809 4.82086 38.68 4.82086V4.81867Z" fill="#231F20"/>
<path d="M40.6321 6.66584H40.374V4.52148H41.2139C41.3539 4.52148 41.4829 4.54118 41.5967 4.57838C41.7104 4.61557 41.8088 4.68559 41.892 4.78625C41.9751 4.8869 42.0166 5.016 42.0166 5.17136C42.0166 5.35516 41.9641 5.49739 41.857 5.60023C41.7498 5.70307 41.612 5.76871 41.4436 5.79935L42.1697 6.66584H41.8482L41.1439 5.82123H40.6321V6.66584ZM40.6321 4.76655V5.57616H41.227C41.378 5.57616 41.5048 5.54552 41.6054 5.48207C41.706 5.4208 41.7563 5.31577 41.7563 5.17136C41.7563 5.02694 41.706 4.91972 41.6054 4.85846C41.5048 4.79719 41.378 4.76655 41.227 4.76655H40.6321Z" fill="#231F20"/>
<path d="M42.3552 6.753H41.8062L41.102 5.90839H40.7192V6.753H40.2861V4.43359H41.2135C41.3644 4.43359 41.5022 4.45329 41.6247 4.49486C41.7538 4.53862 41.8675 4.6174 41.9615 4.73118C42.0578 4.84715 42.1059 4.99594 42.1059 5.17099C42.1059 5.37886 42.0425 5.54516 41.92 5.66332C41.8325 5.74647 41.7275 5.80992 41.6028 5.84931L42.3596 6.753H42.3552ZM41.8872 6.57795H41.9812L41.2791 5.7399L41.4279 5.71364C41.5788 5.6852 41.7034 5.62612 41.7953 5.53859C41.885 5.45326 41.9265 5.33291 41.9265 5.17318C41.9265 5.03751 41.8915 4.9303 41.8216 4.84496C41.7494 4.75744 41.6641 4.69617 41.5657 4.66335C41.4607 4.62834 41.3426 4.61083 41.2113 4.61083H40.4589V6.58014H40.542V5.73553H41.1829L41.8872 6.58014V6.57795ZM41.2244 5.66332H40.542V4.67866H41.2244C41.3907 4.67866 41.5328 4.71367 41.6488 4.78369C41.7363 4.83621 41.8434 4.9478 41.8434 5.17099C41.8434 5.39418 41.7384 5.5014 41.651 5.5561C41.5372 5.62612 41.3951 5.66332 41.2266 5.66332H41.2244ZM40.7192 5.48827H41.2266C41.3601 5.48827 41.4716 5.46201 41.5591 5.40731C41.6072 5.37886 41.6685 5.32197 41.6685 5.17099C41.6685 5.05502 41.6335 4.97844 41.5591 4.93249C41.4716 4.87997 41.3601 4.85371 41.2266 4.85371H40.7192V5.48827Z" fill="#231F20"/>
<path d="M43.7582 5.38142C43.7889 5.40986 43.8042 5.44706 43.8042 5.49739C43.8042 5.54772 43.7889 5.58491 43.7582 5.61117C43.7276 5.63962 43.6904 5.65275 43.6445 5.65275C43.5986 5.65275 43.5614 5.63962 43.5286 5.61117C43.498 5.58273 43.4805 5.54553 43.4805 5.49739C43.4805 5.44925 43.4958 5.40986 43.5286 5.38142C43.5614 5.35297 43.5986 5.33984 43.6445 5.33984C43.6904 5.33984 43.7276 5.35297 43.7582 5.38142Z" fill="#231F20"/>
<path d="M43.6472 5.92611C43.5356 5.92611 43.435 5.88891 43.3541 5.81889C43.2622 5.73793 43.2119 5.62415 43.2119 5.49724C43.2119 5.37033 43.2622 5.25654 43.3541 5.17558C43.5203 5.03117 43.785 5.03336 43.9446 5.17777C44.0321 5.25654 44.0802 5.37033 44.0802 5.49505C44.0802 5.61977 44.0321 5.73355 43.9424 5.81451C43.8615 5.88672 43.7587 5.92611 43.6472 5.92611ZM43.6472 5.37908C43.6297 5.37908 43.6012 5.38564 43.5772 5.40752C43.5466 5.43378 43.5334 5.47317 43.5334 5.49505C43.5334 5.51693 43.5466 5.55632 43.5794 5.58476C43.6209 5.62196 43.669 5.62415 43.7128 5.58695C43.7456 5.5585 43.7587 5.51912 43.7587 5.49505C43.7587 5.47098 43.7434 5.43159 43.7128 5.40315C43.6909 5.38346 43.6647 5.37689 43.6472 5.37689V5.37908Z" fill="#231F20"/>
<path d="M45.3516 4.52148H45.6097V6.42077H46.7973V6.66584H45.3516V4.52148Z" fill="#231F20"/>
<path d="M46.8844 6.753H45.2637V4.43359H45.6967V6.33288H46.8844V6.753ZM45.4386 6.57795H46.7094V6.50793H45.5218V4.60864H45.4386V6.57795Z" fill="#231F20"/>
<path d="M47.2783 4.52148H47.5364V6.66584H47.2783V4.52148Z" fill="#231F20"/>
<path d="M47.6235 6.753H47.1904V4.43359H47.6235V6.753ZM47.3654 6.57795H47.4485V4.60864H47.3654V6.57795Z" fill="#231F20"/>
<path d="M48.252 4.52148H49.1312C49.3565 4.52148 49.5337 4.56743 49.6649 4.66152C49.7961 4.75343 49.8617 4.88909 49.8617 5.06414C49.8617 5.19105 49.8289 5.29389 49.7611 5.37485C49.6933 5.45581 49.6124 5.51051 49.5183 5.53896C49.6321 5.56959 49.7327 5.62867 49.818 5.7162C49.9033 5.80372 49.947 5.92407 49.947 6.07943C49.947 6.17352 49.9295 6.25666 49.8945 6.32668C49.8596 6.39889 49.8136 6.45578 49.7589 6.49736C49.7043 6.53893 49.6408 6.57394 49.5687 6.6002C49.4965 6.62646 49.4265 6.64396 49.3609 6.65271C49.2953 6.66147 49.2275 6.66584 49.1575 6.66584H48.2541V4.52148H48.252ZM49.5993 5.10134C49.5993 4.98099 49.5577 4.89565 49.4746 4.84314C49.3915 4.79062 49.269 4.76655 49.1093 4.76655H48.51V5.43393H49.1815C49.304 5.43393 49.4046 5.40767 49.4834 5.35297C49.5621 5.29827 49.6015 5.21512 49.6015 5.09915L49.5993 5.10134ZM49.6846 6.05098C49.6846 5.80372 49.514 5.68119 49.1728 5.68119H48.5079V6.42296H49.1028C49.1684 6.42296 49.2231 6.42296 49.269 6.41859C49.3149 6.4164 49.3652 6.40764 49.4221 6.39452C49.479 6.38139 49.5249 6.36169 49.5599 6.33544C49.5949 6.30918 49.6233 6.27198 49.6496 6.22603C49.6736 6.17789 49.6868 6.121 49.6868 6.05317L49.6846 6.05098Z" fill="#231F20"/>
<path d="M49.1549 6.753H48.1641V4.43359H49.1308C49.3736 4.43359 49.5683 4.48611 49.7148 4.58895C49.8701 4.69836 49.9466 4.85809 49.9466 5.06377C49.9466 5.21038 49.9051 5.3351 49.8263 5.43138C49.7935 5.46857 49.7607 5.50358 49.7235 5.53203C49.7804 5.56485 49.8329 5.60643 49.881 5.65457C49.9838 5.75741 50.0341 5.89963 50.0341 6.07906C50.0341 6.18628 50.0123 6.28256 49.9707 6.3657C49.9291 6.44885 49.8745 6.51668 49.811 6.56701C49.7498 6.61515 49.6776 6.65235 49.5967 6.68298C49.5201 6.71143 49.4436 6.73112 49.3714 6.73987C49.3014 6.74863 49.2292 6.75519 49.1549 6.75519V6.753ZM48.339 6.57795H49.1549C49.2205 6.57795 49.2839 6.57358 49.3473 6.56482C49.4086 6.55607 49.472 6.54075 49.5376 6.51668C49.6011 6.49262 49.6557 6.46417 49.7039 6.42697C49.7476 6.39415 49.7848 6.34601 49.8132 6.28693C49.8417 6.22785 49.857 6.15783 49.857 6.07687C49.857 5.9434 49.8242 5.84493 49.7542 5.77491C49.6798 5.69833 49.5945 5.648 49.4939 5.62174L49.1986 5.54297L49.297 5.51234C49.2599 5.51671 49.2205 5.52109 49.1811 5.52109H48.4222V4.67866H49.1089C49.2883 4.67866 49.4239 4.70711 49.5201 4.76838C49.5967 4.81433 49.6864 4.9106 49.6864 5.10097C49.6864 5.2804 49.6011 5.37667 49.5311 5.42481C49.5114 5.43794 49.4917 5.45107 49.4698 5.45982L49.4917 5.45326C49.5704 5.42919 49.6361 5.38543 49.6929 5.31759C49.7476 5.25195 49.7739 5.1688 49.7739 5.06158C49.7739 4.91498 49.7214 4.80557 49.6142 4.72899C49.4983 4.64803 49.3364 4.60646 49.133 4.60646H48.3412V6.57576L48.339 6.57795ZM48.5971 5.34823H49.1811C49.2861 5.34823 49.3692 5.32635 49.4326 5.28258C49.4676 5.25852 49.5136 5.21475 49.5136 5.10097C49.5136 4.98281 49.4655 4.93905 49.4305 4.91717C49.3627 4.87559 49.2555 4.85371 49.1111 4.85371H48.5993V5.34604L48.5971 5.34823ZM49.1024 6.50793H48.42V5.59111H49.1724C49.6667 5.59111 49.7717 5.84056 49.7717 6.04843C49.7717 6.12939 49.7564 6.2016 49.7257 6.26067C49.6951 6.31975 49.6557 6.36789 49.612 6.40071C49.5683 6.43354 49.5114 6.45761 49.4414 6.47292C49.3802 6.48824 49.3233 6.49699 49.2752 6.49918C49.2292 6.50137 49.1724 6.50356 49.1046 6.50356L49.1024 6.50793ZM48.5971 6.33288H49.1046C49.168 6.33288 49.2205 6.33288 49.2642 6.32851C49.3058 6.32632 49.3517 6.31757 49.4042 6.30663C49.4501 6.29568 49.4851 6.28256 49.5092 6.26286C49.5333 6.24536 49.5529 6.2191 49.5726 6.18409C49.5901 6.14908 49.5989 6.10313 49.5989 6.05061C49.5989 5.91933 49.5508 5.76835 49.1746 5.76835H48.5971V6.33507V6.33288Z" fill="#231F20"/>
<path d="M50.5225 4.52148H51.9682V4.76655H50.7806V5.46238H51.8763V5.70745H50.7806V6.42077H51.9879V6.66584H50.5246V4.52148H50.5225Z" fill="#231F20"/>
<path d="M52.0728 6.753H50.4346V4.43359H52.0553V4.85371H50.8676V5.37449H51.9634V5.7946H50.8676V6.33288H52.075V6.753H52.0728ZM50.6095 6.57795H51.8978V6.50793H50.6905V5.61956H51.7863V5.54954H50.6905V4.67866H51.8781V4.60864H50.6074V6.57795H50.6095Z" fill="#231F20"/>
<path d="M52.8304 6.66584H52.5723V4.52148H53.4122C53.5521 4.52148 53.6812 4.54118 53.7949 4.57838C53.9087 4.61557 54.0071 4.68559 54.0902 4.78625C54.1733 4.8869 54.2149 5.016 54.2149 5.17136C54.2149 5.35516 54.1624 5.49739 54.0552 5.60023C53.948 5.70307 53.8102 5.76871 53.6418 5.79935L54.368 6.66584H54.0464L53.3422 5.82123H52.8304V6.66584ZM52.8304 4.76655V5.57616H53.4253C53.5762 5.57616 53.7031 5.54552 53.8037 5.48207C53.9043 5.4208 53.9546 5.31577 53.9546 5.17136C53.9546 5.02694 53.9043 4.91972 53.8037 4.85846C53.7031 4.79719 53.5762 4.76655 53.4253 4.76655H52.8304Z" fill="#231F20"/>
<path d="M54.5557 6.753H54.0045L53.3002 5.90839H52.9174V6.753H52.4844V4.43359H53.4118C53.5605 4.43359 53.6983 4.45329 53.8229 4.49486C53.952 4.53862 54.0657 4.6174 54.1576 4.73118C54.2538 4.84715 54.3019 4.99594 54.3019 5.17099C54.3019 5.37886 54.2385 5.54516 54.116 5.66332C54.0285 5.74647 53.9236 5.80992 53.7989 5.84931L54.5557 6.753ZM54.0876 6.57795H54.1817L53.4796 5.7399L53.6283 5.71364C53.7792 5.6852 53.9039 5.62612 53.9957 5.53859C54.0854 5.45326 54.1292 5.33291 54.1292 5.17318C54.1292 5.03751 54.0942 4.9303 54.0242 4.84496C53.952 4.75525 53.8689 4.69617 53.7683 4.66335C53.6633 4.62834 53.543 4.61083 53.4139 4.61083H52.6615V6.58014H52.7447V5.73553H53.3855L54.0898 6.58014L54.0876 6.57795ZM53.4249 5.66332H52.7425V4.67866H53.4249C53.5911 4.67866 53.7333 4.71367 53.8492 4.78369C53.9367 4.83621 54.0439 4.9478 54.0439 5.17099C54.0439 5.34823 53.9782 5.47733 53.8514 5.5561C53.7376 5.62612 53.5933 5.66332 53.4271 5.66332H53.4249ZM52.9174 5.48827H53.4249C53.5583 5.48827 53.6698 5.46201 53.7573 5.40731C53.8055 5.37886 53.8667 5.32197 53.8667 5.17099C53.8667 5.02001 53.8033 4.96093 53.7573 4.93249C53.6698 4.87997 53.5583 4.85371 53.4249 4.85371H52.9174V5.48827Z" fill="#231F20"/>
<path d="M54.6143 4.52148H56.3772V4.76655H55.6248V6.66584H55.3667V4.76655H54.6143V4.52148Z" fill="#231F20"/>
<path d="M55.7118 6.753H55.2788V4.85371H54.5264V4.43359H56.4642V4.85371H55.7118V6.753ZM55.4559 6.57795H55.539V4.67866H56.2914V4.60864H54.7035V4.67866H55.4559V6.57795Z" fill="#231F20"/>
<path d="M56.8764 6.66584H56.5986L57.5326 4.52148H57.8169L58.7487 6.66584H58.4731L58.2544 6.14726H57.0973L56.8786 6.66584H56.8764ZM57.6397 4.86064L57.1957 5.90875H58.1516L57.7076 4.86283C57.7076 4.86283 57.6922 4.82563 57.6726 4.77968C57.6551 4.82563 57.6441 4.85189 57.6397 4.85846V4.86064Z" fill="#231F20"/>
<path d="M58.8795 6.753H58.4137L58.1949 6.23442H57.1538L56.9351 6.753H56.4648L57.4753 4.43359H57.8756L58.8817 6.753H58.8795ZM58.5274 6.57795H58.6127L57.7575 4.60864H57.6941L58.2802 5.99591H57.062L57.5563 4.82527C57.5628 4.80995 57.5738 4.78588 57.5891 4.7465L57.6459 4.60646H57.5847L56.7273 6.57576H56.8148L57.0335 6.05718H58.3065L58.5252 6.57576L58.5274 6.57795ZM57.3266 5.82305H58.0178L57.6722 5.00688L57.3266 5.82305Z" fill="#231F20"/>
<path d="M59.0762 5.05305C59.0762 4.87144 59.1462 4.7314 59.2883 4.63293C59.4283 4.53447 59.6033 4.48633 59.8111 4.48633C60.0626 4.48633 60.2791 4.53884 60.4607 4.64168V4.89988C60.2813 4.78391 60.0714 4.72702 59.8308 4.7314C59.5027 4.7314 59.3386 4.83424 59.3386 5.04211C59.3386 5.12526 59.3714 5.19747 59.4349 5.25655C59.4983 5.31563 59.577 5.36158 59.6689 5.39659C59.7608 5.4316 59.8636 5.46879 59.9729 5.51037C60.0823 5.55194 60.1851 5.58914 60.2835 5.62634C60.3797 5.66354 60.4607 5.7248 60.5219 5.81014C60.5832 5.89548 60.616 6.00051 60.616 6.12304C60.616 6.22588 60.5941 6.3156 60.5504 6.39218C60.5066 6.46877 60.4476 6.53003 60.371 6.57598C60.2944 6.62193 60.2113 6.65257 60.1195 6.67445C60.0276 6.69414 59.9292 6.70508 59.822 6.70508C59.5508 6.70508 59.3058 6.64382 59.0871 6.52128V6.26308C59.3015 6.39437 59.5399 6.46001 59.8045 6.46001C60.172 6.46001 60.3557 6.3528 60.3557 6.14055C60.3557 6.06396 60.3316 5.99613 60.2857 5.93924C60.2398 5.88235 60.1763 5.84077 60.0998 5.81014C60.0232 5.7817 59.9379 5.74887 59.8483 5.71605C59.7586 5.68104 59.6689 5.64822 59.5792 5.6154C59.4896 5.58258 59.4086 5.54319 59.3321 5.49943C59.2555 5.45567 59.1965 5.39659 59.1483 5.32C59.1024 5.24561 59.0784 5.15589 59.0784 5.05305H59.0762Z" fill="#231F20"/>
<path d="M59.8197 6.79005C59.5353 6.79005 59.2729 6.72441 59.041 6.59531L58.9951 6.57124V6.10736L59.1285 6.18832C59.3275 6.31086 59.555 6.37212 59.8 6.37212C60.2637 6.37212 60.2637 6.19926 60.2637 6.14018C60.2637 6.0811 60.2483 6.03734 60.2134 5.99577C60.1762 5.94981 60.1259 5.91699 60.0624 5.89292L59.5441 5.69599C59.4522 5.66098 59.3647 5.61941 59.2838 5.57346C59.1963 5.52313 59.1241 5.45311 59.0694 5.36559C59.0148 5.27587 58.9863 5.17084 58.9863 5.05269C58.9863 4.84263 59.0694 4.67633 59.2357 4.56036C59.391 4.45314 59.5834 4.39844 59.8087 4.39844C60.0734 4.39844 60.3074 4.45533 60.5021 4.56692L60.5458 4.59318V5.06144L60.4102 4.97391C60.2527 4.87107 60.0646 4.81856 59.8525 4.81856H59.8306C59.4238 4.81856 59.4238 4.98048 59.4238 5.04175C59.4238 5.10301 59.4456 5.14896 59.4916 5.19054C59.5463 5.24086 59.6162 5.28244 59.6972 5.31307L60.3118 5.54282C60.4255 5.5844 60.5196 5.65661 60.5917 5.75726C60.6661 5.85791 60.7033 5.98045 60.7033 6.12049C60.7033 6.23865 60.677 6.34368 60.6267 6.43339C60.5764 6.5231 60.5043 6.5975 60.4168 6.65001C60.3337 6.70034 60.2396 6.73535 60.139 6.75942C60.0406 6.7813 59.9356 6.79224 59.824 6.79224L59.8197 6.79005ZM59.1722 6.46621C59.3647 6.56468 59.5834 6.615 59.8197 6.615C59.9181 6.615 60.0121 6.60625 60.0974 6.58656C60.1805 6.56905 60.2549 6.53842 60.3227 6.49903C60.3861 6.46184 60.4343 6.41151 60.4693 6.34805C60.5064 6.2846 60.5239 6.20801 60.5239 6.12049C60.5239 6.01765 60.4977 5.93231 60.4474 5.8601C60.3949 5.78789 60.3293 5.73757 60.2483 5.70693L59.6337 5.47718C59.5309 5.43779 59.4413 5.38528 59.3713 5.31964C59.2882 5.24305 59.2488 5.15115 59.2488 5.04175C59.2488 4.86013 59.3494 4.64351 59.8284 4.64351H59.8525C60.0428 4.64351 60.2155 4.6807 60.3708 4.75072V4.69383C60.2134 4.61287 60.0231 4.57349 59.8087 4.57349C59.6206 4.57349 59.461 4.61725 59.3341 4.70477C59.2182 4.78573 59.1613 4.89952 59.1613 5.05269C59.1613 5.13802 59.1788 5.21023 59.2182 5.27369C59.2575 5.33714 59.3079 5.38747 59.3713 5.42467C59.4435 5.46624 59.52 5.50344 59.6053 5.53407L60.1237 5.731C60.2155 5.76601 60.2899 5.81634 60.3468 5.88417C60.408 5.95638 60.4386 6.04172 60.4386 6.14018C60.4386 6.32617 60.3271 6.54717 59.8 6.54717C59.5747 6.54717 59.3647 6.50122 59.1701 6.40932V6.4684L59.1722 6.46621Z" fill="#231F20"/>
<path d="M44.6081 18.8248C45.8177 17.9014 47.4559 17.4397 49.0263 17.4397C50.4764 17.4397 51.4497 17.7876 52.0228 18.0655C51.7844 16.4988 49.5753 15.2275 47.819 15.2188C45.6908 15.2188 43.8251 15.827 42.4975 16.8226C40.7565 18.1246 39.2648 20.0829 38.4336 23.3323L35.9315 33.0782H33.4118C30.7565 33.0782 29.3414 34.8068 29.1424 35.5814H35.4634L32.9372 45.2835C32.3379 47.6008 31.2049 49.2615 30.0807 50.1784C28.9018 51.1389 26.9442 51.6641 25.3738 51.6641C23.8034 51.6641 23.3047 51.4518 22.666 51.1368C22.9044 52.7034 25.1223 53.8763 26.8808 53.8872C29.0089 53.8872 30.8637 53.1783 32.1913 52.1849C33.9324 50.8829 35.3825 48.883 36.2158 45.6818L38.7923 35.7871H41.1436C43.7989 35.7871 45.214 34.0585 45.413 33.2839H39.2626L41.721 23.6671C42.4516 20.9144 43.5473 19.6409 44.6081 18.8291V18.8248Z" fill="#000002"/>
<path d="M33.0355 64.4293H31.4716V66.2564H31.0342V62.5322H33.0355V62.9239H31.4804V64.0464H33.0355V64.4293Z" fill="#231F20"/>
<path d="M31.498 66.2828H31.0059V62.5039H33.0618V62.9503H31.5067V64.0181H33.0618V64.4557H31.498V66.2828ZM31.0605 66.2281H31.4433V64.401H33.0072V64.0728H31.4521V62.8956H33.0072V62.5586H31.0605V66.2281Z" fill="#231F20"/>
<path d="M36.1091 66.2564L34.9565 64.6853H34.5081V66.2564H34.04V62.5322L35.4027 62.5432C35.7854 62.5475 36.0851 62.6416 36.3016 62.8298C36.5182 63.018 36.6253 63.2784 36.6253 63.6088C36.6253 63.9392 36.5291 64.1777 36.3344 64.3659C36.1398 64.5541 35.8707 64.6613 35.5252 64.681L36.7128 66.2564H36.1091ZM34.5103 64.2127H35.477C35.6717 64.2127 35.8336 64.1646 35.9604 64.0661C36.0873 63.9676 36.1507 63.8167 36.1507 63.6088C36.1507 63.4009 36.0873 63.2477 35.9604 63.1515C35.8336 63.0552 35.6717 63.0049 35.477 63.0049H34.5103V64.2127Z" fill="#231F20"/>
<path d="M36.7674 66.2826H36.0959L36.0872 66.2716L34.9432 64.7137H34.5364V66.2847H34.0137V62.5059L35.4047 62.5168C35.7919 62.5212 36.1003 62.6196 36.3212 62.81C36.5421 63.0026 36.6558 63.2717 36.6558 63.6109C36.6558 63.95 36.5552 64.1951 36.3562 64.3876C36.1681 64.5714 35.9056 64.6787 35.5797 64.7071L36.7696 66.2869L36.7674 66.2826ZM36.1221 66.2279H36.658L35.4725 64.6546H35.5229C35.8597 64.6327 36.1265 64.5277 36.3146 64.3439C36.5027 64.1601 36.599 63.9128 36.599 63.6065C36.599 63.2848 36.494 63.0288 36.284 62.8472C36.074 62.6656 35.7766 62.5693 35.4047 62.5671L34.0684 62.5584V66.2279H34.4817V64.6568H34.9717L34.9804 64.6677L36.1243 66.2257L36.1221 66.2279ZM35.4747 64.2388H34.4817V62.9763H35.4747C35.6738 62.9763 35.8422 63.0266 35.9734 63.1273C36.1068 63.2301 36.1746 63.392 36.1746 63.6065C36.1746 63.8209 36.1068 63.9828 35.9734 64.0857C35.8422 64.1863 35.6738 64.2367 35.4747 64.2367V64.2388ZM34.5364 64.1841H35.4747C35.6628 64.1841 35.8181 64.136 35.9406 64.0441C36.0609 63.9522 36.12 63.8056 36.12 63.6087C36.12 63.4117 36.0587 63.2629 35.9406 63.1732C35.8181 63.0791 35.6606 63.0332 35.4747 63.0332H34.5364V64.1863V64.1841Z" fill="#231F20"/>
<path d="M39.7419 66.2564H37.7188V62.5322H39.7419V62.9348H38.1781V64.0377H39.7419V64.4206H38.1671V65.856H39.7419V66.2586V66.2564Z" fill="#231F20"/>
<path d="M39.7683 66.2828H37.6904V62.5039H39.7683V62.9612H38.2044V64.0093H39.7683V64.447H38.1935V65.8277H39.7683V66.285V66.2828ZM37.7451 66.2281H39.7136V65.8802H38.1388V64.3901H39.7136V64.0618H38.1497V62.9043H39.7136V62.5564H37.7451V66.2259V66.2281Z" fill="#231F20"/>
<path d="M42.7693 66.2564H40.7461V62.5322H42.7693V62.9348H41.2054V64.0377H42.7693V64.4206H41.1945V65.856H42.7693V66.2586V66.2564Z" fill="#231F20"/>
<path d="M42.7976 66.2828H40.7197V62.5039H42.7976V62.9612H41.2337V64.0093H42.7976V64.447H41.2228V65.8277H42.7976V66.285V66.2828ZM40.7744 66.2281H42.7429V65.8802H41.1681V64.3901H42.7429V64.0618H41.179V62.9043H42.7429V62.5564H40.7744V66.2259V66.2281Z" fill="#231F20"/>
<path d="M24.8933 67.7842L24.8823 70.2546C24.8823 70.5171 24.8167 70.7491 24.6833 70.9548C24.5499 71.1604 24.3705 71.318 24.1431 71.434C23.9156 71.5477 23.6641 71.6046 23.3885 71.6046C23.1129 71.6046 22.8635 71.5456 22.6383 71.4252C22.413 71.3071 22.2358 71.1429 22.1068 70.9373C21.9777 70.7316 21.9121 70.504 21.9121 70.2546V67.7842H22.3605V70.2546C22.3605 70.4384 22.4064 70.6025 22.4961 70.7469C22.5858 70.8913 22.7104 71.0029 22.8679 71.0839C23.0254 71.1648 23.1982 71.2042 23.3863 71.2042C23.5744 71.2042 23.7428 71.1583 23.9047 71.0686C24.0665 70.9788 24.1934 70.8607 24.2896 70.7141C24.3858 70.5675 24.434 70.4143 24.434 70.2546V67.7842H24.8911H24.8933Z" fill="#231F20"/>
<path d="M23.3881 71.6308C23.1103 71.6308 22.8523 71.5695 22.6248 71.4492C22.3973 71.3288 22.2158 71.1603 22.0845 70.9525C21.9533 70.7424 21.8877 70.5083 21.8877 70.2566V67.7578H22.3908V70.2566C22.3908 70.4361 22.4345 70.5958 22.522 70.7358C22.6095 70.8759 22.732 70.9853 22.8829 71.0641C23.036 71.1428 23.2066 71.1822 23.3881 71.1822C23.5697 71.1822 23.7359 71.1385 23.8934 71.0487C24.0508 70.9612 24.1755 70.8452 24.2696 70.703C24.3614 70.563 24.4096 70.412 24.4096 70.2566V67.7578H24.9214L24.9104 70.2566C24.9104 70.5214 24.8426 70.7621 24.707 70.97C24.5714 71.1778 24.3877 71.342 24.1558 71.4579C23.924 71.5739 23.6659 71.6308 23.3881 71.6308ZM21.9424 67.8103V70.2545C21.9424 70.4973 22.0058 70.7205 22.1327 70.9218C22.2595 71.1231 22.4345 71.2851 22.6532 71.401C22.8719 71.517 23.1213 71.5761 23.3903 71.5761C23.6593 71.5761 23.9087 71.5192 24.1318 71.4076C24.3549 71.296 24.532 71.1385 24.6611 70.9393C24.7901 70.7402 24.8557 70.5105 24.8557 70.2545L24.8667 67.8103H24.4642V70.2545C24.4642 70.4208 24.4139 70.5805 24.3155 70.7293C24.2171 70.8781 24.0858 71.0006 23.9218 71.0925C23.7578 71.1844 23.5784 71.2325 23.3903 71.2325C23.2022 71.2325 23.0207 71.191 22.8588 71.1078C22.697 71.0247 22.5679 70.9087 22.4761 70.7599C22.3842 70.6111 22.3361 70.4404 22.3361 70.2523V67.8081H21.9424V67.8103Z" fill="#231F20"/>
<path d="M29.1234 71.5872H29.0337L26.3172 68.5983V71.5063H25.8994V67.6924H26.0044L28.6969 70.6814V67.7821H29.1234V71.5872Z" fill="#231F20"/>
<path d="M29.1517 71.6153H29.0226L29.0139 71.6066L26.3455 68.6701V71.5366H25.873V67.668H26.0174L26.0262 67.6767L28.6705 70.6132V67.7577H29.1517V71.6175V71.6153ZM29.0467 71.5606H29.097V67.8102H28.7252V70.7532L28.6771 70.7007L25.9933 67.7205H25.9277V71.4797H26.2908V68.5279L29.0467 71.5606Z" fill="#231F20"/>
<path d="M30.5683 71.5084H30.1309V67.7842H30.5683V71.5084Z" fill="#231F20"/>
<path d="M30.5947 71.5347H30.1025V67.7559H30.5947V71.5347ZM30.1572 71.48H30.54V67.8106H30.1572V71.48Z" fill="#231F20"/>
<path d="M34.471 67.7842L32.9225 71.6243H32.7869L31.2471 67.7842H31.7611L32.8722 70.8388L33.9745 67.7842H34.4732H34.471Z" fill="#231F20"/>
<path d="M32.9395 71.6507H32.7667L32.7602 71.6332L31.2051 67.7559H31.7781L31.7847 67.7734L32.8695 70.758L33.9522 67.7559H34.51L32.9395 71.6507ZM32.8039 71.596H32.9024L34.429 67.8106H33.9916L32.8717 70.9177L31.7409 67.8106H31.2882L32.8061 71.596H32.8039Z" fill="#231F20"/>
<path d="M37.1736 71.5084H35.1504V67.7842H37.1736V68.1868H35.6097V69.2896H37.1736V69.6725H35.5988V71.1057H37.1736V71.5084Z" fill="#231F20"/>
<path d="M37.1999 71.5347H35.1221V67.7559H37.1999V68.2132H35.6361V69.2613H37.1999V69.6989H35.6251V71.0774H37.1999V71.5347ZM35.1768 71.48H37.1452V71.1321H35.5704V69.6442H37.1452V69.316H35.5814V68.1585H37.1452V67.8106H35.1768V71.48Z" fill="#231F20"/>
<path d="M40.0964 71.5084L38.9438 69.9373H38.4954V71.5084H38.0273V67.7842L39.39 67.7951C39.7727 67.7995 40.0724 67.8936 40.2889 68.0818C40.5055 68.2699 40.6126 68.5303 40.6126 68.8629C40.6126 69.1955 40.5164 69.4296 40.3217 69.62C40.1271 69.8104 39.858 69.9154 39.5125 69.9351L40.7001 71.5105H40.0964V71.5084ZM38.4954 69.4647H39.4622C39.6568 69.4647 39.8187 69.4165 39.9455 69.3181C40.0724 69.2196 40.1358 69.0686 40.1358 68.8607C40.1358 68.6529 40.0724 68.4997 39.9455 68.4034C39.8187 68.3049 39.6568 68.2568 39.4622 68.2568H38.4954V69.4647Z" fill="#231F20"/>
<path d="M40.7547 71.5345H40.0832L40.0745 71.5236L38.9305 69.9656H38.5237V71.5367H38.001V67.7578L39.392 67.7688C39.7792 67.7731 40.0876 67.8716 40.3085 68.062C40.5294 68.2545 40.6431 68.5237 40.6431 68.8628C40.6431 69.1845 40.5425 69.4449 40.3435 69.6396C40.1554 69.8234 39.8929 69.9306 39.567 69.9591L40.7569 71.5389L40.7547 71.5345ZM40.1095 71.4798H40.6453L39.4598 69.9065H39.5102C39.847 69.8847 40.1138 69.7796 40.3019 69.5958C40.49 69.412 40.5863 69.1648 40.5863 68.8584C40.5863 68.5368 40.4813 68.2808 40.2713 68.0992C40.0613 67.9175 39.7661 67.8235 39.392 67.8191L38.0557 67.8103V71.4798H38.469V69.9087H38.959L38.9677 69.9197L40.1116 71.4776L40.1095 71.4798ZM39.462 69.4908H38.469V68.2283H39.462C39.6611 68.2283 39.8295 68.2786 39.9607 68.3792C40.0941 68.4821 40.1619 68.644 40.1619 68.8584C40.1619 69.0729 40.0941 69.2348 39.9607 69.3376C39.8295 69.4383 39.6611 69.4886 39.462 69.4886V69.4908ZM38.5237 69.4361H39.462C39.6501 69.4361 39.8054 69.388 39.9279 69.2961C40.0482 69.2042 40.1073 69.0576 40.1073 68.8606C40.1073 68.6637 40.046 68.5149 39.9279 68.4252C39.8054 68.3311 39.6501 68.2852 39.462 68.2852H38.5237V69.4383V69.4361Z" fill="#231F20"/>
<path d="M43.5325 68.6173C43.4931 68.4598 43.3947 68.3351 43.2416 68.241C43.0863 68.1469 42.8916 68.1009 42.6532 68.1009C42.4585 68.1009 42.2901 68.1578 42.1479 68.2694C42.0058 68.381 41.9336 68.5211 41.9336 68.6895C41.9336 68.8143 41.9752 68.9258 42.0583 69.0265C42.1414 69.1272 42.2726 69.2016 42.4498 69.2475L43.2044 69.4488C43.4865 69.5254 43.6877 69.6611 43.8102 69.8514C43.9327 70.0418 43.994 70.2518 43.994 70.475C43.994 70.6982 43.9415 70.8842 43.8365 71.0505C43.7315 71.2168 43.5784 71.3459 43.3772 71.4378C43.1759 71.5297 42.9375 71.5757 42.6619 71.5757C42.0014 71.5757 41.5815 71.2693 41.4043 70.6588L41.8111 70.4532C41.8352 70.5844 41.8899 70.707 41.9752 70.8208C42.0605 70.9345 42.1654 71.0264 42.2879 71.0921C42.4104 71.1577 42.5395 71.1927 42.6729 71.1927C42.9441 71.1927 43.1584 71.1293 43.3115 70.998C43.4668 70.8689 43.5434 70.7004 43.5434 70.4925C43.5434 70.1578 43.3662 69.9433 43.0097 69.8536L42.3164 69.6786C42.0517 69.6107 41.8461 69.4882 41.6974 69.3088C41.5508 69.1293 41.4765 68.9346 41.4765 68.7267C41.4765 68.5189 41.5333 68.3438 41.6449 68.1885C41.7564 68.0331 41.9074 67.9171 42.0976 67.8362C42.2879 67.7552 42.4935 67.7158 42.7188 67.7158C43.0469 67.7158 43.3137 67.7793 43.5171 67.904C43.7206 68.0309 43.8583 68.206 43.9327 68.4291L43.5346 68.6151L43.5325 68.6173Z" fill="#231F20"/>
<path d="M42.6616 71.604C41.9901 71.604 41.5592 71.2889 41.3777 70.6675L41.3711 70.6456L41.8304 70.4115L41.837 70.4487C41.8588 70.5756 41.9135 70.6937 41.9945 70.8053C42.0776 70.9147 42.1782 71.0045 42.2985 71.0701C42.4166 71.1336 42.5413 71.1664 42.6703 71.1664C42.935 71.1664 43.1427 71.1029 43.2915 70.9782C43.438 70.8557 43.5124 70.6916 43.5124 70.4924C43.5124 70.1686 43.344 69.9673 43.0006 69.8798L42.3072 69.7047C42.0382 69.6369 41.8238 69.51 41.6729 69.3262C41.522 69.1424 41.4455 68.9411 41.4455 68.7266C41.4455 68.5122 41.5045 68.3306 41.6182 68.173C41.732 68.0155 41.8895 67.8929 42.0819 67.812C42.2744 67.731 42.4866 67.6895 42.714 67.6895C43.0465 67.6895 43.3199 67.7551 43.5255 67.882C43.7333 68.0111 43.8755 68.1927 43.952 68.4225L43.9586 68.4465L43.5102 68.6566L43.5014 68.6238C43.4643 68.475 43.3702 68.3525 43.2215 68.2627C43.0727 68.1708 42.8781 68.1271 42.6462 68.1271C42.4581 68.1271 42.2941 68.1818 42.1585 68.289C42.0207 68.3962 41.9551 68.5275 41.9551 68.6872C41.9551 68.8054 41.9944 68.9126 42.0754 69.0067C42.1541 69.103 42.2832 69.173 42.4538 69.2189L43.2084 69.4203C43.4949 69.499 43.7049 69.6391 43.8295 69.8338C43.9542 70.0286 44.0176 70.243 44.0176 70.4727C44.0176 70.7025 43.9629 70.8929 43.8558 71.0635C43.7486 71.2342 43.5889 71.3677 43.3833 71.4618C43.1799 71.5559 42.935 71.6018 42.6572 71.6018L42.6616 71.604ZM41.4367 70.6762C41.6161 71.2648 42.0163 71.5515 42.6616 71.5515C42.9306 71.5515 43.1668 71.5055 43.3636 71.4158C43.5583 71.3261 43.7092 71.1992 43.812 71.0395C43.9148 70.8775 43.9673 70.6894 43.9673 70.4771C43.9673 70.2649 43.9061 70.0526 43.788 69.8666C43.6699 69.6828 43.4708 69.5515 43.1974 69.475L42.4428 69.2737C42.2613 69.2255 42.1235 69.1467 42.036 69.0439C41.9485 68.9389 41.9048 68.8185 41.9048 68.6894C41.9048 68.5144 41.9791 68.3656 42.1301 68.2474C42.2766 68.1315 42.4516 68.0724 42.6528 68.0724C42.8956 68.0724 43.0968 68.1205 43.2565 68.2168C43.4052 68.3087 43.5058 68.429 43.5517 68.58L43.8973 68.4181C43.8251 68.2124 43.6917 68.0483 43.5014 67.9301C43.3046 67.8076 43.0399 67.7463 42.7184 67.7463C42.4975 67.7463 42.2919 67.7857 42.1082 67.8645C41.9245 67.9433 41.7757 68.0571 41.6664 68.208C41.557 68.3568 41.5023 68.5319 41.5023 68.731C41.5023 68.9301 41.5745 69.1205 41.7167 69.2955C41.8588 69.4684 42.0623 69.5909 42.3203 69.6566L43.0137 69.8316C43.3811 69.9257 43.5671 70.1489 43.5671 70.4968C43.5671 70.7134 43.4861 70.8885 43.3265 71.0241C43.169 71.1576 42.9481 71.2255 42.6703 71.2255C42.5325 71.2255 42.3991 71.1904 42.2722 71.1204C42.1476 71.0526 42.0382 70.9585 41.9507 70.8403C41.8698 70.7331 41.8173 70.6193 41.7889 70.4968L41.4345 70.6762H41.4367Z" fill="#231F20"/>
<path d="M45.2871 71.5084H44.8496V67.7842H45.2871V71.5084Z" fill="#231F20"/>
<path d="M45.3154 71.5347H44.8232V67.7559H45.3154V71.5347ZM44.8779 71.48H45.2607V67.8106H44.8779V71.48Z" fill="#231F20"/>
<path d="M48.6726 68.1759H47.6009V71.5084H47.1372V68.1759H46.0654V67.7842H48.6704V68.1759H48.6726Z" fill="#231F20"/>
<path d="M47.6292 71.5347H47.1108V68.2022H46.0391V67.7559H48.6987V68.2022H47.627V71.5347H47.6292ZM47.1655 71.48H47.5745V68.1475H48.6462V67.8106H46.0959V68.1475H47.1677V71.48H47.1655Z" fill="#231F20"/>
<path d="M52.0624 67.7842L50.8398 69.8366V71.5084H50.387V69.8366L49.125 67.7842H49.6784L50.6342 69.445L51.5441 67.7842H52.0624Z" fill="#231F20"/>
<path d="M50.8685 71.5347H50.361V69.8433L49.0771 67.7559H49.6961L50.6366 69.3882L51.5312 67.7559H52.113L50.8707 69.8433V71.5347H50.8685ZM50.4157 71.48H50.8138V69.8302L50.8182 69.8236L52.0168 67.8106H51.5618L50.6366 69.4998L49.6655 67.8106H49.1778L50.4179 69.828V71.48H50.4157Z" fill="#231F20"/>
</svg>
