<svg width="128" height="51" viewBox="0 0 128 51" fill="none" xmlns="http://www.w3.org/2000/svg">
<path d="M3.93537 40V11.4886H12.5289C18.3517 11.4886 21.6446 14.3398 21.6446 19.3995C21.6446 23.4955 19.195 26.3065 14.9785 27.0695L22.2871 40H19.8776L12.7297 27.3506H6.10384V40H3.93537ZM6.10384 25.5837H12.5289C16.8659 25.5837 19.3556 23.3349 19.3556 19.4397C19.3556 15.4642 16.9864 13.3358 12.5289 13.3358H6.10384V25.5837ZM37.5514 40.4819C31.6082 40.4819 28.5964 36.3457 28.5964 29.6395C28.5964 23.5357 31.9294 19.4397 37.3104 19.4397C43.4143 19.4397 45.5426 23.9774 45.5426 29.3584L45.5024 30.2419H30.6444V30.3222C30.6444 35.4623 33.2144 38.715 37.5514 38.715C41.1253 38.6748 42.9324 36.3056 43.6552 33.8158L45.4221 34.5387C44.2977 38.1528 41.5671 40.4819 37.5514 40.4819ZM43.4544 28.5553C43.4946 24.6601 41.8482 21.046 37.2301 21.046C32.8932 21.046 30.6846 24.7805 30.6444 28.5553H43.4544ZM54.5424 47.8306V19.9216H56.4298V24.901C57.4337 21.8089 60.2046 19.4397 63.4171 19.4397C68.6777 19.4397 71.7296 23.8168 71.7296 29.9206C71.7296 36.1851 68.5973 40.4819 63.2565 40.4819C60.2447 40.4819 57.4337 38.474 56.5503 35.382V47.8306H54.5424ZM63.0155 38.715C67.1918 38.715 69.6414 35.2615 69.6414 29.9206C69.6414 24.7002 67.3525 21.2066 63.0958 21.2066C58.9998 21.2066 56.47 25.0616 56.47 29.5592V30.3222C56.47 35.0607 58.9195 38.715 63.0155 38.715ZM80.1672 40V38.3134H86.8734V12.5729H80.5688V10.8863H88.8411V38.3134H96.1497V40H80.1672ZM105.591 19.9216L112.418 37.7512L118.803 19.9216H120.891L112.98 41.285C111.213 46.144 109.165 48.1117 105.752 48.1117C105.23 48.1117 104.668 48.0715 104.105 47.9109V46.1038C104.587 46.2243 105.029 46.2645 105.672 46.2645C108.523 46.2645 109.848 44.3369 110.892 41.4456L111.414 39.9598L103.383 19.9216H105.591Z" fill="black"/>
<rect x="124.654" y="37.2288" width="3.34641" height="3.34641" fill="black"/>
</svg>
