<svg width="1578" height="97" viewBox="0 0 1578 97" fill="none" xmlns="http://www.w3.org/2000/svg">
<path d="M21.7033 0.260274C23.3902 -0.252446 26.1124 -0.106924 32.3986 1.60402C37.535 3.00207 40.4704 4.37891 42.298 5.64211C44.137 6.91321 44.8405 8.06715 45.4797 8.8716C46.2116 9.79281 46.6011 11.3224 46.8303 13.2905C47.0625 15.285 47.1401 17.8396 47.1701 20.9019C47.1932 23.2605 46.0872 25.2474 45.0197 27.1353C43.346 30.0953 40.0612 32.482 36.6389 34.3062C33.2013 36.1384 29.5495 37.4428 27.0529 38.2066C24.3853 39.0226 20.8334 39.4714 18.1525 39.8677C15.7623 40.2211 13.9517 40.3213 12.1672 40.3335C12.1523 40.3888 12.1382 40.4443 12.1232 40.4995C14.0624 41.8135 16.3665 43.1521 18.5646 44.4068C21.4282 46.0412 24.1464 47.5583 25.5041 48.6743C25.9663 49.0543 26.5903 49.7463 27.34 50.6665C28.0974 51.5961 29.0075 52.7884 30.0451 54.1939C31.6017 56.3024 33.4541 58.9018 35.5256 61.8306L37.6672 64.8638L37.674 64.8726L37.6789 64.8814C40.0286 68.5263 43.5294 74.4075 48.8381 83.1275L48.84 83.1304C50.93 86.6152 51.7785 88.1669 52.8635 90.187C52.994 90.4301 52.9033 90.733 52.6603 90.8638C52.4172 90.9942 52.1133 90.9037 51.9826 90.6607C50.9041 88.6526 50.0634 87.1145 47.9826 83.645V83.6441C42.6693 74.9165 39.1851 69.063 36.8449 65.4321C33.9001 61.2578 31.3068 57.5878 29.2404 54.7886C28.2066 53.3881 27.3073 52.21 26.5646 51.2984C25.8144 50.3775 25.2463 49.7567 24.8693 49.4468C23.5965 48.4005 20.9855 46.9399 18.0685 45.2749C15.9873 44.087 13.77 42.8015 11.8498 41.521C10.6714 45.8851 10.1239 48.2246 9.07343 52.2642C8.1484 55.8214 6.19175 62.2598 4.76386 67.1187C3.33238 71.9898 2.41482 75.0916 1.8791 76.9263C1.3472 78.7479 1.22786 79.1962 0.995306 80.8238C0.956267 81.097 0.703071 81.2873 0.429876 81.2486C0.156687 81.2093 -0.0339725 80.9554 0.00507178 80.6821C0.246669 78.9914 0.379604 78.4938 0.919134 76.646C1.4551 74.8105 2.3733 71.7045 3.8039 66.8364C5.23803 61.9563 7.18593 55.5491 8.10566 52.0122C9.17618 47.8954 9.73149 45.5087 10.9738 40.9243C10.5565 40.6308 10.1577 40.3388 9.78437 40.0484C9.76962 40.0369 9.73607 40.0102 9.70234 39.9702C9.68641 39.9514 9.57281 39.8207 9.5832 39.6177C9.59796 39.332 9.81814 39.2071 9.90644 39.1734C9.98902 39.1419 10.0606 39.1406 10.0812 39.1402C10.1607 39.1386 10.2434 39.1572 10.26 39.1607C10.3221 39.1737 10.4525 39.2058 10.5519 39.228C10.7909 39.2814 11.0813 39.3347 11.3332 39.3364C11.3552 39.3366 11.3776 39.3363 11.3996 39.3364C13.09 33.0541 14.7589 26.6095 15.9269 22.0132C17.4185 16.1437 19.7585 3.94624 20.2414 0.797384C20.2834 0.524741 20.539 0.337776 20.8117 0.379415C21.0846 0.421312 21.2715 0.676815 21.2297 0.949728C20.7426 4.12579 18.3974 16.355 16.8967 22.2603C15.7442 26.7951 14.1033 33.1282 12.4357 39.3325C14.0935 39.3119 15.7928 39.2056 18.006 38.8784C20.7346 38.475 24.1844 38.0383 26.76 37.2505C29.2212 36.4976 32.8071 35.2148 36.1682 33.4234C39.5446 31.6236 42.6198 29.3486 44.1496 26.6431C45.235 24.7235 46.1902 22.9624 46.1701 20.9116C46.1401 17.8494 46.0625 15.3421 45.8371 13.4058C45.6086 11.4433 45.2363 10.1731 44.6965 9.49367C44.015 8.63601 43.4163 7.63126 41.7297 6.46535C40.031 5.29129 37.2149 3.95128 32.1359 2.56887C25.8268 0.851671 23.3702 0.79866 21.9934 1.21731C21.7294 1.29715 21.4506 1.14818 21.3703 0.884298C21.2901 0.620238 21.4393 0.3407 21.7033 0.260274Z" fill="black"/>
<path d="M944.96 5.00585C944.835 5.02504 944.73 5.09003 944.655 5.17968C944.58 5.08964 944.474 5.02505 944.348 5.00585C944.076 4.96401 943.82 5.15105 943.778 5.42382C943.295 8.57268 940.955 20.7701 939.464 26.6396C938.197 31.6241 936.345 38.7833 934.511 45.5508C933.627 48.8107 933.091 50.9595 932.471 53.4092C926.319 53.4248 922.638 53.4258 922.536 53.4258C922.26 53.4258 922.036 53.6497 922.036 53.9258C922.036 54.2019 922.26 54.4258 922.536 54.4258C922.637 54.4258 926.218 54.4252 932.215 54.4101C932.037 55.1069 931.85 55.8404 931.642 56.6387C930.723 60.1756 928.775 66.5828 927.341 71.4629C925.91 76.331 924.992 79.4369 924.456 81.2725C923.916 83.1202 923.783 83.6178 923.542 85.3086C923.503 85.582 923.693 85.8359 923.967 85.875C924.24 85.9138 924.493 85.7234 924.532 85.4502C924.765 83.8226 924.884 83.3744 925.416 81.5527C925.952 79.718 926.869 76.6162 928.301 71.7451C929.728 66.8862 931.685 60.4478 932.61 56.8906C932.844 55.9929 933.052 55.1789 933.248 54.4082C935.662 54.4017 938.426 54.3929 941.479 54.3809C947.554 54.3568 950.016 53.9689 953.854 53.7764L953.888 53.7744C954.565 53.6959 955.216 53.6236 955.846 53.5596C956.105 54.5819 956.377 55.6574 956.698 56.8906C957.623 60.4479 959.58 66.8864 961.008 71.7451C962.439 76.616 963.357 79.718 963.892 81.5527C964.424 83.3741 964.544 83.8227 964.776 85.4502C964.815 85.7231 965.069 85.9137 965.342 85.875C965.615 85.836 965.805 85.5818 965.766 85.3086C965.525 83.6179 965.392 83.12 964.852 81.2725C964.316 79.4369 963.398 76.3308 961.968 71.4629C960.534 66.5829 958.586 60.1756 957.666 56.6387C957.362 55.471 957.102 54.4418 956.853 53.4629C958.269 53.3345 959.57 53.2536 960.795 53.2402H960.799C962.063 53.2176 963.764 53.1724 965.513 53.126C965.788 53.1185 966.007 52.8883 966 52.6123C965.992 52.3365 965.762 52.1187 965.486 52.126C963.736 52.1725 962.04 52.2177 960.781 52.2402V52.2412C959.478 52.2556 958.098 52.3428 956.604 52.4805C956.076 50.3911 955.568 48.3937 954.798 45.5508C952.964 38.7834 951.111 31.6241 949.845 26.6396C948.353 20.7703 946.013 8.57327 945.53 5.42382C945.488 5.15105 945.233 4.96401 944.96 5.00585ZM944.655 6.27343C945.32 10.2555 947.468 21.3505 948.875 26.8867C950.142 31.8743 951.996 39.0385 953.832 45.8125C954.584 48.5878 955.082 50.5459 955.597 52.5791C955.007 52.6397 954.4 52.7067 953.773 52.7793C949.87 52.9765 947.511 53.357 941.475 53.3809C938.531 53.3925 935.855 53.4008 933.503 53.4072C934.098 51.0588 934.623 48.9617 935.476 45.8125C937.312 39.0384 939.166 31.8743 940.433 26.8867C941.84 21.3502 943.991 10.255 944.655 6.27343Z" fill="black"/>
<path d="M125.468 7.86585C125.743 7.84823 125.981 8.05736 125.999 8.33265C126.142 10.5649 126.285 12.7996 126.452 17.6471C126.62 22.4937 126.808 29.8866 126.804 40.0592C126.803 42.2904 126.792 44.6454 126.775 47.0465C130.627 45.8929 139.979 42.7308 142.492 41.7291C143.63 41.2563 144.722 40.8342 145.679 40.4928C146.151 40.3211 146.641 40.1367 148.401 39.3502C148.653 39.2377 148.949 39.3505 149.062 39.6022C149.174 39.8542 149.062 40.1496 148.81 40.2623C147.033 41.0559 146.521 41.2502 146.018 41.4332L146.015 41.4342C145.074 41.7697 143.997 42.1876 142.87 42.6559L142.863 42.6588V42.6578C140.312 43.6748 130.92 46.8495 127.057 48.0065C126.959 48.0356 126.86 48.0339 126.77 48.0065C126.709 56.2652 126.585 64.9464 126.543 70.9489C126.496 77.6662 126.557 80.7658 126.747 83.9791C126.749 83.9788 126.752 83.9785 126.754 83.9782C126.869 83.9605 127.094 83.9253 127.538 83.8532C128.427 83.7088 130.187 83.4195 133.691 82.8414C140.7 81.6854 154.68 79.373 169.403 76.8834C169.675 76.8375 169.933 77.0215 169.98 77.2936C170.025 77.5656 169.842 77.8236 169.57 77.8698C154.846 80.3597 140.863 82.6716 133.855 83.8278C130.35 84.4058 128.588 84.6949 127.698 84.8395C127.254 84.9117 127.025 84.948 126.905 84.9664C126.868 84.9722 126.837 84.9763 126.81 84.9801C126.828 85.263 126.847 85.5497 126.868 85.8424C126.888 86.1178 126.681 86.3569 126.405 86.3766C126.13 86.3961 125.891 86.189 125.871 85.9137C125.582 81.8455 125.487 78.9453 125.543 70.942C125.599 62.9369 125.8 50.2246 125.804 40.0592C125.808 29.8995 125.62 22.5187 125.453 17.6823C125.286 12.8474 125.143 10.6229 125.001 8.3971C124.984 8.12178 125.193 7.88368 125.468 7.86585ZM153.303 4.73011C153.573 4.67189 153.838 4.8432 153.897 5.11292C153.955 5.38279 153.784 5.64833 153.514 5.70667C152.142 6.00269 151.621 6.05089 150.386 6.20765L150.385 6.20667C147.242 6.6235 144.598 7.06912 142.734 7.43128L142.723 7.43323L142.712 7.43518C137.698 8.17411 130.221 9.39095 127.162 10.3395C126.898 10.4212 126.618 10.274 126.536 10.0104C126.455 9.74681 126.602 9.46629 126.865 9.3844C130.013 8.40823 137.573 7.18175 142.559 6.4469C144.443 6.08102 147.103 5.63373 150.257 5.21546H150.26C151.5 5.05807 151.98 5.01566 153.303 4.73011Z" fill="black"/>
<path d="M1533.47 8.14711C1533.74 8.12949 1533.98 8.33848 1534 8.61391C1534.14 10.846 1534.28 13.081 1534.45 17.9284C1534.62 22.775 1534.81 30.168 1534.8 40.3405C1534.8 42.5717 1534.79 44.9266 1534.78 47.3278C1538.63 46.1742 1547.98 43.0123 1550.49 42.0104C1551.63 41.5376 1552.72 41.1154 1553.68 40.7741C1554.15 40.6024 1554.64 40.4178 1556.4 39.6315C1556.65 39.5189 1556.95 39.6315 1557.06 39.8834C1557.17 40.1354 1557.06 40.4309 1556.81 40.5436C1555.03 41.337 1554.52 41.5315 1554.02 41.7145L1554.01 41.7155C1553.07 42.0509 1552 42.4689 1550.87 42.9372L1550.86 42.9401V42.9391C1548.31 43.9562 1538.92 47.1309 1535.06 48.2877C1534.96 48.3168 1534.86 48.3142 1534.77 48.2868C1534.71 56.5457 1534.59 65.2276 1534.54 71.2301C1534.5 77.9477 1534.56 81.0469 1534.75 84.2604C1534.75 84.2601 1534.75 84.2598 1534.75 84.2594C1534.87 84.2417 1535.09 84.2066 1535.54 84.1344C1536.43 83.99 1538.19 83.7007 1541.69 83.1227C1548.7 81.9667 1562.68 79.6543 1577.4 77.1647C1577.68 77.1187 1577.93 77.3026 1577.98 77.5748C1578.03 77.8468 1577.84 78.1049 1577.57 78.151C1562.85 80.6409 1548.86 82.9529 1541.85 84.109C1538.35 84.687 1536.59 84.9761 1535.7 85.1207C1535.25 85.1929 1535.03 85.2293 1534.91 85.2477C1534.87 85.2534 1534.84 85.2566 1534.81 85.2604C1534.83 85.5435 1534.85 85.8307 1534.87 86.1237C1534.89 86.3989 1534.68 86.6382 1534.41 86.6579C1534.13 86.6772 1533.89 86.47 1533.87 86.195C1533.58 82.1267 1533.49 79.2264 1533.54 71.2233C1533.6 63.2183 1533.8 50.5059 1533.8 40.3405C1533.81 30.181 1533.62 22.8 1533.45 17.9635C1533.29 13.1288 1533.14 10.9041 1533 8.67836C1532.98 8.40297 1533.19 8.16502 1533.47 8.14711ZM1561.3 5.01137C1561.57 4.95314 1561.84 5.1243 1561.9 5.39418C1561.95 5.66392 1561.78 5.92962 1561.51 5.98793C1560.14 6.28391 1559.62 6.33216 1558.39 6.48891L1558.38 6.48793C1555.24 6.90476 1552.6 7.35039 1550.73 7.71254L1550.72 7.7145L1550.71 7.71645C1545.7 8.45538 1538.22 9.67222 1535.16 10.6207C1534.9 10.7023 1534.62 10.555 1534.54 10.2916C1534.45 10.0281 1534.6 9.7477 1534.87 9.66567C1538.01 8.6895 1545.57 7.46301 1550.56 6.72817C1552.44 6.36229 1555.1 5.91499 1558.26 5.49672H1558.26C1559.5 5.33934 1559.98 5.29688 1561.3 5.01137Z" fill="black"/>
<path d="M250.948 1.93743C251.312 1.97642 253.02 2.27228 255.139 2.64153C257.276 3.01392 259.864 3.46703 262.02 3.82806C263.217 4.02862 264.312 4.78849 265.33 5.75774C266.354 6.73181 267.362 7.97779 268.37 9.23138C270.215 11.5242 271.026 14.9399 271.625 18.3173C272.48 23.1308 269.99 28.1194 267.892 31.7558L267.85 31.829L267.786 31.8837C266.28 33.1863 263.789 34.3557 260.812 35.3583C257.82 36.3658 254.281 37.2224 250.635 37.8759L250.624 37.8779C249.466 38.0573 248.505 38.1783 247.661 38.2704C247.124 41.8527 246.833 43.1584 246.238 47.8593C245.604 52.8686 244.641 61.6702 244.145 66.6874C243.569 74.1396 243.406 77.9487 243.23 81.3154V81.3193C243.181 82.1366 243.144 83.2783 242.997 84.5517C242.966 84.8257 242.718 85.0223 242.444 84.9911C242.169 84.9597 241.972 84.7117 242.003 84.4374C242.145 83.1998 242.18 82.1091 242.231 81.2587C242.407 77.8937 242.572 74.0702 243.149 66.5995L243.15 66.5888L243.597 62.2294C244.107 57.3968 244.769 51.4989 245.245 47.7333C245.826 43.1459 246.127 41.7293 246.635 38.373C245.734 38.4581 244.947 38.5204 244.138 38.6015C243.863 38.629 243.619 38.4279 243.591 38.1533C243.564 37.8785 243.764 37.6339 244.038 37.6064C244.942 37.5158 245.794 37.4515 246.787 37.3544C247.392 33.215 248.276 26.3518 248.762 20.3622C249.249 14.3642 249.335 9.38743 249.421 4.39642C249.426 4.12051 249.653 3.90062 249.929 3.90521C250.205 3.91011 250.425 4.13798 250.42 4.41399C250.334 9.40426 250.249 14.41 249.759 20.4433C249.281 26.341 248.418 33.0717 247.813 37.246C248.578 37.1592 249.441 37.048 250.464 36.8896C254.074 36.2424 257.56 35.3985 260.493 34.4111C263.398 33.4328 265.708 32.329 267.071 31.1767C269.168 27.5306 271.418 22.8749 270.64 18.4921C270.037 15.0947 269.256 11.9261 267.592 9.85833C266.574 8.59325 265.608 7.40221 264.641 6.48235C263.669 5.55777 262.754 4.96514 261.855 4.81439C259.695 4.45266 257.102 3.99897 254.967 3.62689C252.816 3.25195 251.161 2.96579 250.841 2.93157C250.567 2.90228 250.368 2.65615 250.397 2.38177C250.426 2.10719 250.673 1.90813 250.948 1.93743Z" fill="black"/>
<path d="M352.334 7.65611C352.422 7.39438 352.706 7.25363 352.968 7.34166C353.229 7.42974 353.37 7.71285 353.282 7.97447C353.281 7.9767 353.281 7.97391 353.278 7.98912C353.273 8.01503 353.265 8.06808 353.249 8.17662C353.218 8.39285 353.165 8.79947 353.071 9.58971C352.883 11.169 352.53 14.263 351.844 20.3866C350.472 32.6337 347.776 56.9887 346.387 70.1034C345.188 81.418 345.026 83.803 345.004 84.9764C346.855 84.9757 353.666 84.9711 363.439 84.9325C369.475 84.9086 371.834 84.5281 375.737 84.3309C378.371 84.0257 380.657 83.8159 382.745 83.7928V83.7919C384.004 83.7693 385.7 83.7241 387.45 83.6776C387.726 83.6703 387.956 83.8881 387.964 84.1639C387.971 84.4399 387.753 84.6703 387.477 84.6776C385.728 84.7241 384.027 84.7692 382.763 84.7919H382.759C380.724 84.8141 378.48 85.0215 375.852 85.326L375.818 85.328C371.98 85.5206 369.518 85.9085 363.443 85.9325C352.162 85.977 344.827 85.9764 344.509 85.9764C344.506 85.9765 344.503 85.9784 344.5 85.9784C344.224 85.9784 344 85.7543 344 85.4784C344 84.2734 344.003 83.105 345.392 69.9979C346.781 56.8801 349.478 32.5226 350.85 20.2753C351.535 14.152 351.89 11.0548 352.078 9.47154C352.172 8.6813 352.226 8.26355 352.259 8.03404C352.291 7.80723 352.307 7.73524 352.334 7.65611Z" fill="black"/>
<path d="M1046.33 6.34068C1046.42 6.07895 1046.71 5.9382 1046.97 6.02623C1047.23 6.11431 1047.37 6.39742 1047.28 6.65904C1047.28 6.66127 1047.28 6.65848 1047.28 6.67369C1047.27 6.6996 1047.26 6.75266 1047.25 6.86119C1047.22 7.07742 1047.17 7.48404 1047.07 8.27428C1046.88 9.85353 1046.53 12.9475 1045.84 19.0712C1044.47 31.3183 1041.78 55.6733 1040.39 68.7879C1039.19 80.1026 1039.03 82.4876 1039 83.661C1040.86 83.6602 1047.67 83.6557 1057.44 83.617C1063.48 83.5932 1065.83 83.2127 1069.74 83.0155C1072.37 82.7103 1074.66 82.5004 1076.75 82.4774V82.4764C1078 82.4539 1079.7 82.4087 1081.45 82.3622C1081.73 82.3548 1081.96 82.5726 1081.96 82.8485C1081.97 83.1245 1081.75 83.3548 1081.48 83.3622C1079.73 83.4086 1078.03 83.4538 1076.76 83.4764H1076.76C1074.72 83.4987 1072.48 83.706 1069.85 84.0106L1069.82 84.0126C1065.98 84.2051 1063.52 84.593 1057.44 84.617C1046.16 84.6616 1038.83 84.661 1038.51 84.661C1038.51 84.661 1038.5 84.6629 1038.5 84.6629C1038.22 84.6629 1038 84.4389 1038 84.1629C1038 82.958 1038 81.7896 1039.39 68.6825C1040.78 55.5647 1043.48 31.2072 1044.85 18.9598C1045.54 12.8366 1045.89 9.73938 1046.08 8.15611C1046.17 7.36587 1046.23 6.94812 1046.26 6.71861C1046.29 6.4918 1046.31 6.41981 1046.33 6.34068Z" fill="black"/>
<path d="M849.45 6.00018C849.726 5.99285 849.956 6.21064 849.964 6.48651C849.971 6.76255 849.753 6.99285 849.477 7.00018C847.728 7.04665 846.027 7.09183 844.763 7.11444H844.759C842.724 7.13673 840.48 7.34404 837.852 7.64862L837.818 7.65057C835.021 7.79092 832.954 8.03287 829.688 8.16424C829.659 8.39221 829.619 8.69235 829.571 9.09002C829.383 10.6693 829.03 13.7632 828.344 19.8869C826.972 32.134 824.276 56.489 822.887 69.6037C821.703 80.7756 821.531 83.2418 821.506 84.4318C827.493 84.4054 829.848 84.0277 833.737 83.8312C836.371 83.526 838.657 83.3162 840.745 83.2931V83.2922C842.004 83.2697 843.7 83.2244 845.45 83.1779C845.726 83.1706 845.956 83.3885 845.964 83.6642C845.971 83.9403 845.753 84.1706 845.477 84.1779C843.728 84.2244 842.027 84.2696 840.763 84.2922H840.759C838.724 84.3145 836.48 84.5218 833.852 84.8264L833.818 84.8283C829.98 85.0209 827.518 85.4088 821.443 85.4328C821.364 85.4331 821.284 85.4325 821.205 85.4328C821.142 85.4612 821.073 85.4787 821 85.4787C820.928 85.4787 820.859 85.4625 820.797 85.4348C809.74 85.4773 802.637 85.4777 802.5 85.4777C802.224 85.4777 802 85.2539 802 84.9777C802 84.7017 802.224 84.4777 802.5 84.4777C802.635 84.4777 809.614 84.4772 820.505 84.4357C820.529 83.2044 820.7 80.7517 821.892 69.4982C823.281 56.3804 825.978 32.0229 827.35 19.7756C828.035 13.6523 828.39 10.5551 828.578 8.97186C828.615 8.66099 828.649 8.40813 828.675 8.20135C827.714 8.23046 826.65 8.25029 825.443 8.25506C814.017 8.30019 806.64 8.29998 806.5 8.29998C806.224 8.29998 806 8.07613 806 7.79998C806 7.5239 806.224 7.29998 806.5 7.29998C806.639 7.29998 814.015 7.30018 825.439 7.25506C826.715 7.25002 827.827 7.2273 828.823 7.19549C828.827 7.18235 828.83 7.16927 828.834 7.15643C828.922 6.89469 829.206 6.75395 829.468 6.84198C829.623 6.89415 829.734 7.01531 829.781 7.15936C832.926 7.02867 834.933 6.79516 837.737 6.6535C840.371 6.34827 842.657 6.13845 844.745 6.11541V6.11444C846.004 6.09192 847.7 6.04669 849.45 6.00018Z" fill="black"/>
<path d="M677.334 6.34068C677.422 6.07895 677.706 5.9382 677.968 6.02623C678.229 6.11434 678.37 6.39745 678.282 6.65904C678.282 6.6609 678.281 6.65896 678.278 6.67369C678.273 6.69968 678.265 6.75296 678.249 6.86119C678.229 6.99727 678.205 7.20902 678.163 7.54381C678.322 7.52127 678.484 7.50425 678.646 7.50279C681.623 7.47581 684.482 7.61718 688.457 8.39049C692.319 9.14191 697.42 9.98972 701.249 11.5311C704.838 12.976 710.082 15.4414 715.015 18.9012C719.941 22.3565 724.602 26.836 726.959 32.3221C728.504 35.919 730.031 39.5582 729.999 43.8514C729.956 49.6498 729.845 54.4603 729.514 58.204C729.185 61.9211 728.634 64.6809 727.652 66.3065C726.721 67.8485 725.741 69.9735 723.137 72.3426C720.535 74.7089 716.333 77.3096 708.944 79.9559C699.87 83.2063 684.472 84.4777 669.867 84.4979C669.776 84.598 669.646 84.6629 669.5 84.6629C669.224 84.6629 669 84.4388 669 84.1629V83.9999C669 83.996 669.001 83.992 669.001 83.9881C669.004 82.8181 669.07 81.1607 670.392 68.6825C671.781 55.5647 674.478 31.2073 675.85 18.9598C676.445 13.6404 676.792 10.6045 676.996 8.86119C676.969 8.86664 676.916 8.87742 676.854 8.87584C676.825 8.87506 676.734 8.87139 676.634 8.82115C676.5 8.75419 676.364 8.60528 676.355 8.38853C676.349 8.2324 676.417 8.12287 676.437 8.09166C676.464 8.0482 676.494 8.01622 676.51 7.99986C676.616 7.89093 676.76 7.84381 676.901 7.85338C676.96 7.83571 677.029 7.81369 677.124 7.78502C677.191 7.22962 677.231 6.90922 677.259 6.71861C677.291 6.492 677.307 6.41973 677.334 6.34068ZM678.654 8.50279C678.457 8.50459 678.244 8.53539 678.035 8.57896C677.839 10.2404 677.488 13.3195 676.844 19.0712C675.472 31.3184 672.776 55.6734 671.387 68.7879C670.241 79.6037 670.043 82.2598 670.009 83.4979C684.561 83.4696 699.737 82.1917 708.607 79.0145C715.919 76.3957 719.991 73.8514 722.464 71.6024C724.933 69.3567 725.827 67.3953 726.796 65.7899C727.644 64.3846 728.188 61.842 728.518 58.1161C728.845 54.4167 728.957 49.6422 729 43.8436C729.03 39.7874 727.592 36.3293 726.04 32.7167C723.788 27.4748 719.297 23.1274 714.44 19.7206C709.59 16.3185 704.421 13.8859 700.876 12.4588C697.161 10.9632 692.188 10.1348 688.267 9.37193C684.371 8.61399 681.58 8.47628 678.654 8.50279Z" fill="black"/>
<path d="M476.82 49.7585C477.096 49.7587 477.32 49.9826 477.32 50.2585C477.32 50.93 477.339 51.6762 477.403 53.235L477.483 55.0924V55.0944C477.577 57.4376 477.73 61.5328 477.667 68.6725C477.604 75.8043 477.321 85.8658 477.135 96.2106C477.13 96.4864 476.902 96.7057 476.627 96.7008C476.351 96.6957 476.13 96.468 476.135 96.192C476.321 85.8293 476.604 75.7915 476.667 68.6637C476.729 61.5463 476.578 57.4682 476.484 55.1364C476.355 52.2306 476.32 51.18 476.32 50.2585C476.32 49.9825 476.544 49.7586 476.82 49.7585ZM460.449 10.652C460.723 10.6242 460.969 10.8239 460.997 11.0983C461.051 11.6299 461.081 12.1767 463.519 18.2165C465.949 24.2345 470.744 35.6342 473.343 41.9001C474.645 45.037 475.354 46.7851 475.781 47.7692C475.996 48.2647 476.128 48.5396 476.22 48.694C476.228 48.7069 476.237 48.718 476.244 48.7282C476.269 48.7092 476.304 48.6802 476.348 48.6344C476.54 48.4353 476.792 48.0648 477.16 47.443C477.522 46.8312 477.97 46.023 478.561 44.9743C479.15 43.929 479.875 42.6547 480.784 41.1266C484.002 35.7143 490.217 25.7268 493.677 20.1862C497.143 14.6384 497.723 13.8654 498.152 13.2204C498.576 12.5841 498.817 12.1218 499.214 11.4704C499.358 11.2348 499.666 11.1601 499.902 11.3034C500.138 11.4471 500.213 11.7551 500.069 11.9909C499.708 12.5835 499.419 13.1207 498.984 13.7741C498.555 14.4187 497.982 15.1808 494.525 20.7155C491.063 26.2586 484.855 36.2373 481.643 41.6383C480.74 43.157 480.019 44.423 479.432 45.4645C478.847 46.5024 478.389 47.3289 478.02 47.9528C477.657 48.5666 477.352 49.0341 477.068 49.3288C476.923 49.4788 476.755 49.6146 476.556 49.692C476.341 49.7757 476.119 49.7793 475.906 49.7077C475.648 49.6207 475.49 49.4199 475.363 49.2077C475.233 48.9905 475.077 48.66 474.863 48.1676C474.431 47.1738 473.715 45.4064 472.42 42.2838C469.824 36.0281 465.025 24.6142 462.592 18.5905C460.17 12.5898 460.074 11.9015 460.003 11.1999C459.975 10.9255 460.175 10.6802 460.449 10.652Z" fill="black"/>
<path d="M1173.25 7C1169.42 8.33193 1161.24 13.2679 1156.52 23.1497C1151.77 33.1136 1154.72 54.9297 1157.36 70.0092C1158.24 75.0612 1161.16 78.2256 1163.98 81.2086C1168.88 86.399 1178.21 85.4323 1184.78 83.1917C1194.06 80.0266 1200.15 67.834 1204.03 58.9279C1206.02 54.3553 1206.09 48.7549 1205.96 43.9759C1205.55 29.5937 1196.55 14.8041 1191.6 9.79023C1189.05 8.45761 1186.06 7.66256 1182.07 7.17749C1179.77 6.97815 1176.89 6.87384 1172.94 7.86583" stroke="black" stroke-linecap="round"/>
<path d="M1456.29 9.0002C1456.57 8.99249 1456.8 9.21051 1456.8 9.48653C1456.87 11.9018 1456.54 22.6356 1455.95 33.3195C1455.65 38.6663 1455.29 44.0118 1454.88 48.3088C1454.67 50.4567 1454.45 52.3494 1454.22 53.8508C1453.99 55.332 1453.74 56.4898 1453.46 57.1291C1452.5 59.3277 1451.4 61.733 1450.16 64.1584C1450.26 64.1986 1450.35 64.2699 1450.41 64.3713C1452.79 68.5237 1454.04 69.9457 1455.75 72.5598C1457.05 74.2248 1458.13 75.7037 1458.97 77.1418C1459.49 77.9991 1460.19 79.1475 1460.92 80.3342C1461.06 80.5696 1460.99 80.8783 1460.75 81.0227C1460.52 81.1668 1460.21 81.0928 1460.07 80.8576C1459.34 79.6729 1458.63 78.5195 1458.12 77.6564L1458.11 77.6516C1457.3 76.268 1456.25 74.8273 1454.95 73.1633L1454.94 73.1477L1454.93 73.1301C1453.29 70.6352 1451.99 69.1146 1449.67 65.0939C1448.51 67.278 1447.23 69.4592 1445.81 71.4992C1442.62 76.0903 1438.7 80.033 1433.91 81.6662C1430.58 82.8004 1426.55 83.6171 1422.71 83.4875C1418.87 83.358 1415.16 82.2796 1412.59 79.5529C1409.77 76.572 1406.75 73.3102 1405.84 68.0959C1404.51 60.5272 1403.32 48.3648 1403.05 36.8479C1402.92 31.0887 1403.02 25.4799 1403.45 20.6809C1403.88 15.8982 1404.65 11.8611 1405.88 9.28438C1406 9.03558 1406.29 8.93033 1406.54 9.04903C1406.79 9.16805 1406.9 9.46689 1406.78 9.71602C1405.63 12.1213 1404.88 16.0046 1404.45 20.7697C1404.02 25.5188 1403.92 31.0881 1404.05 36.8254C1404.32 48.3021 1405.51 60.4134 1406.82 67.924C1407.68 72.8131 1410.49 75.8814 1413.31 78.8664C1415.64 81.3297 1419.05 82.3629 1422.74 82.4875C1426.43 82.6119 1430.34 81.8251 1433.59 80.7189C1438.08 79.1871 1441.84 75.4506 1444.99 70.9279C1448.13 66.413 1450.61 61.1751 1452.54 56.7287C1452.76 56.2249 1453 55.1915 1453.23 53.6975C1453.46 52.2229 1453.67 50.3521 1453.88 48.2131C1454.29 43.9356 1454.66 38.6049 1454.95 33.2639C1455.54 22.5734 1455.87 11.8802 1455.8 9.51387C1455.8 9.23799 1456.01 9.00794 1456.29 9.0002Z" fill="black"/>
<path d="M1301.5 6.5C1306.46 6.49979 1313.31 7.5078 1318.94 10.625C1324.6 13.757 1329.03 19.0328 1329.03 27.5C1329.03 27.7761 1328.81 28 1328.53 28C1328.25 27.9999 1328.03 27.7761 1328.03 27.5C1328.03 19.4674 1323.86 14.4931 1318.46 11.5C1313.03 8.49212 1306.36 7.49979 1301.5 7.5C1293.28 7.50037 1286.15 13.5666 1281.48 23.3652C1279.16 28.2216 1278.69 36.051 1279.17 44.6338C1279.64 53.1885 1281.03 62.3901 1282.35 69.9238C1283.2 74.813 1286.02 77.8802 1288.84 80.8652C1291.17 83.3287 1294.58 84.3627 1298.27 84.4873C1301.96 84.6118 1305.87 83.8251 1309.11 82.7188C1313.61 81.1869 1317.37 77.4505 1320.52 72.9277C1323.66 68.4127 1326.13 63.175 1328.07 58.7285C1329.81 54.7363 1330.05 49.9125 1329.99 45.5127C1328.42 45.5544 1326.91 45.5938 1325.76 45.6143H1325.76C1323.73 45.6365 1321.48 45.8438 1318.85 46.1484L1318.84 46.1494L1318.82 46.1504C1314.98 46.343 1312.52 46.7309 1306.44 46.7549C1306.17 46.756 1305.94 46.5329 1305.94 46.2568C1305.94 45.9807 1306.16 45.756 1306.44 45.7549C1312.47 45.731 1314.83 45.3506 1318.74 45.1533C1321.37 44.848 1323.66 44.6383 1325.75 44.6152V44.6143C1326.89 44.5938 1328.39 44.5536 1329.97 44.5117C1329.97 44.337 1329.96 44.1632 1329.96 43.9902C1329.95 43.7142 1330.17 43.4843 1330.44 43.4766C1330.72 43.4688 1330.95 43.6861 1330.96 43.9619C1331.09 48.7359 1331.03 54.4413 1328.99 59.1279C1327.04 63.5874 1324.53 68.8991 1321.34 73.498C1318.15 78.0894 1314.23 82.0318 1309.44 83.665C1306.11 84.7992 1302.08 85.6169 1298.23 85.4873C1294.4 85.3578 1290.69 84.2793 1288.11 81.5527C1285.3 78.5717 1282.28 75.3103 1281.36 70.0957C1280.04 62.55 1278.64 53.3026 1278.17 44.6885C1277.7 36.1026 1278.14 28.042 1280.57 22.9346C1285.33 12.9697 1292.72 6.50038 1301.5 6.5Z" fill="black"/>
</svg>
