<svg width="494" height="88" viewBox="0 0 494 88" fill="none" xmlns="http://www.w3.org/2000/svg">
<path d="M6.36805 0.907486C7.92975 0.0893759 10.6314 -0.274994 17.1263 0.234426C22.4333 0.650716 25.5738 1.45638 27.6049 2.35682C29.6486 3.26293 30.5548 4.26554 31.3327 4.93682C32.2235 5.70542 32.8912 7.13562 33.4831 9.02662C34.083 10.9428 34.6353 13.4382 35.2355 16.4412C35.6978 18.7542 34.9815 20.9125 34.2845 22.9662C33.1918 26.1863 30.4093 29.1433 27.3869 31.5734C24.3511 34.0142 21.0064 35.9763 18.6959 37.1919C16.2271 38.4908 12.821 39.5937 10.261 40.4827C7.97855 41.2754 6.21835 41.7113 4.46735 42.0559C4.46305 42.113 4.45955 42.1701 4.45515 42.2272C6.60515 43.1567 9.11835 44.0424 11.5118 44.8655C14.6299 45.9376 17.5832 46.9215 19.125 47.765C19.65 48.0522 20.392 48.6157 21.3001 49.3801C22.2174 50.1523 23.3338 51.154 24.6152 52.3415C26.5374 54.123 28.8418 56.3316 31.4229 58.823L34.0922 61.404L34.1006 61.4113L34.107 61.419C37.0949 64.5622 41.6304 69.688 48.4712 77.2657L48.4737 77.2683C51.1764 80.3025 52.2993 81.6689 53.7417 83.4514C53.9153 83.6659 53.8826 83.9804 53.6683 84.1542C53.4537 84.3277 53.1383 84.2953 52.9646 84.0809C51.5308 82.3091 50.4181 80.9546 47.7272 77.9337L47.727 77.9327C40.8803 70.3483 36.3661 65.2467 33.3903 62.1156C29.7191 58.5632 26.4873 55.4408 23.9354 53.0758C22.6587 51.8925 21.5556 50.9026 20.656 50.1454C19.7473 49.3805 19.0734 48.8764 18.6454 48.6422C17.1998 47.8514 14.3623 46.903 11.1862 45.8109C8.92015 45.0316 6.50215 44.1819 4.37685 43.2817C4.03245 47.7889 3.93055 50.1895 3.65135 54.3541C3.40545 58.0214 2.68305 64.7116 2.18565 69.7515C1.68705 74.804 1.36365 78.0225 1.17925 79.9249C0.996247 81.8137 0.962546 82.2764 1.03735 83.9188C1.04995 84.1945 0.836646 84.4287 0.560946 84.4415C0.285246 84.4539 0.0506467 84.24 0.0380467 83.9642C-0.0396533 82.258 -0.00185351 81.7444 0.183946 79.8285C0.368346 77.9252 0.691647 74.7025 1.18995 69.6531C1.68945 64.5912 2.40915 57.9332 2.65355 54.2869C2.93805 50.0427 3.03885 47.5943 3.40505 42.8587C2.94025 42.6482 2.49415 42.4355 2.07315 42.2198C2.05655 42.2113 2.01855 42.1913 1.97805 42.1583C1.95885 42.1428 1.82285 42.0355 1.79525 41.8342C1.75655 41.5507 1.94955 41.387 2.03005 41.3374C2.10525 41.2911 2.17535 41.2764 2.19555 41.2722C2.27335 41.2558 2.35815 41.2587 2.37495 41.259C2.43845 41.2603 2.57255 41.2675 2.67445 41.2708C2.91915 41.2787 3.21435 41.2769 3.46215 41.2317C3.48385 41.2277 3.50575 41.2233 3.52745 41.2193C4.01735 34.732 4.45595 28.0893 4.74695 23.3558C5.11845 17.3111 5.14425 4.89132 5.03185 1.70765C5.02225 1.43195 5.23855 1.20063 5.51425 1.19071C5.79015 1.18102 6.02145 1.39721 6.03115 1.67314C6.14455 4.88432 6.11955 17.3364 5.74575 23.4178C5.45865 28.088 5.02675 34.616 4.54465 41.0224C6.16955 40.6931 7.81925 40.272 9.93275 39.5381C12.5383 38.6332 15.8463 37.5613 18.2299 36.3072C20.5077 35.1088 23.7917 33.1802 26.76 30.7937C29.7419 28.3963 32.3391 25.588 33.3379 22.6448C34.0466 20.5565 34.6568 18.6483 34.2549 16.6372C33.6547 13.6342 33.1112 11.1852 32.5289 9.32492C31.9386 7.43932 31.3362 6.26082 30.6791 5.69392C29.8498 4.97832 29.0743 4.10271 27.1999 3.27157C25.3122 2.43467 22.2957 1.64295 17.0481 1.23133C10.5294 0.720046 8.10605 1.12579 6.83135 1.7937C6.58695 1.92134 6.28525 1.82694 6.15715 1.58265C6.02915 1.33816 6.12365 1.03571 6.36805 0.907486Z" fill="black"/>
<path d="M118.473 6.84341C118.748 6.82581 118.986 7.03491 119.004 7.31021C119.147 9.54241 119.289 11.7772 119.457 16.6246C119.624 21.4713 119.812 28.8641 119.809 39.0367C119.808 41.2679 119.796 43.623 119.78 46.024C123.631 44.8704 132.984 41.7084 135.497 40.7067C136.635 40.2338 137.727 39.8117 138.684 39.4703C139.155 39.2986 139.646 39.1142 141.406 38.3278C141.658 38.2152 141.954 38.328 142.066 38.5797C142.179 38.8317 142.066 39.1271 141.814 39.2399C140.038 40.0334 139.526 40.2277 139.022 40.4108L139.019 40.4117C138.079 40.7472 137.002 41.1651 135.875 41.6334L135.868 41.6363C133.317 42.6532 123.925 45.8271 120.061 46.984C119.964 47.0132 119.865 47.0114 119.774 46.984C119.714 55.2427 119.59 63.924 119.548 69.9264C119.501 76.6437 119.562 79.7434 119.752 82.9567C119.754 82.9563 119.756 82.956 119.759 82.9557C119.874 82.938 120.099 82.9029 120.543 82.8307C121.431 82.6863 123.192 82.397 126.696 81.819C133.705 80.6629 147.685 78.3506 162.408 75.861C162.68 75.815 162.938 75.999 162.984 76.2711C163.03 76.5432 162.847 76.8011 162.575 76.8473C147.85 79.3372 133.868 81.6492 126.859 82.8053C123.355 83.3833 121.593 83.6724 120.703 83.817C120.259 83.8892 120.03 83.9255 119.91 83.944C119.873 83.9497 119.842 83.9538 119.814 83.9576C119.833 84.2405 119.852 84.5272 119.873 84.8199C119.893 85.0953 119.685 85.3345 119.41 85.3541C119.135 85.3736 118.896 85.1665 118.876 84.8912C118.587 80.8231 118.492 77.9228 118.548 69.9196C118.604 61.9144 118.805 49.2022 118.809 39.0367C118.812 28.8771 118.625 21.4962 118.458 16.6598C118.291 11.8249 118.148 9.60041 118.006 7.37461C117.988 7.09931 118.197 6.86121 118.473 6.84341ZM146.308 3.70765C146.577 3.64943 146.843 3.82074 146.901 4.09046C146.96 4.36033 146.788 4.62587 146.519 4.68421C145.147 4.98021 144.626 5.02841 143.391 5.18521L143.39 5.18421C140.247 5.60101 137.603 6.04661 135.739 6.40881L135.727 6.41081L135.717 6.41271C130.702 7.15161 123.226 8.36851 120.167 9.31701C119.903 9.39881 119.623 9.25151 119.541 8.98791C119.459 8.72431 119.607 8.44381 119.87 8.36191C123.018 7.38581 130.578 6.15931 135.563 5.42441C137.448 5.05861 140.107 4.61127 143.262 4.193H143.265C144.505 4.03561 144.985 3.9932 146.308 3.70765Z" fill="black"/>
<path d="M243.952 2.69915C244.317 2.73814 246.025 3.034 248.144 3.40325C250.281 3.77564 252.869 4.22875 255.025 4.58978C256.222 4.79034 257.316 5.55021 258.335 6.51951C259.359 7.49351 260.366 8.73951 261.375 9.99311C263.22 12.2859 264.031 15.7016 264.63 19.079C265.485 23.8925 262.995 28.8811 260.897 32.5175L260.855 32.5907L260.791 32.6454C259.284 33.948 256.794 35.1174 253.817 36.12C250.825 37.1275 247.286 37.9841 243.64 38.6376L243.629 38.6396C242.471 38.819 241.51 38.94 240.665 39.0322C240.128 42.6144 239.837 43.9201 239.242 48.621C238.608 53.6303 237.646 62.4319 237.15 67.4491C236.574 74.9013 236.411 78.7104 236.235 82.0771V82.081C236.185 82.8983 236.148 84.04 236.002 85.3134C235.971 85.5874 235.723 85.784 235.449 85.7529C235.174 85.7214 234.977 85.4734 235.008 85.1991C235.15 83.9615 235.184 82.8708 235.236 82.0204C235.412 78.6555 235.576 74.8319 236.154 67.3613L236.155 67.3505L236.602 62.9911C237.112 58.1585 237.774 52.2606 238.25 48.495C238.831 43.9076 239.132 42.491 239.64 39.1347C238.738 39.2198 237.952 39.2821 237.143 39.3632C236.868 39.3907 236.624 39.1896 236.596 38.915C236.568 38.6402 236.768 38.3956 237.043 38.3681C237.947 38.2775 238.799 38.2132 239.792 38.1161C240.397 33.9768 241.281 27.1135 241.767 21.1239C242.253 15.1259 242.34 10.1491 242.426 5.15811C242.431 4.88221 242.658 4.66234 242.934 4.66693C243.21 4.67183 243.43 4.89971 243.425 5.17571C243.339 10.166 243.253 15.1717 242.764 21.205C242.285 27.1027 241.423 33.8334 240.818 38.0077C241.582 37.9209 242.445 37.8098 243.469 37.6513C247.079 37.0041 250.565 36.1602 253.497 35.1728C256.403 34.1945 258.713 33.0907 260.075 31.9384C262.173 28.2923 264.423 23.6366 263.645 19.2538C263.042 15.8564 262.261 12.6878 260.597 10.62C259.579 9.35501 258.613 8.16391 257.646 7.24411C256.674 6.31951 255.759 5.72691 254.86 5.57611C252.7 5.21441 250.107 4.76069 247.972 4.38861C245.821 4.01368 244.166 3.72751 243.846 3.69329C243.572 3.664 243.373 3.41787 243.402 3.14349C243.431 2.86891 243.678 2.66985 243.952 2.69915Z" fill="black"/>
<path d="M345.339 5.03701C345.427 4.77524 345.711 4.63449 345.973 4.72252C346.234 4.8106 346.375 5.09371 346.287 5.35531C346.286 5.35751 346.286 5.35481 346.283 5.37001C346.278 5.39591 346.269 5.44891 346.254 5.55751C346.223 5.77371 346.17 6.18031 346.076 6.97061C345.888 8.54981 345.534 11.6438 344.849 17.7674C343.477 30.0146 340.78 54.3696 339.392 67.4842C338.193 78.7989 338.031 81.1839 338.009 82.3573C339.86 82.3565 346.67 82.3519 356.444 82.3133C362.48 82.2895 364.839 81.909 368.742 81.7118C371.376 81.4065 373.662 81.1967 375.75 81.1737C377.009 81.1512 378.704 81.105 380.455 81.0584C380.731 81.0511 380.961 81.2689 380.969 81.5448C380.976 81.8208 380.757 82.0511 380.481 82.0584C378.732 82.1049 377.032 82.1501 375.767 82.1727H375.764C373.729 82.195 371.485 82.4023 368.856 82.7069L368.823 82.7088C364.985 82.9014 362.523 83.2893 356.448 83.3133C345.167 83.3579 337.832 83.3573 337.514 83.3573C337.511 83.3573 337.508 83.3592 337.505 83.3592C337.229 83.3592 337.005 83.1351 337.005 82.8592C337.005 81.6542 337.008 80.4858 338.396 67.3788C339.786 54.2609 342.483 29.9035 343.854 17.6561C344.54 11.5329 344.894 8.43571 345.083 6.85241C345.177 6.06221 345.231 5.64441 345.264 5.41491C345.296 5.18811 345.312 5.11611 345.339 5.03701Z" fill="black"/>
<path d="M469.825 40.8053C470.101 40.8056 470.325 41.0294 470.325 41.3053C470.325 41.9769 470.344 42.723 470.408 44.2819L470.488 46.1393V46.1413C470.582 48.4844 470.734 52.5797 470.671 59.7194C470.608 66.8512 470.326 76.9127 470.14 87.2575C470.135 87.5333 469.907 87.7526 469.631 87.7477C469.355 87.7426 469.135 87.5149 469.14 87.2389C469.326 76.8762 469.608 66.8383 469.671 59.7106C469.734 52.5932 469.583 48.5151 469.489 46.1832C469.36 43.2775 469.325 42.2269 469.325 41.3053C469.325 41.0294 469.549 40.8055 469.825 40.8053ZM453.454 1.69888C453.728 1.67103 453.973 1.87078 454.001 2.14517C454.055 2.67681 454.085 3.22361 456.524 9.26331C458.954 15.2814 463.749 26.6811 466.348 32.9469C467.65 36.0839 468.358 37.832 468.786 38.8161C469.001 39.3115 469.133 39.5865 469.225 39.7409C469.233 39.7538 469.242 39.7649 469.249 39.775C469.274 39.756 469.309 39.727 469.353 39.6813C469.545 39.4822 469.797 39.1116 470.165 38.4899C470.526 37.878 470.975 37.0699 471.566 36.0211C472.155 34.9759 472.88 33.7016 473.789 32.1735C477.007 26.7611 483.221 16.7736 486.682 11.2331C490.148 5.68531 490.727 4.91231 491.157 4.26724C491.58 3.63099 491.822 3.16866 492.219 2.51724C492.363 2.28168 492.671 2.20701 492.907 2.35025C493.143 2.49393 493.217 2.80197 493.074 3.03775C492.713 3.6304 492.424 4.16756 491.989 4.82095C491.56 5.46551 490.987 6.22771 487.53 11.7624C484.067 17.3055 477.86 27.2842 474.648 32.6852C473.745 34.2039 473.024 35.4699 472.437 36.5114C471.852 37.5493 471.394 38.3758 471.025 38.9997C470.662 39.6135 470.357 40.081 470.073 40.3756C469.928 40.5257 469.76 40.6614 469.561 40.7389C469.346 40.8226 469.124 40.8262 468.911 40.7545C468.652 40.6676 468.495 40.4668 468.368 40.2545C468.238 40.0374 468.081 39.7069 467.868 39.2145C467.436 38.2206 466.72 36.4533 465.424 33.3307C462.829 27.075 458.029 15.6611 455.597 9.63741C453.174 3.63669 453.079 2.94834 453.007 2.24674C452.98 1.97233 453.179 1.72705 453.454 1.69888Z" fill="black"/>
</svg>
