<svg width="452" height="9" viewBox="0 0 452 9" fill="none" xmlns="http://www.w3.org/2000/svg">
<path d="M0.000234425 8.72363V0.203632H2.47223C4.17623 0.203632 5.11223 1.01963 5.11223 2.49563C5.11223 3.77963 4.34423 4.59563 3.02423 4.77563L5.26823 8.72363H4.83623L2.60423 4.82363H0.384234V8.72363H0.000234425ZM0.384234 4.49963H2.50823C3.90023 4.49963 4.71623 3.75563 4.71623 2.49563C4.71623 1.22363 3.94823 0.539632 2.50823 0.539632H0.384234V4.49963ZM39.2176 0.203632V0.539632H34.9216V4.18763H39.0136V4.52363H34.9216V8.38763H39.3016V8.72363H34.5376V0.203632H39.2176ZM71.463 4.60763C73.155 4.60763 73.623 3.50363 73.623 2.51963C73.623 1.64363 73.155 0.539632 71.475 0.539632H69.303V4.60763H71.463ZM69.303 4.94363V8.72363H68.919V0.203632H71.427C73.491 0.203632 74.031 1.49963 74.031 2.51963C74.031 3.63563 73.467 4.94363 71.391 4.94363H69.303ZM103.3 0.203632H103.696V8.38763H108.184V8.72363H103.3V0.203632ZM139.95 5.23163V8.72363H139.566V5.23163L136.698 0.203632H137.142L139.758 4.84763L142.362 0.203632H142.794L139.95 5.23163ZM205.869 8.72363V0.203632H207.693C210.069 0.203632 211.293 1.77563 211.293 4.35563C211.293 7.03163 210.009 8.72363 207.609 8.72363H205.869ZM207.645 8.38763C209.769 8.38763 210.897 6.79163 210.897 4.35563C210.897 1.97963 209.841 0.539632 207.693 0.539632H206.253V8.38763H207.645ZM240.214 8.39963H242.518V0.527632H240.214V0.203632H245.206V0.527632H242.902V8.39963H245.206V8.72363H240.214V8.39963ZM278.327 4.58363C277.835 3.09563 277.475 1.99163 277.055 0.623633H277.031C276.611 1.99163 276.251 3.09563 275.759 4.58363L275.411 5.61563H278.663L278.327 4.58363ZM273.995 8.72363L276.827 0.203632H277.259L280.091 8.72363H279.695L278.783 5.95163H275.303L274.379 8.72363H273.995ZM309.229 0.203632H309.625V8.38763H314.113V8.72363H309.229V0.203632ZM345.674 8.92763C343.814 8.92763 342.89 7.52363 342.89 4.97963V3.94763C342.89 1.39163 343.814 -0.00036788 345.674 -0.00036788C347.534 -0.00036788 348.458 1.39163 348.458 3.94763V4.97963C348.458 7.52363 347.534 8.92763 345.674 8.92763ZM345.674 8.59163C347.234 8.59163 348.074 7.39163 348.074 4.97963V3.94763C348.074 1.53563 347.234 0.335632 345.674 0.335632C344.114 0.335632 343.286 1.53563 343.286 3.94763V4.97963C343.286 7.39163 344.114 8.59163 345.674 8.59163ZM377.404 0.203632H377.788V6.27563C377.788 7.69163 378.568 8.59163 380.008 8.59163C381.424 8.59163 382.192 7.69163 382.192 6.27563V0.203632H382.576V6.28763C382.576 7.88363 381.688 8.92763 380.008 8.92763C378.316 8.92763 377.404 7.88363 377.404 6.28763V0.203632ZM414.173 8.92763C412.361 8.92763 411.509 7.46363 411.509 5.19563V3.67163C411.509 1.25963 412.505 -0.00036788 414.305 -0.00036788C416.021 -0.00036788 416.765 1.28363 416.885 2.66363L416.501 2.68763C416.381 1.39163 415.709 0.335632 414.281 0.335632C412.781 0.335632 411.905 1.35563 411.905 3.68363V5.15963C411.905 7.34363 412.673 8.57963 414.281 8.57963C415.649 8.57963 416.573 7.27163 416.573 5.20763V4.75163H414.149V4.41563H416.933V8.72363H416.609L416.585 6.79163C416.189 8.19563 415.397 8.92763 414.173 8.92763ZM451.075 0.203632V0.539632H446.779V4.18763H450.871V4.52363H446.779V8.38763H451.159V8.72363H446.395V0.203632H451.075Z" fill="black"/>
</svg>
