<svg width="1518" height="100" viewBox="0 0 1518 100" fill="none" xmlns="http://www.w3.org/2000/svg">
<path d="M21.3716 6.07417C22.9333 5.25606 25.635 4.89169 32.1299 5.40111C37.4369 5.8174 40.5774 6.62306 42.6085 7.5235C44.6522 8.42961 45.5584 9.43222 46.3363 10.1035C47.2271 10.8721 47.8948 12.3023 48.4867 14.1933C49.0866 16.1095 49.6389 18.6049 50.2391 21.6079C50.7014 23.9209 49.9851 26.0792 49.2881 28.1329C48.1954 31.353 45.4129 34.31 42.3905 36.7401C39.3547 39.1809 36.01 41.143 33.6995 42.3586C31.2307 43.6575 27.8246 44.7604 25.2646 45.6494C22.9821 46.4421 21.2219 46.878 19.4709 47.2226C19.4666 47.2797 19.4631 47.3368 19.4587 47.3939C21.6087 48.3234 24.1219 49.2091 26.5154 50.0322C29.6335 51.1043 32.5868 52.0882 34.1286 52.9317C34.6536 53.2189 35.3956 53.7824 36.3037 54.5468C37.221 55.319 38.3374 56.3207 39.6188 57.5082C41.541 59.2897 43.8454 61.4983 46.4265 63.9897L49.0958 66.5707L49.1042 66.578L49.1106 66.5857C52.0985 69.7289 56.634 74.8547 63.4748 82.4324L63.4773 82.435C66.18 85.4692 67.3029 86.8356 68.7453 88.6181C68.9189 88.8326 68.8862 89.1471 68.6719 89.3209C68.4573 89.4944 68.1419 89.462 67.9682 89.2476C66.5344 87.4758 65.4217 86.1213 62.7308 83.1004L62.7306 83.0994C55.8839 75.515 51.3697 70.4134 48.3939 67.2823C44.7227 63.7299 41.4909 60.6075 38.939 58.2425C37.6623 57.0592 36.5592 56.0693 35.6596 55.3121C34.7509 54.5472 34.077 54.0431 33.649 53.8089C32.2034 53.0181 29.3659 52.0697 26.1898 50.9776C23.9237 50.1983 21.5057 49.3486 19.3804 48.4484C19.036 52.9556 18.9341 55.3562 18.6549 59.5208C18.409 63.1881 17.6866 69.8783 17.1892 74.9182C16.6906 79.9707 16.3672 83.1892 16.1828 85.0916C15.9998 86.9804 15.9661 87.4431 16.0409 89.0855C16.0535 89.3612 15.8402 89.5954 15.5645 89.6082C15.2888 89.6206 15.0542 89.4067 15.0416 89.1309C14.9639 87.4247 15.0017 86.9111 15.1875 84.9952C15.3719 83.0919 15.6952 79.8692 16.1935 74.8198C16.693 69.7579 17.4127 63.0999 17.6571 59.4536C17.9416 55.2094 18.0424 52.761 18.4086 48.0254C17.9438 47.8149 17.4977 47.6022 17.0767 47.3865C17.0601 47.378 17.0221 47.358 16.9816 47.325C16.9624 47.3095 16.8264 47.2022 16.7988 47.0009C16.7601 46.7174 16.9531 46.5537 17.0336 46.5041C17.1088 46.4578 17.1789 46.4431 17.1991 46.4389C17.2769 46.4225 17.3617 46.4254 17.3785 46.4257C17.442 46.427 17.5761 46.4342 17.678 46.4375C17.9227 46.4454 18.2179 46.4436 18.4657 46.3984C18.4874 46.3944 18.5093 46.39 18.531 46.386C19.0209 39.8987 19.4595 33.256 19.7505 28.5225C20.122 22.4778 20.1478 10.058 20.0354 6.87433C20.0258 6.59863 20.2421 6.36731 20.5178 6.35739C20.7937 6.3477 21.025 6.56389 21.0347 6.83982C21.1481 10.051 21.1231 22.5031 20.7493 28.5845C20.4622 33.2547 20.0303 39.7827 19.5482 46.1891C21.1731 45.8598 22.8228 45.4387 24.9363 44.7048C27.5419 43.7999 30.8499 42.728 33.2335 41.4739C35.5113 40.2755 38.7953 38.3469 41.7636 35.9604C44.7455 33.563 47.3427 30.7547 48.3415 27.8115C49.0502 25.7232 49.6604 23.815 49.2585 21.8039C48.6583 18.8009 48.1148 16.3519 47.5325 14.4916C46.9422 12.606 46.3398 11.4275 45.6827 10.8606C44.8534 10.145 44.0779 9.26939 42.2035 8.43825C40.3158 7.60135 37.2993 6.80963 32.0517 6.39801C25.533 5.88673 23.1096 6.29247 21.8349 6.96038C21.5905 7.08802 21.2888 6.99362 21.1607 6.74933C21.0327 6.50484 21.1272 6.20239 21.3716 6.07417Z" fill="black"/>
<path d="M1342.38 6.07413C1343.94 5.25611 1346.64 4.89164 1353.14 5.40107C1358.45 5.81738 1361.59 6.62299 1363.62 7.52346C1365.66 8.42958 1366.57 9.43223 1367.35 10.1034C1368.24 10.8722 1368.9 12.3025 1369.5 14.1932C1370.1 16.1094 1370.65 18.6051 1371.25 21.6079C1371.71 23.9208 1370.99 26.0792 1370.3 28.1328C1369.2 31.3528 1366.42 34.31 1363.4 36.74C1360.36 39.1808 1357.02 41.1429 1354.71 42.3586C1352.24 43.6575 1348.83 44.7604 1346.27 45.6494C1343.99 46.442 1342.23 46.878 1340.48 47.2225C1340.48 47.2796 1340.47 47.3368 1340.47 47.3938C1342.62 48.3233 1345.13 49.2092 1347.52 50.0321C1350.64 51.1043 1353.6 52.0882 1355.14 52.9316C1355.66 53.2189 1356.4 53.7825 1357.31 54.5467C1358.23 55.3189 1359.35 56.3208 1360.63 57.5081C1362.55 59.2896 1364.85 61.4983 1367.44 63.9897L1370.1 66.5706L1370.11 66.578L1370.12 66.5857C1373.11 69.729 1377.64 74.8549 1384.48 82.4324L1384.49 82.4349C1387.19 85.4689 1388.31 86.8356 1389.75 88.6181C1389.93 88.8325 1389.89 89.1471 1389.68 89.3208C1389.47 89.4944 1389.15 89.4617 1388.98 89.2476C1387.54 87.4757 1386.43 86.1211 1383.74 83.1003L1383.74 83.0994C1376.89 75.5152 1372.38 70.4134 1369.4 67.2823C1365.73 63.7299 1362.5 60.6074 1359.95 58.2424C1358.67 57.0593 1357.57 56.0692 1356.67 55.312C1355.76 54.5473 1355.09 54.0432 1354.66 53.8089C1353.21 53.0181 1350.37 52.0697 1347.2 50.9775C1344.93 50.1984 1342.51 49.3494 1340.39 48.4493C1340.05 52.9558 1339.94 55.3565 1339.66 59.5207C1339.42 63.1881 1338.7 69.8784 1338.2 74.9181C1337.7 79.9706 1337.38 83.1892 1337.19 85.0916C1337.01 86.9802 1336.97 87.4431 1337.05 89.0855C1337.06 89.3609 1336.85 89.5951 1336.57 89.6082C1336.3 89.6208 1336.06 89.4066 1336.05 89.1309C1335.97 87.4247 1336.01 86.9109 1336.2 84.9951C1336.38 83.0919 1336.7 79.8691 1337.2 74.8198C1337.7 69.758 1338.42 63.0999 1338.67 59.4536C1338.95 55.2095 1339.05 52.7608 1339.42 48.0254L1339.42 48.0244C1338.95 47.8139 1338.51 47.6022 1338.09 47.3864C1338.07 47.378 1338.03 47.3579 1337.99 47.325C1337.97 47.3101 1337.84 47.2027 1337.81 47.0008C1337.77 46.7171 1337.96 46.5535 1338.04 46.504C1338.12 46.4576 1338.19 46.443 1338.21 46.4388C1338.29 46.4225 1338.37 46.4254 1338.39 46.4257C1338.45 46.4269 1338.59 46.4342 1338.69 46.4375C1338.93 46.4453 1339.23 46.4436 1339.47 46.3983C1339.5 46.3944 1339.52 46.39 1339.54 46.386C1340.03 39.8987 1340.47 33.256 1340.76 28.5225C1341.13 22.478 1341.16 10.0585 1341.04 6.87429C1341.03 6.59847 1341.25 6.36709 1341.53 6.35735C1341.8 6.34794 1342.03 6.56401 1342.04 6.83978C1342.16 10.0515 1342.13 22.5032 1341.76 28.5845C1341.47 33.2545 1341.04 39.782 1340.56 46.1881C1342.18 45.8588 1343.83 45.4386 1345.95 44.7048C1348.55 43.7999 1351.86 42.7279 1354.24 41.4739C1356.52 40.2754 1359.8 38.3469 1362.77 35.9604C1365.75 33.5629 1368.35 30.7546 1369.35 27.8114C1370.06 25.7233 1370.67 23.8148 1370.27 21.8038C1369.67 18.801 1369.12 16.3519 1368.54 14.4915C1367.95 12.6064 1367.35 11.4276 1366.69 10.8605C1365.86 10.145 1365.09 9.26934 1363.21 8.4382C1361.32 7.60128 1358.31 6.80962 1353.06 6.39796C1346.54 5.88668 1344.12 6.2925 1342.84 6.96034C1342.6 7.0881 1342.3 6.99333 1342.17 6.74928C1342.04 6.50468 1342.14 6.20229 1342.38 6.07413Z" fill="black"/>
<path d="M816.969 8.86913C816.844 8.88832 816.739 8.95332 816.664 9.04296C816.589 8.95292 816.482 8.88833 816.357 8.86913C816.084 8.82729 815.829 9.01433 815.787 9.2871C815.304 12.436 812.964 24.6334 811.472 30.5029C810.206 35.4874 808.353 42.6465 806.519 49.4141C805.636 52.674 805.1 54.8227 804.479 57.2725C798.328 57.2881 794.647 57.2891 794.545 57.2891C794.269 57.2891 794.045 57.513 794.045 57.7891C794.045 58.0652 794.269 58.2891 794.545 58.2891C794.646 58.2891 798.227 58.2884 804.223 58.2734C804.046 58.9702 803.859 59.7037 803.651 60.5019C802.731 64.0388 800.784 70.4461 799.349 75.3262C797.919 80.1943 797.001 83.3002 796.465 85.1357C795.925 86.9835 795.792 87.4811 795.551 89.1719C795.512 89.4452 795.702 89.6992 795.975 89.7383C796.249 89.7771 796.502 89.5867 796.541 89.3135C796.773 87.6859 796.893 87.2377 797.425 85.416C797.96 83.5813 798.878 80.4795 800.309 75.6084C801.737 70.7495 803.694 64.3111 804.619 60.7539C804.852 59.8561 805.06 59.0422 805.257 58.2715C807.671 58.265 810.435 58.2562 813.488 58.2441C819.562 58.2201 822.025 57.8322 825.863 57.6396L825.896 57.6377C826.573 57.5592 827.225 57.4869 827.854 57.4228C828.113 58.4452 828.386 59.5206 828.707 60.7539C829.632 64.3112 831.589 70.7497 833.016 75.6084C834.448 80.4793 835.365 83.5813 835.901 85.416C836.433 87.2374 836.552 87.686 836.785 89.3135C836.824 89.5864 837.077 89.7769 837.35 89.7383C837.624 89.6992 837.814 89.4451 837.775 89.1719C837.534 87.4812 837.401 86.9832 836.861 85.1357C836.325 83.3002 835.407 80.1941 833.976 75.3262C832.542 70.4462 830.594 64.0389 829.675 60.5019C829.371 59.3343 829.11 58.3051 828.862 57.3262C830.277 57.1977 831.579 57.1169 832.804 57.1035H832.807C834.071 57.0809 835.772 57.0357 837.521 56.9892C837.797 56.9818 838.016 56.7516 838.009 56.4756C838.001 56.1998 837.771 55.982 837.495 55.9892C835.744 56.0358 834.049 56.081 832.79 56.1035V56.1045C831.487 56.1189 830.107 56.2061 828.613 56.3437C828.084 54.2544 827.577 52.257 826.806 49.4141C824.973 42.6467 823.12 35.4874 821.853 30.5029C820.362 24.6336 818.022 12.4366 817.539 9.2871C817.497 9.01433 817.241 8.82729 816.969 8.86913ZM816.664 10.1367C817.328 14.1188 819.477 25.2138 820.884 30.75C822.151 35.7376 824.005 42.9018 825.841 49.6758C826.593 52.451 827.091 54.4091 827.605 56.4424C827.016 56.503 826.409 56.5699 825.782 56.6426C821.879 56.8398 819.52 57.2203 813.484 57.2441C810.54 57.2558 807.864 57.2641 805.512 57.2705C806.106 54.9221 806.632 52.8249 807.485 49.6758C809.321 42.9017 811.175 35.7376 812.442 30.75C813.849 25.2135 816 14.1182 816.664 10.1367Z" fill="black"/>
<path d="M133.477 12.0104C133.752 11.9928 133.99 12.2019 134.008 12.4772C134.151 14.7094 134.293 16.9442 134.461 21.7916C134.628 26.6383 134.816 34.0311 134.813 44.2037C134.812 46.4349 134.8 48.79 134.784 51.191C138.635 50.0374 147.988 46.8754 150.501 45.8737C151.639 45.4008 152.731 44.9787 153.688 44.6373C154.159 44.4656 154.65 44.2812 156.41 43.4948C156.662 43.3822 156.958 43.495 157.07 43.7467C157.183 43.9987 157.07 44.2941 156.818 44.4069C155.042 45.2004 154.53 45.3947 154.026 45.5778L154.023 45.5787C153.083 45.9142 152.006 46.3321 150.879 46.8004L150.872 46.8033V46.8024C148.321 47.8193 138.929 50.9941 135.065 52.151C134.968 52.1802 134.869 52.1784 134.778 52.151C134.718 60.4097 134.594 69.091 134.552 75.0934C134.505 81.8107 134.566 84.9104 134.756 88.1237C134.758 88.1233 134.76 88.123 134.763 88.1227C134.878 88.105 135.103 88.0699 135.547 87.9977C136.435 87.8533 138.196 87.564 141.7 86.986C148.709 85.8299 162.689 83.5176 177.412 81.028C177.684 80.982 177.942 81.166 177.988 81.4381C178.034 81.7102 177.851 81.9681 177.579 82.0143C162.854 84.5042 148.872 86.8162 141.863 87.9723C138.359 88.5503 136.597 88.8394 135.707 88.984C135.263 89.0562 135.034 89.0925 134.914 89.111C134.877 89.1167 134.846 89.1208 134.818 89.1246C134.837 89.4075 134.856 89.6942 134.877 89.9869C134.897 90.2623 134.689 90.5015 134.414 90.5211C134.139 90.5406 133.9 90.3335 133.88 90.0582C133.591 85.9901 133.496 83.0898 133.552 75.0866C133.608 67.0814 133.809 54.3692 133.813 44.2037C133.816 34.0441 133.629 26.6632 133.462 21.8268C133.295 16.9919 133.152 14.7674 133.01 12.5416C132.992 12.2663 133.201 12.0282 133.477 12.0104ZM161.312 8.87464C161.581 8.81642 161.847 8.98773 161.905 9.25745C161.964 9.52732 161.792 9.79286 161.523 9.8512C160.151 10.1472 159.63 10.1954 158.395 10.3522L158.394 10.3512C155.251 10.768 152.607 11.2136 150.743 11.5758L150.731 11.5778L150.721 11.5797C145.706 12.3186 138.23 13.5355 135.171 14.484C134.907 14.5658 134.627 14.4185 134.545 14.1549C134.463 13.8913 134.611 13.6108 134.874 13.5289C138.022 12.5528 145.582 11.3263 150.567 10.5914C152.452 10.2256 155.111 9.77826 158.266 9.35999H158.269C159.509 9.2026 159.989 9.16019 161.312 8.87464Z" fill="black"/>
<path d="M1188.48 12.0104C1188.75 11.9928 1188.99 12.2019 1189.01 12.4772C1189.15 14.7094 1189.29 16.9441 1189.46 21.7916C1189.63 26.6383 1189.82 34.0311 1189.81 44.2037C1189.81 46.4349 1189.8 48.7899 1189.78 51.191C1193.64 50.0375 1202.99 46.8755 1205.5 45.8737C1206.64 45.4008 1207.73 44.9787 1208.69 44.6373C1209.16 44.4656 1209.65 44.2812 1211.41 43.4948C1211.66 43.3822 1211.96 43.495 1212.07 43.7467C1212.18 43.9987 1212.07 44.2941 1211.82 44.4069C1210.04 45.2003 1209.53 45.3947 1209.03 45.5778L1209.02 45.5787C1208.08 45.9142 1207.01 46.3321 1205.88 46.8004L1205.87 46.8034V46.8024C1203.32 47.8194 1193.93 50.9941 1190.07 52.151C1189.97 52.1802 1189.87 52.1775 1189.78 52.15C1189.72 60.409 1189.59 69.0907 1189.55 75.0934C1189.5 81.8108 1189.57 84.9104 1189.76 88.1237C1189.76 88.1233 1189.76 88.123 1189.76 88.1227C1189.88 88.105 1190.1 88.0699 1190.55 87.9977C1191.44 87.8533 1193.2 87.564 1196.7 86.986C1203.71 85.8299 1217.69 83.5176 1232.41 81.028C1232.68 80.982 1232.94 81.166 1232.99 81.4381C1233.03 81.7102 1232.85 81.9681 1232.58 82.0143C1217.85 84.5042 1203.87 86.8162 1196.86 87.9723C1193.36 88.5503 1191.6 88.8394 1190.71 88.984C1190.26 89.0562 1190.03 89.0925 1189.91 89.111C1189.88 89.1167 1189.85 89.1208 1189.82 89.1246C1189.84 89.4075 1189.86 89.6942 1189.88 89.9869C1189.9 90.2623 1189.69 90.5015 1189.41 90.5211C1189.14 90.5405 1188.9 90.3335 1188.88 90.0582C1188.59 85.99 1188.5 83.0899 1188.55 75.0866C1188.61 67.0814 1188.81 54.3692 1188.81 44.2037C1188.82 34.044 1188.63 26.6632 1188.46 21.8268C1188.29 16.9919 1188.15 14.7674 1188.01 12.5416C1187.99 12.2663 1188.2 12.0283 1188.48 12.0104ZM1216.31 8.87464C1216.58 8.81642 1216.85 8.98771 1216.91 9.25745C1216.96 9.52732 1216.79 9.79286 1216.52 9.8512C1215.15 10.1472 1214.63 10.1954 1213.39 10.3522L1213.39 10.3512C1210.25 10.768 1207.61 11.2137 1205.74 11.5758L1205.73 11.5778L1205.72 11.5797C1200.71 12.3186 1193.23 13.5355 1190.17 14.484C1189.91 14.5657 1189.63 14.4185 1189.54 14.1549C1189.46 13.8914 1189.61 13.6109 1189.87 13.5289C1193.02 12.5528 1200.58 11.3263 1205.57 10.5914C1207.45 10.2256 1210.11 9.77826 1213.27 9.35999H1213.27C1214.51 9.20261 1214.99 9.16016 1216.31 8.87464Z" fill="black"/>
<path d="M258.956 7.86614C259.321 7.90513 261.029 8.20099 263.148 8.57024C265.285 8.94263 267.873 9.39574 270.029 9.75677C271.226 9.95733 272.32 10.7172 273.339 11.6865C274.363 12.6605 275.37 13.9065 276.379 15.1601C278.224 17.4529 279.035 20.8686 279.634 24.246C280.489 29.0595 277.999 34.0481 275.901 37.6845L275.859 37.7577L275.795 37.8124C274.288 39.115 271.798 40.2844 268.821 41.287C265.829 42.2945 262.29 43.1511 258.644 43.8046L258.633 43.8066C257.475 43.986 256.514 44.107 255.669 44.1992C255.132 47.7814 254.841 49.0871 254.246 53.788C253.612 58.7973 252.65 67.5989 252.154 72.6161C251.578 80.0683 251.415 83.8774 251.239 87.2441V87.248C251.189 88.0653 251.152 89.207 251.006 90.4804C250.975 90.7544 250.727 90.951 250.453 90.9199C250.178 90.8884 249.981 90.6404 250.012 90.3661C250.154 89.1285 250.188 88.0378 250.24 87.1874C250.416 83.8225 250.58 79.9989 251.158 72.5283L251.159 72.5175L251.606 68.1581C252.116 63.3255 252.778 57.4276 253.254 53.662C253.835 49.0746 254.136 47.658 254.644 44.3017C253.742 44.3868 252.956 44.4491 252.147 44.5302C251.872 44.5577 251.628 44.3566 251.6 44.082C251.572 43.8072 251.772 43.5626 252.047 43.5351C252.951 43.4445 253.803 43.3802 254.796 43.2831C255.401 39.1438 256.285 32.2805 256.771 26.2909C257.257 20.2929 257.344 15.3161 257.43 10.3251C257.435 10.0492 257.662 9.82933 257.938 9.83392C258.214 9.83882 258.434 10.0667 258.429 10.3427C258.343 15.333 258.257 20.3387 257.768 26.372C257.289 32.2697 256.427 39.0004 255.822 43.1747C256.586 43.0879 257.449 42.9768 258.473 42.8183C262.083 42.1711 265.569 41.3272 268.501 40.3398C271.407 39.3615 273.717 38.2577 275.079 37.1054C277.177 33.4593 279.427 28.8036 278.649 24.4208C278.046 21.0234 277.265 17.8548 275.601 15.787C274.583 14.522 273.617 13.3309 272.65 12.4111C271.678 11.4865 270.763 10.8939 269.864 10.7431C267.704 10.3814 265.111 9.92768 262.976 9.5556C260.825 9.18067 259.17 8.8945 258.85 8.86028C258.576 8.83099 258.377 8.58486 258.406 8.31048C258.435 8.0359 258.682 7.83684 258.956 7.86614Z" fill="black"/>
<path d="M360.343 10.204C360.431 9.94223 360.715 9.80148 360.977 9.88951C361.238 9.97759 361.379 10.2607 361.291 10.5223C361.29 10.5245 361.29 10.5218 361.287 10.537C361.282 10.5629 361.273 10.6159 361.258 10.7245C361.227 10.9407 361.174 11.3473 361.08 12.1376C360.892 13.7168 360.538 16.8108 359.853 22.9344C358.481 35.1816 355.784 59.5366 354.396 72.6512C353.197 83.9659 353.035 86.3509 353.013 87.5243C354.864 87.5235 361.674 87.5189 371.448 87.4803C377.484 87.4565 379.843 87.076 383.746 86.8788C386.38 86.5735 388.666 86.3637 390.754 86.3407V86.3397C392.013 86.3172 393.708 86.272 395.459 86.2254C395.735 86.2181 395.965 86.4359 395.973 86.7118C395.98 86.9878 395.761 87.2181 395.485 87.2254C393.736 87.2719 392.036 87.3171 390.771 87.3397H390.768C388.733 87.362 386.489 87.5693 383.86 87.8739L383.827 87.8758C379.989 88.0684 377.527 88.4563 371.452 88.4803C360.171 88.5249 352.836 88.5243 352.518 88.5243C352.515 88.5243 352.512 88.5262 352.509 88.5262C352.233 88.5262 352.009 88.3021 352.009 88.0262C352.009 86.8212 352.012 85.6528 353.4 72.5458C354.79 59.4279 357.487 35.0705 358.858 22.8231C359.544 16.6999 359.898 13.6027 360.087 12.0194C360.181 11.2292 360.235 10.8114 360.268 10.5819C360.3 10.3551 360.316 10.2831 360.343 10.204Z" fill="black"/>
<path d="M1065.34 10.204C1065.43 9.94223 1065.71 9.80148 1065.98 9.88951C1066.24 9.97759 1066.38 10.2607 1066.29 10.5223C1066.29 10.5245 1066.29 10.5218 1066.29 10.537C1066.28 10.5629 1066.27 10.6159 1066.26 10.7245C1066.23 10.9407 1066.17 11.3473 1066.08 12.1376C1065.89 13.7168 1065.54 16.8108 1064.85 22.9344C1063.48 35.1816 1060.78 59.5366 1059.4 72.6512C1058.2 83.9659 1058.03 86.3509 1058.01 87.5243C1059.86 87.5235 1066.67 87.5189 1076.45 87.4803C1082.48 87.4565 1084.84 87.076 1088.75 86.8788C1091.38 86.5735 1093.67 86.3637 1095.75 86.3407V86.3397C1097.01 86.3172 1098.71 86.272 1100.46 86.2254C1100.73 86.2181 1100.97 86.4359 1100.97 86.7118C1100.98 86.9878 1100.76 87.2181 1100.49 87.2254C1098.74 87.2719 1097.04 87.3171 1095.77 87.3397H1095.77C1093.73 87.362 1091.49 87.5693 1088.86 87.8739L1088.83 87.8758C1084.99 88.0684 1082.53 88.4563 1076.45 88.4803C1065.17 88.5249 1057.84 88.5243 1057.52 88.5243C1057.51 88.5243 1057.51 88.5262 1057.51 88.5262C1057.23 88.5262 1057.01 88.3021 1057.01 88.0262C1057.01 86.8212 1057.01 85.6528 1058.4 72.5458C1059.79 59.4279 1062.49 35.0705 1063.86 22.8231C1064.54 16.6999 1064.9 13.6027 1065.09 12.0194C1065.18 11.2292 1065.23 10.8114 1065.27 10.5819C1065.3 10.3551 1065.32 10.2831 1065.34 10.204Z" fill="black"/>
<path d="M934.343 10.204C934.431 9.94223 934.715 9.80148 934.977 9.88951C935.238 9.97759 935.379 10.2607 935.291 10.5223C935.29 10.5245 935.29 10.5218 935.287 10.537C935.282 10.5629 935.273 10.6159 935.258 10.7245C935.227 10.9407 935.174 11.3473 935.08 12.1376C934.892 13.7168 934.538 16.8108 933.853 22.9344C932.481 35.1816 929.784 59.5366 928.396 72.6512C927.197 83.9659 927.035 86.3509 927.013 87.5243C928.864 87.5235 935.674 87.5189 945.448 87.4803C951.484 87.4565 953.843 87.076 957.746 86.8788C960.38 86.5735 962.666 86.3637 964.754 86.3407V86.3397C966.013 86.3172 967.708 86.272 969.459 86.2254C969.735 86.2181 969.965 86.4359 969.973 86.7118C969.98 86.9878 969.761 87.2181 969.485 87.2254C967.736 87.2719 966.036 87.3171 964.771 87.3397H964.768C962.733 87.362 960.489 87.5693 957.86 87.8739L957.827 87.8758C953.989 88.0684 951.527 88.4563 945.452 88.4803C934.171 88.5249 926.836 88.5243 926.518 88.5243C926.515 88.5243 926.512 88.5262 926.509 88.5262C926.233 88.5262 926.009 88.3021 926.009 88.0262C926.009 86.8212 926.012 85.6528 927.4 72.5458C928.79 59.4279 931.487 35.0705 932.858 22.8231C933.544 16.6999 933.898 13.6027 934.087 12.0194C934.181 11.2292 934.235 10.8114 934.268 10.5819C934.3 10.3551 934.316 10.2831 934.343 10.204Z" fill="black"/>
<path d="M484.829 45.9723C485.105 45.9726 485.329 46.1964 485.329 46.4723C485.329 47.1439 485.348 47.89 485.412 49.4489L485.492 51.3063V51.3083C485.586 53.6514 485.738 57.7467 485.675 64.8864C485.612 72.0182 485.33 82.0797 485.144 92.4245C485.139 92.7003 484.911 92.9196 484.635 92.9147C484.359 92.9096 484.139 92.6819 484.144 92.4059C484.33 82.0432 484.612 72.0053 484.675 64.8776C484.738 57.7602 484.587 53.6821 484.493 51.3502C484.364 48.4445 484.329 47.3939 484.329 46.4723C484.329 46.1964 484.553 45.9725 484.829 45.9723ZM468.458 6.86587C468.732 6.83802 468.977 7.03777 469.005 7.31216C469.059 7.8438 469.089 8.3906 471.528 14.4303C473.958 20.4484 478.753 31.8481 481.352 38.1139C482.654 41.2509 483.362 42.999 483.79 43.9831C484.005 44.4785 484.137 44.7535 484.229 44.9079C484.237 44.9208 484.246 44.9319 484.253 44.942C484.278 44.923 484.313 44.894 484.357 44.8483C484.549 44.6492 484.801 44.2786 485.169 43.6569C485.53 43.045 485.979 42.2369 486.57 41.1881C487.159 40.1429 487.884 38.8686 488.793 37.3405C492.011 31.9281 498.225 21.9406 501.686 16.4001C505.152 10.8523 505.731 10.0793 506.161 9.43423C506.584 8.79798 506.826 8.33565 507.223 7.68423C507.367 7.44867 507.675 7.374 507.911 7.51724C508.147 7.66092 508.221 7.96896 508.078 8.20474C507.717 8.79739 507.428 9.33455 506.993 9.98794C506.564 10.6325 505.991 11.3947 502.534 16.9294C499.071 22.4725 492.864 32.4512 489.652 37.8522C488.749 39.3709 488.028 40.6369 487.441 41.6784C486.856 42.7163 486.398 43.5428 486.029 44.1667C485.666 44.7805 485.361 45.248 485.077 45.5426C484.932 45.6927 484.764 45.8284 484.565 45.9059C484.35 45.9896 484.128 45.9932 483.915 45.9215C483.656 45.8346 483.499 45.6338 483.372 45.4215C483.242 45.2044 483.085 44.8739 482.872 44.3815C482.44 43.3876 481.724 41.6203 480.428 38.4977C477.833 32.242 473.033 20.8281 470.601 14.8044C468.178 8.80368 468.083 8.11533 468.011 7.41373C467.984 7.13932 468.183 6.89404 468.458 6.86587Z" fill="black"/>
<path d="M1493.82 45.9723C1494.1 45.9726 1494.32 46.1963 1494.32 46.4723C1494.32 47.1439 1494.34 47.8899 1494.4 49.4489L1494.48 51.3063V51.3083C1494.58 53.6515 1494.73 57.7466 1494.67 64.8864C1494.6 72.0182 1494.32 82.0796 1494.14 92.4245C1494.13 92.7002 1493.9 92.9195 1493.63 92.9147C1493.35 92.9098 1493.13 92.682 1493.14 92.4059C1493.32 82.0431 1493.6 72.0054 1493.67 64.8776C1493.73 57.7601 1493.58 53.6821 1493.48 51.3502C1493.36 48.4443 1493.32 47.3939 1493.32 46.4723C1493.32 46.1962 1493.54 45.9723 1493.82 45.9723ZM1477.45 6.86587C1477.72 6.83804 1477.97 7.03762 1478 7.31216C1478.05 7.84379 1478.08 8.39051 1480.52 14.4303C1482.95 20.4485 1487.74 31.8482 1490.34 38.1139C1491.64 41.2512 1492.35 42.9991 1492.78 43.9831C1493 44.4788 1493.13 44.7535 1493.22 44.9079C1493.23 44.9209 1493.24 44.9318 1493.24 44.942C1493.27 44.923 1493.3 44.894 1493.35 44.8483C1493.54 44.6492 1493.79 44.2786 1494.16 43.6569C1494.52 43.045 1494.97 42.2369 1495.56 41.1881C1496.15 40.1428 1496.88 38.8686 1497.78 37.3405C1501 31.9282 1507.22 21.9407 1510.68 16.4001C1514.14 10.8522 1514.72 10.0793 1515.15 9.43423C1515.58 8.79796 1515.82 8.33566 1516.21 7.68423C1516.36 7.4485 1516.67 7.3737 1516.9 7.51724C1517.14 7.66095 1517.21 7.96897 1517.07 8.20474C1516.71 8.79739 1516.42 9.33453 1515.98 9.98794C1515.55 10.6325 1514.98 11.3946 1511.53 16.9293C1508.06 22.4725 1501.85 32.4512 1498.64 37.8522C1497.74 39.3709 1497.02 40.6369 1496.43 41.6784C1495.85 42.7163 1495.39 43.5427 1495.02 44.1667C1494.66 44.7805 1494.35 45.248 1494.07 45.5426C1493.92 45.6927 1493.76 45.8284 1493.56 45.9059C1493.34 45.9896 1493.12 45.9932 1492.91 45.9215C1492.65 45.8346 1492.49 45.6339 1492.36 45.4215C1492.23 45.2044 1492.08 44.8741 1491.86 44.3815C1491.43 43.3877 1490.72 41.6206 1489.42 38.4977C1486.82 32.2421 1482.02 20.8282 1479.59 14.8043C1477.17 8.80354 1477.07 8.11532 1477 7.41372C1476.97 7.13911 1477.17 6.89392 1477.45 6.86587Z" fill="black"/>
<path d="M677.509 9.86328C682.471 9.86307 689.321 10.8711 694.949 13.9883C700.604 17.1203 705.038 22.3961 705.038 30.8633C705.038 31.1394 704.814 31.3633 704.538 31.3633C704.262 31.3631 704.038 31.1393 704.038 30.8633C704.038 22.8306 699.869 17.8564 694.465 14.8633C689.034 11.8554 682.368 10.8631 677.509 10.8633C669.285 10.8637 662.162 16.9299 657.484 26.7285C655.166 31.5849 654.703 39.4143 655.175 47.9971C655.646 56.5518 657.039 65.7534 658.357 73.2871C659.214 78.1763 662.028 81.2435 664.849 84.2285C667.177 86.692 670.584 87.726 674.277 87.8506C677.967 87.9751 681.879 87.1883 685.123 86.082C689.615 84.5502 693.381 80.8137 696.525 76.291C699.664 71.7759 702.141 66.5383 704.08 62.0918C705.821 58.0995 706.063 53.2758 705.999 48.876C704.424 48.9177 702.918 48.957 701.772 48.9775H701.769C699.734 48.9998 697.489 49.2071 694.86 49.5117L694.845 49.5127L694.828 49.5137C690.989 49.7062 688.527 50.0942 682.452 50.1182C682.176 50.1192 681.951 49.8962 681.95 49.6201C681.949 49.344 682.172 49.1193 682.448 49.1182C688.484 49.0943 690.842 48.7138 694.745 48.5166C697.379 48.2113 699.666 48.0016 701.754 47.9785V47.9775C702.897 47.9571 704.401 47.9169 705.98 47.875C705.975 47.7003 705.972 47.5264 705.967 47.3535C705.959 47.0775 706.176 46.8476 706.452 46.8398C706.728 46.8321 706.958 47.0493 706.966 47.3252C707.099 52.0992 707.041 57.8046 704.997 62.4912C703.053 66.9507 700.543 72.2624 697.346 76.8613C694.154 81.4527 690.235 85.395 685.445 87.0283C682.119 88.1625 678.084 88.9802 674.243 88.8506C670.406 88.7211 666.699 87.6426 664.122 84.916C661.305 81.935 658.285 78.6736 657.372 73.459C656.051 65.9132 654.651 56.6659 654.177 48.0518C653.704 39.4659 654.144 31.4052 656.582 26.2979C661.339 16.333 668.733 9.86366 677.509 9.86328Z" fill="black"/>
</svg>
