<svg width="612" height="89" viewBox="0 0 612 89" fill="none" xmlns="http://www.w3.org/2000/svg">
<path d="M13.3825 9.01367C10.8017 10.2261 5.29799 14.7191 2.12323 23.714C-1.07793 32.7837 0.905951 52.642 2.68283 66.3682C3.27813 70.9669 5.24108 73.8472 7.13866 76.5625C10.4404 81.2871 16.716 80.4071 21.1381 78.3677C27.3851 75.4866 31.4837 64.3882 34.0976 56.2814C35.4396 52.1191 35.4852 47.0214 35.3951 42.6712C35.1242 29.5797 29.0656 16.1174 25.7309 11.5535C24.016 10.3405 22.0059 9.61678 19.3197 9.17524C17.7666 8.99378 15.8276 8.89883 13.1749 9.8018" stroke="black" stroke-width="0.848218" stroke-linecap="round"/>
<path d="M62.0726 9.00284C62.3857 9.03626 63.8494 9.29025 65.6576 9.60538C67.4827 9.92345 69.6934 10.3098 71.5345 10.6181C72.5786 10.793 73.5262 11.454 74.3997 12.2851C75.2784 13.1209 76.1422 14.1888 77.0033 15.2587C78.5924 17.2334 79.2863 20.1694 79.7982 23.0526C80.5331 27.193 78.3919 31.4757 76.6009 34.58L76.5589 34.6532L76.4954 34.7079C75.1972 35.83 73.0583 36.8323 70.513 37.6894C67.9533 38.5512 64.9283 39.2841 61.8119 39.8427L61.8001 39.8446C60.8347 39.9942 60.0295 40.0957 59.3206 40.1737C58.8668 43.1949 58.6207 44.3165 58.1156 48.3075C57.5742 52.5851 56.752 60.1018 56.3285 64.3866C55.837 70.7497 55.6971 74.0024 55.5462 76.8778V76.8817C55.5043 77.5774 55.4731 78.5564 55.348 79.6464C55.3163 79.9202 55.0681 80.1168 54.7943 80.0858C54.5201 80.0544 54.3226 79.8063 54.3538 79.5321C54.4749 78.4778 54.5042 77.5499 54.5482 76.8212C54.6989 73.9475 54.8394 70.6808 55.3324 64.2997L55.3333 64.289C55.7575 59.998 56.5805 52.4708 57.1234 48.1815C57.6139 44.3057 57.8684 43.0747 58.2933 40.2763C57.5621 40.3443 56.9169 40.3966 56.2562 40.4628C55.9818 40.4901 55.7372 40.2898 55.7093 40.0155C55.6818 39.7409 55.882 39.4954 56.1566 39.4677C56.9124 39.3919 57.6249 39.3374 58.4486 39.2577C58.9647 35.7173 59.7137 29.8928 60.1263 24.8065C60.5417 19.6862 60.6153 15.4376 60.6888 11.1747C60.6937 10.8987 60.9215 10.6787 61.1976 10.6835C61.4734 10.6886 61.6936 10.9164 61.6888 11.1923C61.6153 15.4544 61.5416 19.732 61.1234 24.8876C60.7181 29.8825 59.9902 35.5756 59.474 39.1483C60.1024 39.0758 60.8089 38.985 61.64 38.8564C64.7202 38.3041 67.6944 37.5839 70.1947 36.7421C72.6653 35.9102 74.6229 34.9751 75.7777 34.0038C77.5683 30.8898 79.4715 26.9385 78.8128 23.2274C78.2973 20.3241 77.6319 17.6353 76.224 15.8856C75.3538 14.8043 74.5319 13.7913 73.7103 13.0097C72.8837 12.2234 72.116 11.7295 71.3695 11.6044C69.5242 11.2954 67.3091 10.9075 65.4857 10.5898C63.6454 10.269 62.2357 10.0257 61.9661 9.99698C61.6921 9.96743 61.4939 9.72128 61.5228 9.44717C61.5521 9.17267 61.7981 8.97368 62.0726 9.00284Z" fill="black"/>
<path d="M590.695 40.8617C590.94 40.8619 591.139 41.0609 591.139 41.306C591.139 41.7039 591.146 42.1315 591.168 42.7826L591.284 45.6029V45.6039C591.367 47.6865 591.504 51.327 591.448 57.6732C591.392 64.0123 591.14 72.9558 590.975 82.1507C590.97 82.3959 590.768 82.5906 590.523 82.5863C590.277 82.5819 590.082 82.3795 590.086 82.1341C590.251 72.9232 590.503 64.0008 590.559 57.6654C590.615 51.3394 590.479 47.7146 590.396 45.642L590.28 42.8128C590.257 42.1542 590.25 41.7156 590.25 41.306C590.251 41.0608 590.449 40.8617 590.695 40.8617ZM576.143 6.10191C576.387 6.07714 576.605 6.25519 576.63 6.49937C576.678 6.97183 576.705 7.459 578.872 12.8265C581.032 18.1759 585.294 28.3082 587.604 33.8773C588.761 36.6654 589.39 38.2194 589.77 39.0941C589.961 39.5349 590.079 39.7792 590.161 39.9164C590.168 39.9279 590.176 39.9376 590.182 39.9466C590.204 39.9298 590.237 39.9042 590.276 39.8636C590.446 39.6867 590.67 39.3572 590.996 38.805C591.318 38.2612 591.716 37.5419 592.242 36.6097C592.765 35.6808 593.41 34.5487 594.217 33.1908C597.078 28.3802 602.602 19.5015 605.678 14.5765C608.758 9.64608 609.274 8.95841 609.656 8.38511C610.032 7.81984 610.247 7.40905 610.6 6.83043C610.728 6.62087 611.002 6.55435 611.211 6.68199C611.421 6.80984 611.486 7.0829 611.359 7.29234C611.038 7.81894 610.781 8.29669 610.395 8.8773C610.013 9.45018 609.504 10.1288 606.432 15.0472C603.354 19.9744 597.836 28.8443 594.982 33.6449C594.179 34.9948 593.538 36.1205 593.016 37.0462C592.496 37.9685 592.089 38.7027 591.761 39.2572C591.438 39.8027 591.168 40.2189 590.915 40.4808C590.787 40.6142 590.636 40.7353 590.459 40.8041C590.268 40.8782 590.071 40.8814 589.881 40.8177C589.652 40.7404 589.512 40.5619 589.399 40.3734C589.283 40.1804 589.145 39.8864 588.954 39.4486C588.571 38.5653 587.935 36.994 586.784 34.2181C584.477 28.6578 580.21 18.5129 578.048 13.1586C575.895 7.82468 575.809 7.21284 575.745 6.58922C575.721 6.34517 575.899 6.12691 576.143 6.10191Z" fill="black"/>
<path d="M524.519 5.39954C525.907 4.67237 528.309 4.34835 534.082 4.80118C538.799 5.17121 541.59 5.88791 543.396 6.6883C545.212 7.49369 546.018 8.38444 546.709 8.98106C547.501 9.6643 548.094 10.9355 548.62 12.6163C549.154 14.3196 549.644 16.5378 550.178 19.2071C550.589 21.263 549.953 23.1817 549.334 25.0071C548.362 27.8692 545.888 30.497 543.202 32.657C540.503 34.8265 537.531 36.5714 535.477 37.6519C533.283 38.8064 530.255 39.7859 527.979 40.576C525.951 41.2806 524.386 41.6681 522.829 41.9744C522.826 42.0245 522.822 42.0746 522.818 42.1246C524.729 42.9511 526.963 43.7396 529.091 44.4713C531.863 45.4244 534.488 46.2993 535.859 47.0491C536.326 47.3044 536.985 47.8051 537.792 48.4844C538.608 49.1708 539.6 50.0616 540.739 51.1172C541.878 52.1728 543.168 53.397 544.581 54.7519L549.163 59.1717L549.175 59.1852C550.503 60.5822 552.175 62.4198 554.275 64.7502L561.943 73.2712L561.945 73.2728C564.348 75.9697 565.346 77.1845 566.628 78.7689C566.782 78.9595 566.753 79.2401 566.563 79.3945C566.372 79.5489 566.091 79.5191 565.937 79.3284C564.662 77.7534 563.673 76.5501 561.281 73.8649L561.281 73.864C555.19 67.1167 551.176 62.5799 548.531 59.7975L548.53 59.7976C545.27 56.6432 542.401 53.8699 540.135 51.7694C539 50.7177 538.019 49.8377 537.219 49.1646C536.412 48.4849 535.813 48.037 535.432 47.8288C534.147 47.1259 531.625 46.2831 528.802 45.3123C526.788 44.6196 524.638 43.8644 522.749 43.0642C522.443 47.07 522.352 49.2041 522.104 52.9056C521.885 56.1653 521.244 62.1118 520.802 66.5912C520.358 71.082 520.071 73.9433 519.907 75.6342C519.744 77.313 519.715 77.7247 519.781 79.1847C519.792 79.4295 519.602 79.6374 519.357 79.6487C519.112 79.6599 518.904 79.47 518.892 79.2251C518.823 77.7084 518.857 77.2514 519.022 75.5486C519.186 73.857 519.474 70.9924 519.916 66.5047C520.36 62.0058 521 56.0875 521.217 52.8462C521.47 49.074 521.56 46.897 521.885 42.6882L521.884 42.6884C521.472 42.5014 521.076 42.3121 520.702 42.1205C520.687 42.113 520.653 42.0946 520.617 42.065C520.6 42.051 520.48 41.9564 520.455 41.7777C520.421 41.5254 520.592 41.3805 520.664 41.3366C520.731 41.2953 520.793 41.2816 520.811 41.2779C520.88 41.2633 520.956 41.2662 520.971 41.2664C521.027 41.2676 521.146 41.2738 521.236 41.2767C521.453 41.2837 521.717 41.2824 521.937 41.2421C521.956 41.2387 521.975 41.2349 521.994 41.2314C522.429 35.465 522.819 29.5602 523.078 25.3527C523.408 19.9802 523.431 8.94147 523.331 6.11096C523.322 5.86576 523.515 5.65976 523.76 5.65095C524.005 5.64229 524.211 5.83426 524.22 6.07956C524.32 8.93387 524.297 20.0025 523.965 25.4081C523.71 29.5592 523.327 35.3616 522.899 41.0557C524.343 40.763 525.81 40.3891 527.688 39.7367C530.004 38.9325 532.945 37.9793 535.063 36.8647C537.088 35.7994 540.007 34.0855 542.645 31.9644C545.295 29.8334 547.605 27.3374 548.492 24.7214C549.122 22.8653 549.664 21.169 549.306 19.3814C548.773 16.7121 548.29 14.5352 547.772 12.8816C547.248 11.2058 546.713 10.1576 546.129 9.65369C545.392 9.01758 544.702 8.23984 543.036 7.50102C541.358 6.75711 538.677 6.05297 534.012 5.68707C528.219 5.23266 526.065 5.59348 524.932 6.187C524.715 6.30091 524.446 6.21705 524.332 5.99966C524.218 5.78227 524.302 5.51344 524.519 5.39954Z" fill="black"/>
<path d="M317.397 7.88309C317.155 7.84621 316.928 8.01272 316.89 8.25516C316.461 11.0542 314.381 21.8955 313.056 27.1126C311.93 31.5431 310.283 37.9069 308.653 43.9222C307.868 46.8181 307.392 48.7276 306.841 50.9036C301.37 50.9176 298.097 50.9212 298.01 50.9212C297.764 50.9213 297.566 51.1204 297.565 51.3655C297.565 51.6109 297.764 51.8098 298.01 51.8099C298.096 51.8099 301.279 51.8066 306.613 51.7932C306.455 52.4136 306.288 53.0668 306.103 53.7776C305.286 56.9215 303.555 62.6169 302.28 66.9544C301.009 71.2811 300.192 74.0417 299.716 75.6731C299.236 77.3155 299.118 77.7579 298.903 79.261C298.869 79.5039 299.038 79.7291 299.281 79.764C299.524 79.7984 299.749 79.6297 299.784 79.387C299.991 77.9402 300.096 77.5414 300.569 75.9222C301.045 74.2914 301.861 71.534 303.134 67.2044C304.403 62.8857 306.141 57.163 306.964 54.0013C307.172 53.2015 307.357 52.4767 307.532 51.7903C309.678 51.7846 312.134 51.7805 314.847 51.7698C320.247 51.7485 322.435 51.4039 325.847 51.2327H325.862L325.876 51.2307C326.478 51.161 327.058 51.0973 327.617 51.0403C327.847 51.9492 328.09 52.9049 328.375 54.0013C329.197 57.163 330.936 62.8856 332.205 67.2044C333.477 71.534 334.293 74.2913 334.769 75.9222C335.242 77.5415 335.348 77.9402 335.555 79.387C335.589 79.6297 335.815 79.7983 336.057 79.764C336.3 79.7292 336.47 79.504 336.435 79.261C336.221 77.7579 336.102 77.3156 335.623 75.6731C335.147 74.0416 334.33 71.2811 333.058 66.9544C331.784 62.6169 330.053 56.9215 329.235 53.7776C328.965 52.7394 328.732 51.8248 328.512 50.9544C329.77 50.8402 330.927 50.7681 332.016 50.7561H332.019C333.143 50.736 334.655 50.6959 336.21 50.6546C336.455 50.648 336.649 50.4438 336.642 50.1985C336.636 49.9534 336.432 49.7595 336.186 49.7659C334.63 49.8072 333.123 49.8475 332.004 49.8675V49.8684C330.846 49.8812 329.619 49.9587 328.291 50.0813C327.821 48.2244 327.37 46.4488 326.685 43.9222C325.055 37.9068 323.409 31.543 322.283 27.1126C320.957 21.8955 318.877 11.0541 318.448 8.25516C318.411 8.01264 318.184 7.84601 317.941 7.88309C317.83 7.90015 317.737 7.95777 317.67 8.03739C317.603 7.9576 317.508 7.90011 317.397 7.88309ZM317.67 8.99051C318.257 12.5132 320.169 22.4024 321.422 27.3323C322.548 31.7655 324.195 38.1335 325.827 44.1546C326.496 46.6219 326.939 48.3626 327.396 50.1702C326.88 50.2234 326.348 50.2815 325.799 50.345C322.315 50.52 320.221 50.8599 314.844 50.8811C312.227 50.8915 309.849 50.895 307.759 50.9007C308.287 48.8151 308.754 46.9517 309.512 44.1546C311.143 38.1335 312.79 31.7655 313.917 27.3323C315.17 22.4024 317.083 12.5132 317.67 8.99051Z" fill="black"/>
<path d="M463.275 10.676C463.52 10.6604 463.731 10.8461 463.747 11.091C463.874 13.0752 464.001 15.0613 464.15 19.3703C464.299 23.6783 464.466 30.2491 464.463 39.2912C464.462 41.2743 464.451 43.3671 464.436 45.5012C467.86 44.4757 476.173 41.6649 478.407 40.7746C479.165 40.4596 479.9 40.1704 480.579 39.9172L481.239 39.676C481.659 39.5234 482.094 39.3585 483.659 38.6594C483.883 38.5594 484.147 38.6603 484.247 38.884C484.347 39.108 484.246 39.3717 484.022 39.4719C482.444 40.177 481.988 40.3492 481.541 40.5119L481.538 40.5129C480.702 40.8111 479.744 41.1816 478.742 41.5978L478.736 41.6008C476.468 42.5048 468.122 45.3263 464.687 46.3547C464.601 46.3807 464.512 46.3782 464.432 46.3537C464.378 53.6948 464.268 61.4117 464.23 66.7473C464.189 72.7175 464.243 75.4724 464.412 78.3283C464.414 78.328 464.416 78.3286 464.418 78.3283C464.52 78.3126 464.72 78.2802 465.115 78.216C465.905 78.0876 467.47 77.8313 470.585 77.3176C476.815 76.29 489.241 74.2345 502.327 72.0217C502.569 71.9809 502.799 72.1442 502.84 72.3859C502.881 72.6278 502.717 72.8575 502.476 72.8986C489.387 75.1118 476.959 77.1669 470.729 78.1945C467.615 78.7083 466.049 78.9654 465.258 79.0939C464.863 79.1581 464.66 79.1908 464.553 79.2072C464.52 79.2122 464.492 79.2128 464.469 79.216C464.485 79.4684 464.502 79.7243 464.52 79.9855C464.538 80.2302 464.353 80.4426 464.108 80.4602C463.864 80.4775 463.651 80.2936 463.634 80.049C463.377 76.4329 463.292 73.8551 463.342 66.7414C463.392 59.6261 463.57 48.3268 463.573 39.2912C463.577 30.2605 463.41 23.6995 463.262 19.4006C463.113 15.103 462.987 13.1261 462.86 11.1477C462.845 10.9027 463.03 10.6916 463.275 10.676ZM488.017 7.88788C488.256 7.83652 488.493 7.989 488.545 8.22871C488.597 8.46838 488.444 8.70501 488.204 8.75703C486.986 9.01996 486.522 9.0613 485.426 9.20038C482.631 9.57095 480.28 9.96725 478.623 10.2893L478.612 10.2912L478.602 10.2932C474.146 10.9499 467.5 12.0311 464.781 12.8742C464.547 12.9469 464.297 12.8156 464.225 12.5812C464.152 12.347 464.283 12.0983 464.518 12.0256C466.967 11.266 472.422 10.3361 476.716 9.67792L478.474 9.41328C480.148 9.08832 482.51 8.69175 485.31 8.3205L485.311 8.31953C486.413 8.17967 486.841 8.14167 488.017 7.88788Z" fill="black"/>
<path d="M415.158 9.06911C415.236 8.83665 415.488 8.71184 415.721 8.78982C415.953 8.86805 416.078 9.11969 416 9.35232C415.999 9.35435 416 9.35161 415.997 9.36501C415.992 9.38793 415.985 9.43523 415.971 9.532C415.943 9.7242 415.896 10.0856 415.812 10.7879C415.645 12.1915 415.331 14.9416 414.722 20.3845C413.503 31.2704 411.106 52.9189 409.871 64.5759C408.806 74.633 408.662 76.7528 408.643 77.7957C410.288 77.795 416.341 77.7909 425.028 77.7566C430.406 77.7354 432.5 77.3954 435.983 77.2205C438.314 76.9507 440.339 76.7644 442.188 76.7439V76.7429C443.307 76.7229 444.815 76.6827 446.371 76.6414C446.616 76.635 446.821 76.8287 446.827 77.074C446.834 77.3193 446.64 77.5235 446.395 77.5301C444.84 77.5714 443.328 77.6115 442.204 77.6316H442.201C440.393 77.6514 438.397 77.8355 436.061 78.1062L436.047 78.1082H436.032C432.62 78.2793 430.431 78.6239 425.032 78.6453C415.024 78.6848 408.51 78.6843 408.204 78.6843C408.201 78.6844 408.198 78.6863 408.194 78.6863C407.949 78.6861 407.75 78.4863 407.75 78.241C407.75 77.1702 407.754 76.13 408.987 64.4822C410.222 52.8224 412.619 31.172 413.838 20.2859C414.447 14.8432 414.763 12.0896 414.931 10.6824C415.014 9.98027 415.062 9.60897 415.091 9.40505C415.12 9.20328 415.135 9.13957 415.158 9.06911Z" fill="black"/>
<path d="M360.05 9.06919C360.128 8.83672 360.38 8.71171 360.612 8.7899C360.845 8.86816 360.97 9.11986 360.892 9.3524C360.891 9.35443 360.891 9.3518 360.889 9.36509C360.884 9.388 360.876 9.43536 360.862 9.53208C360.835 9.72427 360.788 10.0857 360.704 10.7879C360.537 12.1916 360.223 14.9417 359.613 20.3846C358.394 31.2704 355.997 52.9189 354.763 64.576C353.698 74.6331 353.553 76.7529 353.533 77.7958C355.178 77.7951 361.232 77.791 369.92 77.7567C375.297 77.7354 377.391 77.3955 380.875 77.2206C383.206 76.9507 385.231 76.7644 387.08 76.744V76.743C388.199 76.723 389.707 76.6828 391.263 76.6415C391.508 76.6352 391.712 76.8289 391.719 77.0741C391.725 77.3193 391.531 77.5235 391.286 77.5301C389.732 77.5714 388.219 77.6116 387.096 77.6317H387.093C385.284 77.6515 383.288 77.8356 380.952 78.1063L380.938 78.1083H380.924C377.512 78.2794 375.323 78.624 369.924 78.6454C359.92 78.6849 353.408 78.6844 353.096 78.6844C353.092 78.6845 353.089 78.6864 353.086 78.6864C352.84 78.6864 352.642 78.4865 352.642 78.2411C352.642 77.1702 352.645 76.1301 353.879 64.4823C355.114 52.8224 357.51 31.1721 358.729 20.286C359.339 14.8433 359.655 12.0897 359.822 10.6825C359.906 9.98039 359.953 9.60904 359.982 9.40513C360.011 9.20341 360.026 9.13964 360.05 9.06919Z" fill="black"/>
<path d="M255.311 8.7666C259.722 8.76641 265.811 9.66208 270.813 12.4326C275.84 15.2165 279.781 19.9066 279.781 27.4326C279.781 27.678 279.582 27.877 279.337 27.877C279.092 27.8768 278.893 27.6779 278.892 27.4326C278.892 20.2928 275.186 15.8713 270.383 13.2109C265.555 10.5374 259.631 9.65509 255.311 9.65527C248.002 9.65578 241.671 15.0485 237.514 23.7578C235.453 28.0744 235.04 35.0334 235.46 42.6621C235.878 50.2659 237.117 58.4443 238.289 65.1406C239.05 69.4864 241.551 72.213 244.059 74.8662C246.128 77.0559 249.157 77.9751 252.439 78.0859C255.719 78.1966 259.197 77.497 262.08 76.5137C266.072 75.152 269.42 71.8305 272.215 67.8105C275.004 63.7975 277.206 59.1425 278.93 55.1904C280.477 51.6416 280.691 47.3534 280.634 43.4424C279.234 43.4795 277.896 43.515 276.878 43.5332H276.875C275.067 43.553 273.071 43.7371 270.735 44.0078L270.721 44.0098H270.706C267.294 44.1809 265.105 44.5255 259.706 44.5469C259.461 44.5478 259.261 44.3499 259.26 44.1045C259.259 43.8592 259.457 43.6593 259.702 43.6582C265.079 43.637 267.173 43.297 270.657 43.1221C272.988 42.8522 275.013 42.6659 276.862 42.6455V42.6445C277.878 42.6264 279.213 42.5909 280.615 42.5537C280.611 42.3984 280.611 42.2436 280.606 42.0898C280.6 41.8446 280.793 41.6398 281.038 41.6328C281.283 41.6259 281.488 41.8202 281.495 42.0654C281.614 46.3088 281.56 51.3793 279.744 55.5449C278.016 59.5087 275.786 64.2306 272.944 68.3184C270.107 72.3994 266.623 75.9037 262.366 77.3555C259.41 78.3636 255.823 79.0898 252.409 78.9746C248.999 78.8595 245.704 77.9009 243.413 75.4775C240.909 72.8279 238.225 69.9288 237.414 65.2939C236.24 58.5869 234.994 50.3676 234.573 42.7109C234.153 35.0796 234.544 27.9148 236.711 23.375C240.939 14.5179 247.511 8.76711 255.311 8.7666Z" fill="black"/>
<path d="M101.975 11.7768C102.25 11.8043 102.45 12.0493 102.423 12.3239C102.23 14.2503 102.037 16.1794 101.497 20.3427C100.957 24.5047 100.074 30.8427 98.6369 39.5276C98.3264 41.4042 97.9887 43.3816 97.6419 45.398C101.145 44.9441 109.45 43.5845 111.715 43.0885C112.754 42.8452 113.746 42.6377 114.611 42.481C115.036 42.4013 115.48 42.3139 117.092 41.8909C117.359 41.8209 117.632 41.9801 117.703 42.2471C117.773 42.514 117.613 42.7871 117.346 42.8574C115.717 43.2847 115.25 43.3793 114.792 43.465L114.789 43.4655C113.941 43.6191 112.963 43.8227 111.936 44.0633L111.929 44.0651C109.604 44.5742 101.137 45.9608 97.6747 46.4041C97.6046 46.413 97.5361 46.407 97.4724 46.3885C96.2601 53.4069 94.9383 60.7651 94.0598 65.8632C93.0818 71.5388 92.6949 74.1955 92.4055 76.937C92.5193 76.938 92.7084 76.9404 93.0244 76.9412C93.8033 76.9431 95.3475 76.9447 98.42 76.9452C104.566 76.9462 116.828 76.9429 129.747 76.8929C130.024 76.8918 130.248 77.1153 130.249 77.3915C130.25 77.6673 130.027 77.8922 129.752 77.8933C116.829 77.9433 104.566 77.9458 98.4193 77.9448C95.3466 77.9443 93.8017 77.9433 93.0216 77.9414C92.6322 77.9404 92.4308 77.9394 92.3253 77.9382C92.3182 77.9382 92.3114 77.9369 92.3047 77.9368C92.283 78.1607 92.2602 78.3874 92.2386 78.6188C92.2131 78.8937 91.9698 79.0959 91.6949 79.0704C91.4201 79.0448 91.2179 78.8015 91.2433 78.5267C91.5704 75.0103 91.8981 72.5186 93.0744 65.6926C94.2509 58.8651 96.2141 48.0425 97.6503 39.3646C99.0856 30.6922 99.9657 24.3654 100.505 20.2135C101.044 16.0629 101.236 14.1448 101.428 12.2249C101.455 11.9502 101.7 11.7495 101.975 11.7768ZM126.17 13.0233C126.446 13.0098 126.681 13.2221 126.695 13.4979C126.708 13.7736 126.495 14.0076 126.219 14.0212C125.004 14.0807 124.549 14.0484 123.473 14.0081L123.472 14.007C120.732 13.9199 118.413 13.9273 116.773 13.9737L116.761 13.9747L116.75 13.9739C112.363 13.8979 105.814 13.8839 103.075 14.2617C102.802 14.2993 102.549 14.1075 102.511 13.834C102.474 13.5608 102.665 13.309 102.938 13.271C105.768 12.8805 112.4 12.8983 116.759 12.9737C118.421 12.927 120.755 12.9206 123.507 13.0082L123.51 13.0087C124.591 13.0491 125.004 13.0804 126.17 13.0233Z" fill="black"/>
<path d="M150.697 9.30326C150.772 9.08142 151.013 8.96136 151.234 9.03568C151.456 9.11046 151.576 9.35107 151.502 9.57279C151.501 9.57499 151.501 9.57369 151.498 9.58744C151.493 9.61025 151.485 9.65603 151.472 9.74857C151.524 9.8054 151.562 9.87669 151.577 9.95853C151.578 9.96334 151.579 9.96426 151.585 9.98294C151.593 10.0096 151.61 10.0608 151.646 10.1597C151.717 10.3573 151.856 10.725 152.131 11.4341C152.68 12.853 153.767 15.6266 155.931 21.1089C160.258 32.0744 168.889 53.8689 173.585 65.5796C177.012 74.1261 178.202 76.943 178.791 78.2202C178.846 76.9682 179.072 74.2776 179.988 65.6216C181.201 54.1716 183.555 32.9113 184.752 22.2212C185.35 16.8771 185.66 14.1735 185.824 12.7915C185.906 12.1021 185.953 11.7368 185.981 11.5367C186.01 11.3396 186.024 11.2772 186.047 11.2095C186.122 10.9879 186.362 10.8678 186.584 10.9419C186.806 11.0166 186.926 11.2572 186.852 11.479C186.851 11.481 186.85 11.4805 186.848 11.4937C186.843 11.5167 186.835 11.5635 186.821 11.6577C186.794 11.8467 186.749 12.2025 186.667 12.8921C186.503 14.2708 186.193 16.9717 185.595 22.316C184.398 33.006 182.044 54.2643 180.832 65.7115C179.619 77.1656 179.621 78.1361 179.621 79.1324C179.621 79.3276 179.488 79.4902 179.309 79.5396C179.276 79.6445 179.205 79.7371 179.1 79.7915C178.892 79.899 178.636 79.8174 178.528 79.6099C178.001 78.5905 177.49 77.5994 172.797 65.896C168.1 54.1831 159.469 32.3862 155.142 21.4204C152.978 15.9381 151.89 13.1615 151.34 11.7398C151.31 11.662 151.282 11.588 151.255 11.5181C151.078 13.0232 150.775 15.6821 150.245 20.4097C149.048 31.0998 146.695 52.3581 145.482 63.8052C144.269 75.2598 144.271 76.2298 144.271 77.2261C144.271 77.46 144.082 77.6507 143.848 77.6509C143.614 77.6509 143.424 77.4602 143.424 77.2261C143.424 76.1752 143.427 75.1548 144.639 63.7154C145.851 52.2654 148.205 31.0051 149.402 20.315C150.001 14.9708 150.31 12.2673 150.475 10.8853C150.557 10.1957 150.603 9.83061 150.632 9.6304C150.66 9.43306 150.675 9.37104 150.697 9.30326Z" fill="black"/>
</svg>
