<svg width="1473" height="518" viewBox="0 0 1473 518" fill="none" xmlns="http://www.w3.org/2000/svg">
<path d="M380.97 45.584C381.245 45.5664 381.483 45.7755 381.501 46.0508C382.318 58.8309 383.136 71.6139 384.096 99.3711C385.055 127.127 386.131 169.472 386.109 227.75C386.088 286.023 384.935 358.957 384.614 404.785C384.293 450.614 384.838 467.139 386.485 490.338C386.505 490.613 386.298 490.852 386.022 490.872C385.747 490.891 385.508 490.684 385.488 490.409C383.839 467.175 383.293 450.62 383.614 404.777C383.935 358.933 385.088 286.02 385.109 227.749L385.101 217.011C384.997 164.249 383.995 125.417 383.096 99.4053C382.137 71.6609 381.32 58.8889 380.503 46.1152C380.485 45.84 380.695 45.6019 380.97 45.584ZM633.041 441.151C633.313 441.105 633.571 441.289 633.617 441.562C633.663 441.834 633.48 442.092 633.208 442.138C548.812 456.409 468.673 469.662 428.501 476.288C408.416 479.601 398.322 481.259 393.225 482.087C390.677 482.501 389.375 482.708 388.698 482.812C388.041 482.912 387.945 482.921 387.848 482.921C387.572 482.921 387.348 482.697 387.348 482.421C387.348 482.145 387.572 481.921 387.848 481.921C387.85 481.921 387.855 481.929 388.546 481.823C389.218 481.72 390.516 481.514 393.063 481.1C398.159 480.271 408.252 478.615 428.338 475.302C468.51 468.675 548.647 455.422 633.041 441.151ZM513.234 225.842C513.486 225.729 513.782 225.842 513.895 226.094C514.007 226.346 513.894 226.641 513.642 226.754C503.49 231.289 500.609 232.378 497.797 233.401L497.794 233.402C492.361 235.341 486.145 237.747 479.653 240.444L479.646 240.447C465.109 246.241 411.352 264.413 389.245 271.033C388.981 271.112 388.703 270.962 388.623 270.698C388.544 270.434 388.694 270.155 388.958 270.075C411.049 263.46 464.776 245.298 479.276 239.519C485.779 236.816 492.009 234.404 497.458 232.46C500.239 231.448 503.099 230.37 513.234 225.842ZM540.857 27.5576C541.127 27.4994 541.394 27.6707 541.452 27.9404C541.51 28.2102 541.339 28.4757 541.069 28.5342C533.324 30.2062 530.433 30.4682 523.343 31.3682L523.342 31.3672C505.276 33.7628 490.068 36.3209 479.332 38.4072L479.321 38.4092L479.31 38.4111C450.635 42.6366 407.569 49.6362 389.824 55.1396C389.561 55.2213 389.28 55.0742 389.198 54.8105C389.117 54.5471 389.264 54.2665 389.527 54.1846C407.361 48.6536 450.509 41.6443 479.154 37.4229C489.912 35.3327 505.136 32.7732 523.214 30.376H523.217C530.312 29.4754 533.161 29.219 540.857 27.5576Z" fill="black"/>
<path d="M764.167 11.5918C766.144 11.8028 775.811 13.4757 788.037 15.6064C800.281 17.7402 815.127 20.3391 827.494 22.4102C833.652 23.4416 839.498 27.4004 845.227 32.8506C850.961 38.3058 856.638 45.3148 862.443 52.5283C872.591 65.1379 877.164 84.1328 880.609 103.54C885.34 130.186 871.549 158.075 859.495 178.969L859.453 179.042L859.389 179.097C851.112 186.252 837.201 192.836 820.203 198.56C803.19 204.288 783.031 209.172 762.214 212.903L762.202 212.905C754.756 214.059 748.761 214.791 743.523 215.336C740.288 237.151 738.585 244.434 735.076 272.158C731.439 300.898 725.918 351.37 723.074 380.143C719.769 422.925 718.832 444.795 717.819 464.095V464.099C717.532 468.862 717.327 475.284 716.499 482.499C716.468 482.773 716.219 482.971 715.945 482.939C715.671 482.908 715.474 482.66 715.505 482.386C716.329 475.207 716.531 468.834 716.82 464.038C717.833 444.74 718.771 422.855 722.078 380.055L722.079 380.044C724.924 351.265 730.445 300.784 734.084 272.033C737.579 244.415 739.291 237.013 742.496 215.44C736.052 216.093 730.727 216.475 725.153 217.034C724.879 217.062 724.634 216.861 724.606 216.587C724.579 216.312 724.779 216.067 725.054 216.039C730.723 215.471 736.107 215.087 742.647 214.42C742.73 213.864 742.815 213.299 742.899 212.724C746.371 188.983 751.456 149.505 754.252 115.038C757.048 80.5747 757.541 51.9831 758.034 23.377C758.039 23.1009 758.267 22.881 758.543 22.8857C758.819 22.8906 759.039 23.1185 759.034 23.3945C758.541 52 758.048 80.6204 755.249 115.119C752.451 149.614 747.363 189.115 743.89 212.868C743.818 213.357 743.745 213.839 743.675 214.313C748.836 213.773 754.735 213.049 762.043 211.917C782.824 208.192 802.931 203.32 819.884 197.611C836.809 191.912 850.538 185.397 858.671 178.395C870.727 157.489 884.279 129.931 879.625 103.715C876.176 84.2873 871.63 65.5398 861.664 53.1553C855.85 45.9303 850.214 38.9762 844.537 33.5752C838.855 28.1696 833.189 24.378 827.328 23.3965C814.957 21.3247 800.108 18.7253 787.866 16.5918C775.608 14.4556 765.996 12.7925 764.062 12.5859C763.787 12.5566 763.588 12.3106 763.617 12.0361C763.646 11.7616 763.892 11.5626 764.167 11.5918Z" fill="black"/>
<path d="M1011.15 42.7686C1011.24 42.507 1011.52 42.3662 1011.78 42.4541C1012.04 42.5422 1012.19 42.8254 1012.1 43.0869C1012.05 43.2334 1011.99 43.3881 1011.81 44.6602C1011.62 45.9305 1011.32 48.2877 1010.78 52.8193C1009.7 61.8806 1007.67 79.621 1003.74 114.72C995.88 184.918 980.424 324.522 972.462 399.7C964.697 473.014 964.507 481.019 964.502 487.574C969.493 487.573 1010.66 487.561 1072.57 487.316C1107.3 487.179 1121.06 484.976 1143.33 483.857C1158.41 482.11 1171.42 480.908 1183.26 480.778C1190.48 480.649 1200.22 480.391 1210.25 480.124C1210.52 480.117 1210.75 480.335 1210.76 480.61C1210.77 480.886 1210.55 481.117 1210.27 481.124C1200.24 481.39 1190.51 481.649 1183.27 481.778H1183.27C1171.48 481.907 1158.51 483.106 1143.43 484.854L1143.41 484.855L1143.4 484.856C1121.2 485.97 1107.34 488.179 1072.57 488.316C1007.08 488.575 964.802 488.575 964.002 488.575C963.864 488.575 963.739 488.519 963.648 488.429C963.626 488.406 963.605 488.382 963.587 488.355C963.533 488.276 963.502 488.179 963.502 488.075C963.502 481.321 963.505 474.765 971.467 399.596C979.429 324.414 994.887 184.807 1002.75 114.608C1006.68 79.5101 1008.71 61.7664 1009.79 52.7012C1010.33 48.1704 1010.63 45.8024 1010.82 44.5186C1011 43.2377 1011.07 43.0065 1011.15 42.7686Z" fill="black"/>
<path d="M1246.95 27.5029C1247.22 27.4751 1247.47 27.6748 1247.5 27.9492C1247.85 31.3989 1248.17 34.8636 1262.12 69.3936C1276.05 103.902 1303.54 169.278 1318.43 205.168C1325.88 223.106 1330.43 233.333 1333.13 239.072C1334.48 241.941 1335.36 243.687 1335.9 244.712C1336.06 245.006 1336.18 245.241 1336.29 245.426C1336.56 245.085 1336.97 244.576 1337.51 243.872C1338.65 242.389 1340.39 240.045 1342.77 236.608C1347.55 229.735 1354.92 218.494 1365.3 201.037C1383.73 170.042 1419.33 112.816 1439.17 81.0518C1459.02 49.2798 1462.32 44.8771 1464.79 41.1807C1467.24 37.4931 1468.74 34.6682 1470.93 31.0732C1471.07 30.838 1471.38 30.7633 1471.62 30.9062C1471.85 31.0499 1471.93 31.358 1471.78 31.5938C1469.63 35.1298 1468.08 38.0298 1465.62 41.7344C1463.16 45.4304 1459.86 49.8226 1440.02 81.5811C1420.18 113.347 1384.58 170.564 1366.16 201.548C1355.77 219.021 1348.38 230.283 1343.59 237.179C1341.2 240.626 1339.45 242.983 1338.3 244.48C1337.73 245.229 1337.3 245.763 1337.02 246.11C1336.9 246.263 1336.8 246.38 1336.73 246.463C1336.75 246.461 1336.77 246.458 1336.78 246.458C1337.06 246.458 1337.28 246.682 1337.28 246.958C1337.28 252.265 1337.48 258.338 1338.18 275.368V275.37C1338.7 289.061 1339.54 312.996 1339.19 354.752C1338.85 396.5 1337.29 455.352 1336.27 515.967C1336.27 516.243 1336.04 516.463 1335.76 516.458C1335.49 516.453 1335.27 516.225 1335.27 515.949C1336.29 455.317 1337.85 396.487 1338.19 354.743C1338.54 313.009 1337.7 289.09 1337.18 275.41L1336.94 269.518C1336.43 256.892 1336.28 251.64 1336.28 246.98L1336.16 247.119L1335.8 246.572V246.571L1335.8 246.569C1335.8 246.568 1335.8 246.567 1335.79 246.565C1335.79 246.562 1335.79 246.556 1335.79 246.55C1335.78 246.537 1335.77 246.518 1335.75 246.493C1335.72 246.443 1335.67 246.367 1335.61 246.26C1335.49 246.045 1335.29 245.701 1335.02 245.18C1334.47 244.136 1333.58 242.376 1332.22 239.497C1329.52 233.739 1324.95 223.497 1317.51 205.551C1302.62 169.671 1275.12 104.283 1261.19 69.7686C1247.26 35.2773 1246.87 31.6705 1246.5 28.0508C1246.48 27.7764 1246.67 27.5311 1246.95 27.5029Z" fill="black"/>
<path d="M123.217 1.89258C132.152 -0.824182 147.123 -0.212114 183.211 9.61035C212.519 17.5873 229.059 25.3929 239.229 32.4229C249.411 39.4606 253.197 45.7189 256.961 50.4561C260.702 55.1643 262.891 63.3186 264.203 74.5869C265.518 85.8814 265.961 100.412 266.133 117.965C266.258 130.756 260.279 141.611 254.118 152.507C244.865 168.871 226.532 182.286 207.024 192.685C187.501 203.091 166.726 210.515 152.499 214.867C137.427 219.478 117.312 222.022 101.832 224.311C87.4624 226.435 76.798 226.967 66.0684 226.98C65.6795 228.423 65.2893 229.863 64.9004 231.301C76.4029 239.21 90.2754 247.247 103.366 254.719C119.908 264.16 135.236 272.722 142.816 278.954C145.264 280.966 148.708 284.763 153.007 290.04C157.313 295.326 162.501 302.127 168.44 310.172C177.349 322.239 187.955 337.117 199.825 353.9L212.102 371.285L212.113 371.303C223.879 389.554 240.684 417.601 265.104 457.839L276.043 475.837L276.044 475.84C288.002 495.779 292.849 504.639 299.053 516.19C299.183 516.434 299.092 516.737 298.849 516.867C298.605 516.998 298.302 516.906 298.171 516.663C291.973 505.124 287.136 496.278 275.187 476.354V476.354C244.724 426.316 224.709 392.688 211.272 371.845H211.271C194.388 347.912 179.503 326.841 167.636 310.766C161.701 302.726 156.523 295.94 152.231 290.672C147.932 285.394 144.543 281.669 142.181 279.727C134.685 273.564 119.465 265.06 102.87 255.588C89.9015 248.186 76.116 240.203 64.623 232.326C64.5092 232.747 64.397 233.168 64.2832 233.588C57.165 259.855 54.0083 273.426 47.8506 297.106C42.5612 317.447 31.3663 354.279 23.167 382.18C14.9641 410.093 9.7021 427.879 6.63086 438.397C3.56351 448.902 2.84971 451.589 1.49512 461.069C1.45583 461.342 1.20273 461.532 0.929688 461.493C0.656595 461.454 0.466071 461.201 0.504883 460.928C1.86853 451.384 2.5959 448.648 5.6709 438.117C8.74236 427.598 14.0061 409.808 22.208 381.898C30.4135 353.976 41.5977 317.175 46.8818 296.854C53.0331 273.199 56.1984 259.596 63.3174 233.326C63.462 232.793 63.6054 232.258 63.75 231.724C60.8884 229.743 58.1758 227.772 55.6641 225.818C55.6351 225.796 55.5916 225.759 55.5508 225.711C55.5287 225.685 55.4113 225.548 55.4219 225.339C55.4368 225.048 55.6601 224.92 55.7559 224.883C55.846 224.848 55.9289 224.845 55.9629 224.845C56.0978 224.842 56.2875 224.878 56.4531 224.913C56.8154 224.989 57.4195 225.139 58.0977 225.29C59.4942 225.602 61.3641 225.962 63.0752 225.974C63.8189 225.979 64.5609 225.981 65.3018 225.981C75.156 189.407 84.9111 151.677 91.7168 124.896C100.288 91.1689 113.715 21.1794 116.492 3.06738C116.534 2.79472 116.79 2.60779 117.062 2.64941C117.335 2.69127 117.523 2.94678 117.481 3.21973C114.7 21.3587 101.266 91.379 92.6855 125.143C85.8954 151.862 76.1696 189.48 66.3379 225.979C76.9374 225.957 87.4938 225.419 101.686 223.321C117.213 221.026 137.226 218.494 152.206 213.911C166.397 209.57 187.107 202.167 206.554 191.802C226.016 181.428 244.139 168.125 253.248 152.015C259.427 141.087 265.256 130.458 265.134 117.975C264.962 100.422 264.518 85.9385 263.21 74.7021C261.899 63.4395 259.727 55.5446 256.178 51.0781C252.371 46.2876 248.69 40.1778 238.66 33.2451C228.618 26.3044 212.198 18.5364 182.948 10.5752C146.838 0.746765 132.133 0.226213 123.508 2.84863C123.244 2.9287 122.964 2.77961 122.884 2.51562C122.804 2.25162 122.953 1.97303 123.217 1.89258ZM57.8994 226.27C59.8417 227.738 61.8916 229.215 64.0273 230.698C64.3619 229.461 64.6968 228.222 65.0312 226.981C64.378 226.98 63.7238 226.978 63.0684 226.974C61.253 226.961 59.3056 226.583 57.8994 226.27Z" fill="black"/>
</svg>
