<svg width="1493" height="530" viewBox="0 0 1493 530" fill="none" xmlns="http://www.w3.org/2000/svg">
<path d="M398.178 47.0611C398.454 47.0522 398.685 47.2687 398.694 47.5446C399.104 60.3442 399.514 73.1466 399.589 100.92C399.663 128.693 399.389 171.05 397.511 229.298C395.633 287.541 392.157 360.402 390.376 406.196C388.595 451.991 388.613 468.526 389.52 491.765C389.531 492.041 389.316 492.273 389.041 492.284C388.765 492.295 388.532 492.08 388.521 491.804C387.613 468.529 387.595 451.966 389.377 406.156C391.158 360.345 394.633 287.506 396.512 229.266L396.845 218.532C398.422 165.794 398.658 126.95 398.588 100.923C398.514 73.1618 398.104 60.3704 397.695 47.5772C397.686 47.3014 397.902 47.0703 398.178 47.0611ZM637.518 450.459C637.792 450.422 638.043 450.614 638.081 450.887C638.118 451.161 637.927 451.413 637.653 451.45C552.846 463.025 472.325 473.718 431.962 479.061C411.781 481.732 401.64 483.067 396.519 483.733C393.96 484.065 392.652 484.231 391.972 484.313C391.312 484.393 391.216 484.398 391.118 484.395C390.843 484.386 390.626 484.155 390.634 483.879C390.643 483.604 390.874 483.387 391.15 483.396C391.152 483.396 391.157 483.404 391.851 483.32C392.526 483.239 393.83 483.074 396.389 482.741C401.509 482.076 411.65 480.741 431.831 478.07C472.193 472.727 552.712 462.034 637.518 450.459ZM524.632 231.441C524.888 231.336 525.179 231.458 525.284 231.713C525.389 231.969 525.266 232.261 525.01 232.365C514.719 236.575 511.805 237.572 508.962 238.504L508.959 238.505C503.467 240.27 497.178 242.476 490.603 244.966L490.596 244.968C475.882 250.296 421.573 266.746 399.266 272.659C398.999 272.729 398.726 272.57 398.655 272.304C398.584 272.037 398.743 271.763 399.01 271.692C421.301 265.784 475.579 249.343 490.256 244.028C496.842 241.535 503.144 239.322 508.653 237.553C511.465 236.63 514.357 235.644 524.632 231.441ZM558.559 34.1381C558.831 34.0885 559.092 34.2681 559.141 34.5397C559.191 34.8112 559.011 35.0711 558.74 35.121C550.945 36.5453 548.047 36.7151 540.932 37.3887L540.931 37.3877C522.798 39.2065 507.516 41.2788 496.719 43.0219L496.708 43.0236L496.696 43.0251C467.902 46.3349 424.635 51.9588 406.724 56.894C406.457 56.9671 406.182 56.8112 406.108 56.5451C406.035 56.2791 406.191 56.0035 406.457 55.93C424.458 50.97 467.807 45.339 496.573 42.0324C507.391 40.2861 522.689 38.2129 540.835 36.3929L540.837 36.393C547.958 35.7189 550.813 35.5535 558.559 34.1381Z" fill="black"/>
<path d="M766.737 18.2425C768.719 18.388 778.436 19.7406 790.726 21.4662C803.034 23.1943 817.957 25.3012 830.387 26.9625C836.575 27.7898 842.548 31.5534 848.454 36.8113C854.366 42.0741 860.271 48.8916 866.312 55.9094C876.87 68.1768 882.068 87.0102 886.153 106.293C891.762 132.768 878.9 161.098 867.543 182.378L867.503 182.453L867.441 182.51C859.405 189.934 845.72 196.974 828.92 203.257C812.105 209.544 792.119 215.092 771.436 219.509L771.425 219.511C764.02 220.91 758.053 221.84 752.836 222.557C750.323 244.467 748.862 251.803 746.271 279.628C743.585 308.472 739.735 359.099 737.844 387.95C735.954 430.818 735.74 452.708 735.366 472.03L735.366 472.034C735.236 476.804 735.244 483.23 734.654 490.468C734.632 490.743 734.39 490.948 734.115 490.926C733.84 490.904 733.635 490.662 733.657 490.387C734.243 483.185 734.235 476.809 734.365 472.006C734.74 452.686 734.955 430.781 736.845 387.895L736.846 387.884C738.738 359.027 742.588 308.391 745.275 279.536C747.856 251.818 749.323 244.362 751.813 222.696C745.394 223.561 740.085 224.119 734.532 224.862C734.259 224.898 734.008 224.706 733.971 224.433C733.934 224.159 734.126 223.907 734.4 223.87C740.048 223.115 745.416 222.554 751.931 221.671C751.994 221.112 752.061 220.545 752.126 219.967C754.811 196.125 758.589 156.5 760.245 121.96C761.901 87.423 761.449 58.8306 760.996 30.2238C760.992 29.9479 761.213 29.7205 761.489 29.7161C761.765 29.7118 761.992 29.9323 761.996 30.2084C762.449 58.8144 762.902 87.4357 761.244 122.008C759.587 156.577 755.807 196.224 753.121 220.079C753.066 220.57 753.008 221.054 752.954 221.531C758.094 220.82 763.966 219.901 771.233 218.528C791.879 214.119 811.814 208.585 828.569 202.319C845.297 196.064 858.804 189.099 866.7 181.832C878.059 160.539 890.693 132.548 885.175 106.5C881.086 87.1973 875.924 68.6102 865.554 56.5618C859.504 49.5328 853.642 42.7688 847.789 37.5583C841.931 32.3433 836.143 28.741 830.253 27.9538C817.82 26.2919 802.894 24.1845 790.588 22.4567C778.266 20.7266 768.604 19.3821 766.664 19.2396C766.389 19.2193 766.182 18.9799 766.202 18.7047C766.222 18.4294 766.461 18.2224 766.737 18.2425Z" fill="black"/>
<path d="M1015.23 50.3901C1015.31 50.126 1015.59 49.9773 1015.85 50.0578C1016.11 50.1385 1016.26 50.4176 1016.18 50.6815C1016.14 50.8293 1016.08 50.9855 1015.94 52.2624C1015.79 53.5374 1015.55 55.9021 1015.14 60.4473C1014.32 69.5354 1012.79 87.3259 1009.85 122.522C1003.98 192.914 992.472 332.899 986.637 408.272C980.946 481.777 980.982 489.783 981.162 496.336C986.151 496.194 1027.3 495.019 1089.18 493.026C1123.89 491.907 1137.58 489.316 1159.82 487.569C1174.84 485.396 1187.81 483.828 1199.64 483.363C1206.86 483.03 1216.58 482.497 1226.6 481.947C1226.88 481.932 1227.11 482.143 1227.13 482.419C1227.14 482.694 1226.93 482.931 1226.65 482.946C1216.64 483.495 1206.91 484.029 1199.68 484.362L1199.68 484.363C1187.9 484.825 1174.97 486.389 1159.94 488.562L1159.92 488.564L1159.91 488.566C1137.75 490.306 1123.96 492.906 1089.21 494.025C1023.75 496.134 981.491 497.328 980.691 497.351C980.587 497.354 980.49 497.325 980.409 497.274C980.372 497.25 980.34 497.22 980.311 497.188C980.232 497.103 980.18 496.991 980.177 496.865C979.986 490.113 979.804 483.561 985.639 408.196C991.475 332.819 1002.98 192.831 1008.86 122.439C1011.79 87.2431 1013.32 69.4493 1014.15 60.3572C1014.56 55.8128 1014.79 53.4374 1014.94 52.1488C1015.09 50.8631 1015.15 50.6302 1015.23 50.3901Z" fill="black"/>
<path d="M1247.4 37.6747C1247.67 37.6357 1247.93 37.8251 1247.97 38.0982C1248.46 41.5308 1248.93 44.9791 1264.27 78.9113C1279.6 112.823 1309.74 177.021 1326.08 212.274C1334.25 229.893 1339.22 239.926 1342.15 245.55C1343.61 248.362 1344.56 250.069 1345.15 251.072C1345.31 251.359 1345.45 251.589 1345.56 251.769C1345.82 251.418 1346.21 250.892 1346.72 250.167C1347.8 248.638 1349.44 246.225 1351.68 242.694C1356.17 235.632 1363.08 224.1 1372.74 206.233C1389.89 174.511 1423.12 115.88 1441.65 83.3322C1460.18 50.7765 1463.31 46.2427 1465.61 42.4489C1467.92 38.6641 1469.3 35.7805 1471.34 32.0991C1471.47 31.858 1471.78 31.7707 1472.02 31.9042C1472.26 32.0382 1472.35 32.3429 1472.21 32.5843C1470.21 36.2054 1468.78 39.1659 1466.47 42.9681C1464.16 46.7615 1461.05 51.2845 1442.52 83.8264C1423.99 116.376 1390.76 174.998 1373.61 206.708C1363.95 224.591 1357.03 236.145 1352.52 243.231C1350.27 246.773 1348.62 249.2 1347.54 250.742C1346.99 251.514 1346.59 252.064 1346.32 252.423C1346.2 252.581 1346.11 252.701 1346.05 252.787C1346.06 252.785 1346.08 252.781 1346.1 252.78C1346.38 252.769 1346.61 252.984 1346.62 253.259C1346.84 258.562 1347.27 264.622 1348.68 281.609L1348.68 281.611C1349.75 295.269 1351.57 319.151 1352.93 360.886C1354.28 402.613 1355.13 461.479 1356.59 522.085C1356.6 522.361 1356.38 522.59 1356.1 522.597C1355.83 522.603 1355.6 522.384 1355.59 522.108C1354.13 461.485 1353.28 402.641 1351.93 360.918C1350.57 319.204 1348.76 295.34 1347.68 281.692L1347.2 275.814C1346.17 263.22 1345.81 257.978 1345.62 253.323L1345.51 253.466L1345.12 252.935L1345.12 252.934L1345.12 252.932C1345.12 252.931 1345.12 252.929 1345.12 252.928C1345.11 252.924 1345.11 252.919 1345.11 252.913C1345.1 252.9 1345.08 252.882 1345.07 252.858C1345.03 252.809 1344.99 252.735 1344.92 252.63C1344.79 252.42 1344.58 252.085 1344.28 251.575C1343.69 250.555 1342.73 248.833 1341.26 246.011C1338.32 240.368 1333.34 230.321 1325.17 212.694C1308.83 177.451 1278.69 113.241 1263.35 79.3239C1248.03 45.4297 1247.49 41.842 1246.98 38.2403C1246.94 37.9671 1247.13 37.7139 1247.4 37.6747Z" fill="black"/>
<path d="M122.657 9.2165C131.463 6.10495 146.446 6.05049 182.935 14.2578C212.569 20.923 229.44 27.9852 239.913 34.5557C250.398 41.1335 254.458 47.2172 258.43 51.7823C262.376 56.3195 264.926 64.3683 266.738 75.5671C268.554 86.7919 269.643 101.288 270.595 118.816C271.29 131.589 265.8 142.699 260.129 153.859C251.613 170.618 233.895 184.836 214.869 196.091C195.828 207.356 175.404 215.697 161.385 220.678C146.532 225.954 126.55 229.391 111.188 232.366C96.9272 235.127 86.2971 236.133 75.5786 236.624C75.2543 238.082 74.9285 239.538 74.604 240.992C86.4469 248.381 100.663 255.793 114.073 262.675C131.019 271.372 146.712 279.243 154.563 285.132C157.098 287.033 160.707 290.673 165.236 295.753C169.774 300.843 175.259 307.406 181.55 315.179C190.987 326.838 202.244 341.23 214.849 357.468L227.887 374.289L227.899 374.306C240.465 392.016 258.502 419.288 284.686 458.4L296.416 475.893L296.417 475.896C309.25 495.284 314.486 503.919 321.198 515.183C321.339 515.42 321.261 515.727 321.024 515.868C320.787 516.009 320.479 515.932 320.338 515.695C313.633 504.443 308.407 495.821 295.583 476.448L295.583 476.447C262.925 427.815 241.434 395.11 227.083 374.885L227.082 374.885C209.151 351.727 193.343 331.34 180.773 315.808C174.486 308.04 169.012 301.491 164.49 296.419C159.96 291.338 156.409 287.767 153.962 285.932C146.199 280.109 130.616 272.29 113.617 263.566C100.331 256.748 86.2045 249.386 74.3725 242.029C74.2775 242.454 74.1842 242.879 74.0891 243.304C68.1464 269.862 65.5966 283.56 60.4984 307.491C56.1191 328.047 46.5738 365.34 39.6238 393.578C32.6707 421.828 28.2051 439.831 25.6048 450.476C23.0078 461.107 22.4143 463.822 21.4827 473.353C21.4557 473.628 21.2113 473.829 20.9367 473.802C20.6622 473.775 20.4605 473.531 20.4872 473.256C21.4249 463.661 22.0299 460.896 24.6334 450.238C27.2338 439.593 31.701 421.587 38.6532 393.34C45.6085 365.08 55.1445 327.818 59.5194 307.282C64.6123 283.377 67.1693 269.646 73.1126 243.086C73.2334 242.546 73.3528 242.006 73.4735 241.465C70.5268 239.614 67.729 237.766 65.1329 235.926C65.103 235.904 65.0578 235.87 65.015 235.823C64.9913 235.798 64.8683 235.666 64.8696 235.457C64.8716 235.166 65.089 235.028 65.183 234.987C65.2714 234.949 65.3541 234.942 65.3881 234.94C65.5228 234.931 65.714 234.959 65.8809 234.986C66.2462 235.046 66.8565 235.169 67.5406 235.29C68.9496 235.539 70.8338 235.815 72.5436 235.751C73.2868 235.723 74.0282 235.692 74.7683 235.66C82.9858 198.683 91.0528 160.556 96.6604 133.5C103.723 99.4243 114.023 28.9067 115.992 10.6893C116.022 10.4151 116.269 10.217 116.543 10.2464C116.817 10.276 117.016 10.5229 116.987 10.7975C115.015 29.042 104.709 99.5907 97.6392 133.703C92.0444 160.697 84.0017 198.711 75.8033 235.612C86.3914 235.118 96.9134 234.111 110.998 231.384C126.407 228.4 146.288 224.98 161.05 219.736C175.034 214.767 195.394 206.451 214.36 195.23C233.341 184.001 250.855 169.905 259.238 153.406C264.925 142.214 270.275 131.336 269.598 118.87C268.645 101.343 267.558 86.8934 265.751 75.7264C263.94 64.5332 261.419 56.7428 257.675 52.4386C253.659 47.8221 249.71 41.8821 239.381 35.4025C229.04 28.9154 212.291 21.8854 182.716 15.2334C146.204 7.02108 131.491 7.15515 122.991 10.1587C122.73 10.2504 122.444 10.114 122.352 9.85375C122.261 9.59361 122.397 9.30863 122.657 9.2165ZM67.3861 236.277C69.3917 237.657 71.5055 239.042 73.705 240.429C73.9842 239.178 74.2636 237.925 74.5426 236.671C73.89 236.699 73.2362 236.726 72.5813 236.75C70.7672 236.819 68.8048 236.528 67.3861 236.277Z" fill="black"/>
</svg>
