<svg width="1473" height="518" viewBox="0 0 1473 518" fill="none" xmlns="http://www.w3.org/2000/svg">
<path d="M380.938 45.0857C381.489 45.0507 381.964 45.4692 381.999 46.0203C382.817 58.8035 383.634 71.5908 384.594 99.3543C385.553 127.116 386.63 169.466 386.608 227.751C386.587 286.025 385.434 358.969 385.113 404.789C384.793 450.611 385.338 467.123 386.983 490.303C387.023 490.854 386.608 491.333 386.057 491.372C385.506 491.411 385.028 490.996 384.988 490.445C383.338 467.193 382.792 450.625 383.113 404.775C383.434 358.922 384.587 286.02 384.608 227.75L384.6 217.012C384.496 164.257 383.494 125.431 382.595 99.4236C381.636 71.6852 380.82 58.9178 380.003 46.1472C379.968 45.5963 380.387 45.1211 380.938 45.0857ZM632.957 440.659C633.501 440.567 634.017 440.934 634.109 441.478C634.201 442.023 633.835 442.54 633.29 442.632C548.893 456.903 468.753 470.156 428.581 476.782C408.496 480.095 398.402 481.752 393.304 482.581C390.757 482.995 389.453 483.202 388.774 483.306C388.134 483.405 387.992 483.422 387.847 483.422C387.295 483.422 386.847 482.974 386.847 482.422C386.847 481.87 387.295 481.422 387.847 481.422C387.844 481.422 387.832 481.422 387.821 481.423C387.823 481.422 387.838 481.421 387.875 481.417C387.963 481.406 388.133 481.382 388.47 481.33C389.139 481.227 390.435 481.02 392.983 480.606C398.078 479.778 408.17 478.123 428.256 474.809C468.427 468.183 548.564 454.93 632.957 440.659ZM513.029 225.385C513.534 225.159 514.125 225.385 514.351 225.889C514.576 226.394 514.349 226.985 513.845 227.211C503.687 231.749 500.794 232.842 497.967 233.871L497.961 233.873C492.537 235.808 486.33 238.211 479.845 240.906L479.831 240.912C465.276 246.713 411.503 264.89 389.388 271.512C388.859 271.671 388.301 271.37 388.143 270.842C387.984 270.313 388.285 269.755 388.814 269.596C410.207 263.19 461.284 245.949 477.62 239.631L479.091 239.053C485.596 236.351 491.828 233.938 497.283 231.991C500.05 230.985 502.896 229.912 513.029 225.385ZM540.751 27.0691C541.291 26.9526 541.823 27.2959 541.94 27.8357C542.056 28.3754 541.714 28.9075 541.174 29.0242C533.406 30.7011 530.494 30.9638 523.409 31.863L523.41 31.864C505.352 34.2586 490.153 36.8138 479.427 38.8982L479.404 38.9031L479.382 38.906C450.693 43.1337 407.67 50.1295 389.971 55.6189C389.444 55.7821 388.883 55.4869 388.72 54.9597C388.556 54.4323 388.852 53.8714 389.379 53.7078C407.256 48.1634 450.439 41.1489 479.07 36.9295C489.838 34.8377 505.067 32.2781 523.148 29.8806H523.153C530.251 28.9797 533.079 28.7253 540.751 27.0691Z" fill="black"/>
<path d="M764.22 11.0946C766.219 11.3082 775.912 12.9863 788.122 15.1141C800.367 17.2481 815.21 19.8461 827.575 21.9169C833.882 22.9731 839.817 27.0156 845.57 32.4882C851.333 37.9705 857.031 45.007 862.832 52.2147C873.07 64.9368 877.657 84.0551 881.1 103.452C885.867 130.298 871.976 158.336 859.928 179.219L859.843 179.364L859.715 179.475C851.362 186.696 837.374 193.305 820.361 199.033C803.319 204.771 783.136 209.66 762.302 213.394L762.29 213.397L762.278 213.398C755.006 214.525 749.113 215.25 743.96 215.792C740.757 237.334 739.059 244.66 735.571 272.222C731.934 300.955 726.415 351.422 723.571 380.191C720.267 422.96 719.33 444.822 718.317 464.121V464.129C718.031 468.875 717.824 475.324 716.994 482.557C716.931 483.105 716.435 483.498 715.886 483.435C715.338 483.372 714.945 482.877 715.008 482.328C715.83 475.167 716.03 468.821 716.32 464.009C717.332 444.713 718.272 422.822 721.579 380.016L721.581 379.995C724.426 351.213 729.948 300.726 733.588 271.97C737.049 244.625 738.766 237.064 741.907 216.002C735.739 216.617 730.58 216.992 725.202 217.531C724.653 217.586 724.162 217.186 724.107 216.637C724.052 216.087 724.453 215.597 725.003 215.542C730.572 214.984 735.851 214.604 742.21 213.962C742.273 213.531 742.339 213.094 742.404 212.651C745.874 188.917 750.958 149.45 753.753 114.998C756.547 80.5522 757.04 51.9746 757.533 23.368C757.543 22.816 757.998 22.3761 758.551 22.3856C759.103 22.3954 759.542 22.8511 759.533 23.4032C759.04 52.0081 758.546 80.6429 755.746 115.159C752.946 149.669 747.857 189.181 744.383 212.94C744.343 213.212 744.302 213.481 744.262 213.749C749.261 213.216 754.962 212.507 761.959 211.424C782.72 207.702 802.801 202.836 819.723 197.138C836.591 191.458 850.217 184.984 858.281 178.067C870.331 157.161 883.745 129.786 879.132 103.802C875.681 84.364 871.149 65.7406 861.273 53.4686C855.454 46.238 849.841 39.3112 844.192 33.9374C838.533 28.554 832.957 24.8461 827.245 23.8895C814.871 21.8174 800.02 19.2172 787.779 17.0839C775.504 14.9447 765.918 13.287 764.007 13.0829C763.458 13.0242 763.06 12.5313 763.119 11.9823C763.178 11.4333 763.67 11.036 764.22 11.0946Z" fill="black"/>
<path d="M1010.67 42.6089C1010.85 42.0856 1011.42 41.8031 1011.94 41.9791C1012.46 42.1551 1012.75 42.7223 1012.57 43.2457C1012.54 43.3464 1012.48 43.4631 1012.3 44.731C1012.12 45.9947 1011.82 48.3458 1011.28 52.8775C1010.2 61.9367 1008.17 79.6756 1004.24 114.775C996.376 184.973 980.92 324.576 972.958 399.752C965.39 471.208 965.02 480.603 965.002 487.074C971.802 487.072 1012.38 487.054 1072.56 486.816C1107.28 486.679 1120.98 484.479 1143.29 483.359C1158.37 481.612 1171.39 480.409 1183.25 480.279C1190.47 480.15 1200.2 479.89 1210.23 479.624C1210.79 479.609 1211.25 480.045 1211.26 480.597C1211.27 481.149 1210.84 481.609 1210.29 481.624C1200.26 481.89 1190.52 482.148 1183.28 482.278H1183.28C1171.51 482.407 1158.56 483.603 1143.49 485.35L1143.45 485.354L1143.42 485.355C1121.26 486.467 1107.35 488.679 1072.57 488.816C1007.08 489.075 964.802 489.075 964.001 489.075C963.449 489.075 963.001 488.627 963.001 488.075C963.001 481.288 963.008 474.704 970.969 399.543C978.932 324.359 994.388 184.751 1002.25 114.552C1006.18 79.4537 1008.21 61.7083 1009.29 52.6412C1009.83 48.1102 1010.13 45.7373 1010.32 44.4468C1010.5 43.1615 1010.58 42.8926 1010.67 42.6089Z" fill="black"/>
<path d="M1246.9 27.0051C1247.45 26.9497 1247.94 27.3504 1248 27.8996C1248.34 31.2641 1248.63 34.6597 1262.58 69.2073C1276.51 103.713 1304.01 169.081 1318.9 204.976C1326.34 222.911 1330.89 233.13 1333.58 238.86C1334.93 241.723 1335.81 243.461 1336.34 244.478C1336.35 244.493 1336.36 244.509 1336.37 244.525C1336.58 244.258 1336.83 243.94 1337.11 243.568C1338.25 242.092 1339.98 239.754 1342.36 236.323C1347.13 229.462 1354.49 218.231 1364.87 200.781C1383.3 169.78 1418.91 112.549 1438.75 80.7864C1458.6 49.0078 1461.91 44.6002 1464.37 40.9036C1466.82 37.2244 1468.29 34.4381 1470.5 30.8137C1470.79 30.3421 1471.41 30.1923 1471.88 30.4797C1472.35 30.7672 1472.5 31.3832 1472.21 31.8547C1470.07 35.3613 1468.51 38.2988 1466.03 42.012C1463.57 45.7077 1460.28 50.0942 1440.45 81.8459C1420.6 113.614 1385.01 170.825 1366.59 201.804C1356.19 219.285 1348.8 230.557 1344.01 237.464C1341.61 240.918 1339.86 243.281 1338.7 244.785C1338.2 245.444 1337.8 245.936 1337.52 246.284C1337.68 246.462 1337.79 246.698 1337.79 246.958C1337.79 251.591 1337.93 256.812 1338.44 269.455L1338.68 275.348V275.352C1339.2 289.048 1340.04 312.991 1339.69 354.756C1339.35 396.506 1337.79 455.368 1336.77 515.975C1336.76 516.527 1336.31 516.967 1335.76 516.958C1335.21 516.949 1334.76 516.494 1334.77 515.942C1335.79 455.301 1337.35 396.482 1337.69 354.739C1338.04 313.016 1337.2 289.106 1336.69 275.431C1336 258.932 1335.8 252.689 1335.79 247.455L1335.39 246.85L1335.89 246.514L1335.89 246.513L1335.38 246.849V246.848C1335.38 246.847 1335.38 246.846 1335.38 246.845C1335.38 246.843 1335.38 246.841 1335.38 246.838C1335.37 246.833 1335.37 246.826 1335.37 246.819C1335.36 246.803 1335.34 246.783 1335.33 246.756C1335.29 246.702 1335.24 246.622 1335.18 246.511C1335.05 246.289 1334.85 245.94 1334.58 245.414C1334.02 244.362 1333.13 242.594 1331.77 239.71C1329.06 233.943 1324.5 223.692 1317.05 205.742C1302.17 169.868 1274.66 104.474 1260.73 69.9563C1246.81 35.4833 1246.38 31.8056 1246.01 28.1008C1245.95 27.5515 1246.35 27.0609 1246.9 27.0051Z" fill="black"/>
<path d="M123.072 1.41395C132.162 -1.34984 147.266 -0.691565 183.343 9.12782C212.679 17.1125 229.279 24.9371 239.514 32.0116C249.772 39.1019 253.61 45.4349 257.353 50.1454C261.19 54.9746 263.387 63.2576 264.7 74.5282C266.018 85.8519 266.461 100.407 266.633 117.96C266.76 130.905 260.706 141.873 254.554 152.753C245.229 169.244 226.791 182.714 207.26 193.125C187.699 203.552 166.89 210.988 152.646 215.346C137.527 219.971 117.361 222.52 101.906 224.805C87.6782 226.908 77.0722 227.454 66.4515 227.479C66.1266 228.684 65.8009 229.888 65.4759 231.09C76.897 238.917 90.6285 246.873 103.615 254.285C120.129 263.711 135.511 272.301 143.134 278.568C145.625 280.616 149.096 284.448 153.395 289.725C157.709 295.02 162.902 301.828 168.843 309.875C177.755 321.946 188.364 336.828 200.235 353.612L212.51 370.997L212.522 371.014L212.534 371.031C224.303 389.289 241.115 417.346 265.533 457.581L276.47 475.577L276.474 475.583H276.473C288.436 495.53 293.286 504.396 299.493 515.953C299.755 516.439 299.572 517.046 299.085 517.308C298.599 517.569 297.992 517.386 297.731 516.899C291.537 505.366 286.703 496.527 274.758 476.611V476.61C244.297 426.575 224.292 392.963 210.86 372.126C193.977 348.194 179.096 327.131 167.234 311.062C161.301 303.025 156.129 296.246 151.844 290.987C147.545 285.71 144.183 282.02 141.864 280.113C134.41 273.986 119.244 265.508 102.623 256.021C89.8788 248.747 76.3212 240.899 64.9232 233.136C64.8705 233.33 64.8186 233.524 64.766 233.719C57.648 259.985 54.4953 273.54 48.3343 297.232C43.0423 317.583 31.844 354.431 23.6478 382.321C15.4445 410.236 10.1828 428.019 7.11166 438.537C4.04796 449.029 3.34064 451.691 1.99056 461.14C1.91243 461.686 1.40531 462.066 0.858727 461.988C0.312275 461.91 -0.0676638 461.404 0.0100937 460.857C1.3783 451.282 2.11272 448.521 5.19173 437.976C8.26334 427.457 13.5273 409.665 21.7288 381.757C29.9375 353.824 41.1172 317.04 46.3988 296.729C52.5469 273.086 55.7159 259.467 62.8353 233.195C62.9491 232.775 63.0613 232.355 63.1751 231.934C60.4129 230.017 57.7919 228.106 55.3577 226.213C55.3172 226.181 55.2416 226.12 55.1683 226.033C55.1316 225.99 54.9013 225.724 54.9222 225.313C54.9517 224.737 55.3965 224.484 55.5785 224.415C55.7505 224.349 55.9026 224.346 55.9535 224.345C56.1567 224.341 56.4064 224.392 56.556 224.424C56.9171 224.5 57.5512 224.655 58.2064 224.802C59.5974 225.112 61.4236 225.462 63.0785 225.474C63.6929 225.478 64.306 225.479 64.9183 225.48C74.7378 189.024 84.4505 151.462 91.2327 124.773C99.7993 91.0638 113.223 21.0909 115.998 2.99208C116.082 2.44618 116.593 2.07145 117.139 2.15517C117.684 2.23916 118.059 2.74921 117.976 3.29481C115.192 21.4462 101.756 91.4847 93.1712 125.266C86.4199 151.833 76.7652 189.174 66.9906 225.478C77.3523 225.435 87.7409 224.877 101.613 222.826C117.164 220.527 137.127 218.001 152.061 213.433C166.235 209.097 186.911 201.705 206.319 191.36C225.758 180.999 243.776 167.751 252.813 151.768C259.001 140.825 264.755 130.309 264.634 117.979C264.462 100.427 264.018 85.9669 262.713 74.7597C261.402 63.5004 259.24 55.7353 255.787 51.3895C251.96 46.5723 248.331 40.5364 238.376 33.6561C228.399 26.76 212.039 19.0108 182.818 11.0575C146.696 1.22586 132.123 0.751656 123.653 3.32704C123.124 3.48741 122.566 3.18917 122.406 2.66102C122.245 2.13269 122.543 1.57459 123.072 1.41395ZM59.9574 227.181C61.1785 228.078 62.438 228.979 63.7298 229.882C63.9461 229.081 64.1629 228.28 64.3792 227.478C63.9416 227.477 63.5035 227.477 63.0648 227.474C62.0259 227.466 60.9503 227.342 59.9574 227.181Z" fill="black"/>
</svg>
