<svg width="1486" height="526" viewBox="0 0 1486 526" fill="none" xmlns="http://www.w3.org/2000/svg">
<path d="M396.097 45.0663C396.373 45.0586 396.604 45.2762 396.611 45.552C396.967 58.3532 397.323 71.1574 397.279 98.9312C397.236 126.704 396.782 169.06 394.656 227.299C392.53 285.533 388.745 358.378 386.769 404.165C384.794 449.952 384.742 466.487 385.55 489.729C385.56 490.005 385.344 490.237 385.068 490.246C384.792 490.256 384.561 490.04 384.551 489.765C383.742 466.486 383.794 449.922 385.77 404.121C387.746 358.318 391.531 285.494 393.657 227.262L394.036 216.53C395.837 163.799 396.238 124.957 396.279 98.9293C396.322 71.1684 395.967 58.3751 395.612 45.5803C395.604 45.3046 395.822 45.0743 396.097 45.0663ZM633.721 449.478C633.995 449.441 634.246 449.635 634.282 449.908C634.318 450.182 634.126 450.433 633.852 450.469C548.996 461.684 468.431 472.034 428.046 477.206C407.854 479.792 397.707 481.083 392.583 481.727C390.022 482.049 388.714 482.208 388.033 482.288C387.373 482.365 387.277 482.37 387.179 482.366C386.904 482.356 386.688 482.124 386.698 481.849C386.708 481.573 386.94 481.357 387.215 481.367C387.218 481.367 387.222 481.376 387.917 481.295C388.592 481.216 389.896 481.056 392.457 480.735C397.58 480.091 407.726 478.8 427.918 476.214C468.303 471.043 548.867 460.692 633.721 449.478ZM521.767 229.982C522.023 229.879 522.314 230.002 522.418 230.258C522.521 230.514 522.397 230.805 522.141 230.909C511.833 235.074 508.914 236.059 506.067 236.98L506.064 236.981C500.564 238.722 494.266 240.901 487.681 243.363L487.674 243.366C472.936 248.631 418.558 264.85 396.227 270.667C395.96 270.737 395.687 270.577 395.617 270.31C395.548 270.043 395.708 269.769 395.974 269.7C418.29 263.886 472.638 247.676 487.337 242.424C493.934 239.959 500.246 237.773 505.762 236.027C508.578 235.116 511.475 234.142 521.767 229.982ZM556.532 32.825C556.804 32.7765 557.064 32.9574 557.112 33.229C557.161 33.5007 556.98 33.7598 556.708 33.8086C548.907 35.1998 546.009 35.3572 538.891 36.0006L538.89 35.9996C520.75 37.7414 505.459 39.7487 494.655 41.4459L494.644 41.4475L494.632 41.449C465.824 44.6364 422.533 50.0764 404.601 54.9355C404.335 55.0075 404.06 54.8504 403.987 54.584C403.916 54.3177 404.073 54.0426 404.339 53.9703C422.361 49.0869 465.733 43.6401 494.513 40.4558C505.339 38.7555 520.645 36.7473 538.798 35.0044L538.801 35.0045C545.924 34.3607 548.78 34.2074 556.532 32.825Z" fill="black"/>
<path d="M766.569 16.2832C768.55 16.453 778.249 17.9242 790.517 19.7998C802.803 21.6781 817.7 23.9672 830.108 25.7802C836.286 26.6832 842.212 30.5194 848.054 35.8491C853.9 41.1837 859.722 48.0729 865.677 55.164C876.084 67.5594 881.052 86.455 884.901 105.786C890.186 132.328 876.979 160.498 865.362 181.638L865.322 181.712L865.259 181.768C857.133 189.094 843.362 195.967 826.487 202.043C809.597 208.125 789.544 213.428 768.809 217.592L768.797 217.594C761.377 218.902 755.398 219.759 750.173 220.413C747.393 242.291 745.842 249.608 742.911 277.399C739.873 306.208 735.405 356.784 733.161 385.61C730.748 428.452 730.266 450.337 729.656 469.653L729.656 469.657C729.468 474.425 729.397 480.851 728.719 488.081C728.693 488.356 728.449 488.558 728.175 488.533C727.9 488.507 727.698 488.263 727.723 487.989C728.397 480.794 728.467 474.419 728.656 469.617C729.266 450.303 729.749 428.403 732.163 385.543L732.164 385.532C734.409 356.7 738.878 306.115 741.917 277.295C744.836 249.61 746.394 242.173 749.148 220.539C742.719 221.326 737.403 221.819 731.843 222.494C731.569 222.527 731.32 222.332 731.287 222.058C731.253 221.784 731.448 221.534 731.722 221.501C737.379 220.814 742.753 220.319 749.279 219.516C749.349 218.958 749.423 218.391 749.495 217.814C752.471 194.007 756.733 154.431 758.811 119.914C760.888 85.3994 760.786 56.8037 760.683 28.1935C760.682 27.9175 760.905 27.6928 761.181 27.6918C761.457 27.691 761.682 27.9142 761.683 28.1903C761.786 56.7998 761.889 85.4243 759.809 119.974C757.73 154.52 753.466 194.118 750.488 217.938C750.427 218.429 750.364 218.911 750.303 219.388C755.452 218.74 761.335 217.893 768.618 216.609C789.316 212.452 809.317 207.162 826.148 201.102C842.951 195.052 856.542 188.252 864.526 181.081C876.144 159.929 889.12 132.095 883.921 105.982C880.068 86.6301 875.133 67.9812 864.911 55.807C858.947 48.7047 853.168 41.8695 847.379 36.5879C841.586 31.3018 835.842 27.629 829.962 26.7698C817.55 24.9562 802.651 22.6665 790.367 20.7885C778.068 18.9081 768.423 17.4456 766.484 17.2793C766.209 17.2557 766.005 17.0139 766.028 16.7389C766.052 16.4638 766.294 16.2597 766.569 16.2832Z" fill="black"/>
<path d="M1012.65 48.7572C1012.74 48.4935 1013.02 48.3452 1013.28 48.4263C1013.54 48.5075 1013.69 48.787 1013.61 49.0507C1013.56 49.1984 1013.51 49.3546 1013.36 50.631C1013.21 51.9057 1012.97 54.27 1012.55 58.8142C1011.71 67.9005 1010.14 85.6879 1007.13 120.877C1001.1 191.257 989.303 331.217 983.309 406.578C977.463 480.07 977.482 488.077 977.648 494.63C982.638 494.499 1023.79 493.41 1085.67 491.548C1120.39 490.503 1134.08 487.94 1156.32 486.24C1171.35 484.099 1184.32 482.558 1196.15 482.119C1203.37 481.801 1213.1 481.288 1223.12 480.759C1223.39 480.745 1223.63 480.957 1223.64 481.232C1223.66 481.508 1223.44 481.744 1223.17 481.758C1213.15 482.287 1203.42 482.8 1196.19 483.118L1196.19 483.118C1184.41 483.555 1171.48 485.092 1156.44 487.234L1156.43 487.236L1156.41 487.237C1134.25 488.931 1120.45 491.501 1085.7 492.547C1020.24 494.518 977.975 495.623 977.175 495.644C977.037 495.647 976.91 495.595 976.818 495.507C976.794 495.485 976.773 495.461 976.754 495.435C976.698 495.357 976.665 495.261 976.662 495.157C976.485 488.405 976.318 481.851 982.311 406.5C988.306 331.136 1000.11 191.172 1006.13 120.792C1009.14 85.6031 1010.71 67.8124 1011.55 58.722C1011.97 54.1787 1012.21 51.8036 1012.37 50.5153C1012.52 49.2302 1012.58 48.9971 1012.65 48.7572Z" fill="black"/>
<path d="M1260.93 28.4561C1261.21 28.4357 1261.45 28.642 1261.47 28.9171C1261.72 32.375 1261.96 35.8472 1274.96 70.7416C1287.95 105.615 1313.67 171.71 1327.58 207.99C1334.54 226.122 1338.82 236.469 1341.36 242.279C1342.63 245.183 1343.46 246.952 1343.98 247.992C1344.12 248.29 1344.24 248.528 1344.34 248.716C1344.63 248.383 1345.05 247.884 1345.61 247.195C1346.78 245.744 1348.58 243.447 1351.06 240.077C1356.02 233.335 1363.69 222.298 1374.54 205.128C1393.81 174.642 1430.94 118.4 1451.64 87.1844C1472.34 55.9609 1475.76 51.6492 1478.32 48.0206C1480.87 44.4008 1482.44 41.6174 1484.73 38.0831C1484.88 37.8518 1485.19 37.7854 1485.42 37.9347C1485.65 38.0847 1485.72 38.3947 1485.57 38.6265C1483.32 42.103 1481.7 44.9601 1479.13 48.5967C1476.57 52.2248 1473.16 56.5262 1452.47 87.7365C1431.78 118.955 1394.64 175.187 1375.39 205.662C1364.53 222.848 1356.84 233.905 1351.87 240.669C1349.38 244.051 1347.57 246.36 1346.38 247.825C1345.79 248.558 1345.35 249.08 1345.06 249.42C1344.93 249.569 1344.83 249.683 1344.76 249.764C1344.77 249.763 1344.79 249.76 1344.81 249.761C1345.09 249.768 1345.3 249.998 1345.3 250.274C1345.15 255.579 1345.18 261.655 1345.43 278.698L1345.43 278.7C1345.57 292.4 1345.76 316.349 1344.29 358.08C1342.81 399.804 1339.67 458.592 1337.01 519.157C1337 519.433 1336.76 519.647 1336.49 519.634C1336.21 519.622 1336 519.388 1336.01 519.113C1338.67 458.53 1341.81 399.764 1343.29 358.044C1344.76 316.335 1344.57 292.403 1344.43 278.713L1344.35 272.816C1344.18 260.182 1344.17 254.928 1344.3 250.27L1344.17 250.405L1343.82 249.848L1343.82 249.847L1343.82 249.845C1343.82 249.844 1343.82 249.843 1343.82 249.841C1343.82 249.838 1343.81 249.832 1343.81 249.826C1343.8 249.812 1343.79 249.793 1343.78 249.768C1343.75 249.717 1343.7 249.64 1343.64 249.531C1343.52 249.313 1343.34 248.964 1343.08 248.435C1342.56 247.377 1341.71 245.593 1340.44 242.679C1337.89 236.85 1333.61 226.488 1326.65 208.347C1312.74 172.078 1287.02 105.97 1274.02 71.0914C1261.03 36.2361 1260.74 32.62 1260.47 28.9917C1260.45 28.7167 1260.66 28.4769 1260.93 28.4561Z" fill="black"/>
<path d="M122.702 6.75151C131.551 3.76375 146.533 3.91938 182.904 12.6376C212.441 19.7178 229.211 27.0159 239.591 33.7326C249.983 40.4568 253.958 46.5969 257.864 51.2172C261.747 55.8093 264.184 63.893 265.838 75.1162C267.497 86.3653 268.382 100.876 269.089 118.415C269.604 131.197 263.958 142.229 258.132 153.307C249.382 169.946 231.467 183.914 212.285 194.901C193.087 205.898 172.548 213.951 158.46 218.735C143.535 223.803 123.507 226.959 108.105 229.718C93.8065 232.279 83.1633 233.136 72.439 233.476C72.0943 234.93 71.7482 236.381 71.4033 237.83C83.1414 245.385 97.2524 252.996 110.565 260.065C127.386 268.998 142.968 277.089 150.735 283.087C153.243 285.024 156.801 288.714 161.259 293.857C165.724 299.01 171.117 305.649 177.298 313.51C186.571 325.3 197.625 339.848 210.001 356.262L222.801 373.264L222.814 373.281C235.13 391.166 252.782 418.688 278.416 458.163L289.899 475.819L289.9 475.822C302.46 495.388 307.575 504.096 314.128 515.453C314.265 515.692 314.183 515.997 313.944 516.135C313.705 516.273 313.399 516.191 313.261 515.952C306.714 504.607 301.609 495.913 289.059 476.363L289.059 476.362C257.086 427.276 236.056 394.273 221.99 373.849L221.989 373.849C204.384 350.441 188.864 329.834 176.512 314.128C170.335 306.272 164.953 299.648 160.503 294.513C156.045 289.369 152.544 285.748 150.123 283.879C142.443 277.947 126.971 269.911 110.095 260.949C96.9073 253.945 82.8849 246.387 71.1573 238.863C71.0563 239.287 70.957 239.712 70.8561 240.135C64.5415 266.607 61.7998 280.268 56.3665 304.125C51.6993 324.617 41.632 361.773 34.2866 389.911C26.9381 418.061 22.2205 435.999 19.4711 446.606C16.7253 457.2 16.0937 459.907 15.0286 469.424C14.9977 469.698 14.7505 469.895 14.4764 469.865C14.2022 469.834 14.0041 469.587 14.0345 469.313C15.1067 459.732 15.7504 456.975 18.5031 446.355C21.2526 435.748 25.9718 417.805 33.3195 389.659C40.6704 361.5 50.728 324.375 55.3905 303.902C60.8181 280.071 63.5675 266.378 69.8827 239.903C70.011 239.365 70.138 238.826 70.2663 238.288C67.3457 236.396 64.5743 234.508 62.0042 232.632C61.9746 232.61 61.9299 232.575 61.8877 232.528C61.8648 232.502 61.7433 232.369 61.7475 232.16C61.7535 231.869 61.9729 231.733 62.0674 231.694C62.1565 231.657 62.2392 231.651 62.2732 231.649C62.408 231.643 62.5987 231.673 62.7653 231.703C63.1297 231.768 63.7381 231.899 64.4205 232.029C65.8259 232.299 67.706 232.601 69.4166 232.561C70.1601 232.544 70.9018 232.523 71.6424 232.501C80.3776 195.643 88.9785 157.633 94.965 130.658C102.505 96.685 113.792 26.3189 116.017 8.13067C116.05 7.85686 116.3 7.66223 116.574 7.69552C116.848 7.72904 117.044 7.9787 117.01 8.2528C114.782 26.4681 103.488 96.8653 95.9408 130.875C89.968 157.788 81.393 195.686 72.678 232.468C83.2719 232.123 93.807 231.263 107.928 228.733C123.378 225.966 143.305 222.825 158.139 217.788C172.191 213.017 192.666 204.986 211.787 194.033C230.924 183.071 248.633 169.222 257.248 152.842C263.091 141.731 268.593 130.929 268.091 118.455C267.384 100.916 266.499 86.4529 264.849 75.2616C263.195 64.0441 260.784 56.2191 257.1 51.8628C253.15 47.1905 249.284 41.1957 239.047 34.5719C228.799 27.9404 212.15 20.6763 182.671 13.61C146.278 4.88648 131.564 4.81423 123.022 7.69826C122.761 7.78634 122.477 7.64583 122.389 7.38442C122.3 7.12297 122.441 6.83997 122.702 6.75151ZM64.2522 233.015C66.2383 234.423 68.3323 235.837 70.5123 237.254C70.809 236.008 71.1059 234.759 71.4024 233.509C70.7495 233.528 70.0955 233.545 69.4402 233.561C67.6254 233.604 65.6673 233.285 64.2522 233.015Z" fill="black"/>
</svg>
