<svg width="124" height="23" viewBox="0 0 124 23" fill="none" xmlns="http://www.w3.org/2000/svg">
<g clip-path="url(#clip0_1348_582)">
<path d="M8.86918 10.3896H8.6544C8.55975 10.3896 8.46752 10.3947 8.37773 10.4024C8.38865 10.3986 8.39714 10.3935 8.40806 10.3896H6.90823C4.45947 10.3896 2.86983 11.1255 1.60541 12.3286C0.334915 13.5367 0 15.2312 0 16.4521C0 19.7545 2.47667 22.0397 5.03222 22.4446C4.1828 21.901 3.76779 21.2046 3.61975 20.4789C2.7315 19.724 1.70977 18.5833 1.70977 16.6151C1.70977 15.1485 2.27281 13.6959 3.57849 12.7207C4.37938 12.1236 5.27612 11.8461 6.76747 11.8461H7.47734C7.75037 11.1968 8.2491 10.6748 8.86918 10.3896Z" fill="#FFCD2B"/>
<path d="M19.9686 0.0341797C20.818 0.577791 21.1384 1.27417 21.2864 1.99984C22.3494 2.83371 22.9804 3.91585 22.9804 5.75547C22.9804 7.22207 22.5193 8.57919 21.267 9.59512C20.5547 10.1731 19.7307 10.4634 18.4833 10.5079H17.5077C17.2796 11.1279 16.8488 11.6435 16.3003 11.9644H16.6085C16.6085 11.9644 16.5976 11.9694 16.5915 11.9707H17.8851C20.5486 11.9707 22.1116 11.1177 23.086 10.0407C24.2654 8.73706 24.6902 7.13805 24.6902 5.91842C24.6902 2.61602 22.5241 0.440297 19.9686 0.0341797Z" fill="#FFCD2B"/>
<path d="M16.566 2.09904C17.2371 1.56179 18.1459 1.29317 19.0172 1.29317C19.8217 1.29317 20.3617 1.49559 20.6796 1.65727C20.5474 0.745737 19.3218 0.00606894 18.3474 0.000976562C17.1667 0.000976562 16.1316 0.354897 15.395 0.934155C14.4291 1.69165 13.6015 2.83107 13.1404 4.72161L11.7522 10.392H10.3543C8.88117 10.392 8.09606 11.3977 7.98563 11.8484H11.4925L10.091 17.4933C9.7585 18.8415 9.12993 19.8078 8.50621 20.3412C7.85215 20.9001 6.76611 21.2056 5.89484 21.2056C5.02358 21.2056 4.74691 21.0822 4.39258 20.8988C4.52485 21.8104 5.75529 22.4927 6.73092 22.4991C7.91161 22.4991 8.94063 22.0866 9.6772 21.5086C10.6431 20.7511 11.4476 19.5875 11.91 17.725L13.3394 11.9681H14.6439C16.117 11.9681 16.9021 10.9623 17.0126 10.5116H13.6003L14.9642 4.91639C15.3695 3.31484 15.9775 2.5739 16.566 2.10158V2.09904Z" fill="#000002"/>
</g>
<path d="M35.4209 6.87731H32.2258V10.6087H31.332V3.00293H35.4209V3.80283H32.2436V6.09528H35.4209V6.87731Z" fill="#231F20"/>
<path d="M32.2799 10.6618H31.2744V2.94434H35.475V3.85596H32.2978V6.03669H35.475V6.93043H32.2799V10.6618ZM31.3861 10.5501H32.1682V6.81871H35.3633V6.14841H32.186V3.74424H35.3633V3.05605H31.3861V10.5501Z" fill="#231F20"/>
<path d="M41.6996 10.6087L39.3446 7.40014H38.4285V10.6087H37.4722V3.00293L40.2562 3.02527C41.0382 3.03421 41.6504 3.22637 42.0928 3.61068C42.5352 3.99499 42.7542 4.52677 42.7542 5.20154C42.7542 5.87632 42.5576 6.3634 42.1598 6.74771C41.7621 7.13202 41.2125 7.35099 40.5064 7.39121L42.9329 10.6087H41.6996ZM38.4329 6.4349H40.4081C40.8058 6.4349 41.1365 6.33659 41.3957 6.1355C41.6549 5.93441 41.7845 5.62607 41.7845 5.20154C41.7845 4.77701 41.6549 4.46419 41.3957 4.26757C41.1365 4.07095 40.8058 3.96817 40.4081 3.96817H38.4329V6.4349Z" fill="#231F20"/>
<path d="M43.0451 10.6617H41.6732L41.6553 10.6394L39.3181 7.45766H38.487V10.6662H37.4189V2.94873L40.261 2.97107C41.052 2.98001 41.6821 3.1811 42.1334 3.56987C42.5848 3.96312 42.8171 4.51277 42.8171 5.20542C42.8171 5.89807 42.6116 6.39858 42.2049 6.79182C41.8206 7.1672 41.2844 7.38616 40.6185 7.44425L43.0495 10.6707L43.0451 10.6617ZM41.7268 10.55H42.8216L40.3996 7.33701H40.5024C41.1905 7.29232 41.7357 7.07782 42.12 6.70245C42.5043 6.32707 42.701 5.82211 42.701 5.19649C42.701 4.53959 42.4865 4.01675 42.0575 3.64585C41.6285 3.27495 41.0207 3.07832 40.261 3.07385L37.5307 3.05598V10.55H38.3752V7.34147H39.3762L39.3941 7.36382L41.7313 10.5455L41.7268 10.55ZM40.404 6.48794H38.3752V3.9095H40.404C40.8107 3.9095 41.1548 4.01228 41.4229 4.21784C41.6955 4.42787 41.834 4.75856 41.834 5.19649C41.834 5.63443 41.6955 5.96511 41.4229 6.17514C41.1548 6.3807 40.8107 6.48348 40.404 6.48348V6.48794ZM38.487 6.37622H40.404C40.7884 6.37622 41.1056 6.27792 41.3559 6.09023C41.6017 5.90255 41.7223 5.60315 41.7223 5.20096C41.7223 4.79878 41.5972 4.4949 41.3559 4.31168C41.1056 4.11953 40.7839 4.02569 40.404 4.02569H38.487V6.3807V6.37622Z" fill="#231F20"/>
<path d="M49.1223 10.6087H44.9888V3.00293H49.1223V3.82517H45.9272V6.07741H49.1223V6.85943H45.9049V9.7909H49.1223V10.6131V10.6087Z" fill="#231F20"/>
<path d="M49.1759 10.6618H44.9307V2.94434H49.1759V3.87829H45.9808V6.01881H49.1759V6.91255H45.9585V9.73231H49.1759V10.6663V10.6618ZM45.0424 10.5501H49.0642V9.83955H45.8467V6.79636H49.0642V6.12606H45.8691V3.76212H49.0642V3.05159H45.0424V10.5456V10.5501Z" fill="#231F20"/>
<path d="M55.3074 10.6087H51.1738V3.00293H55.3074V3.82517H52.1123V6.07741H55.3074V6.85943H52.0899V9.7909H55.3074V10.6131V10.6087Z" fill="#231F20"/>
<path d="M55.3649 10.6618H51.1196V2.94434H55.3649V3.87829H52.1698V6.01881H55.3649V6.91255H52.1474V9.73231H55.3649V10.6663V10.6618ZM51.2313 10.5501H55.2532V9.83955H52.0357V6.79636H55.2532V6.12606H52.0581V3.76212H55.2532V3.05159H51.2313V10.5456V10.5501Z" fill="#231F20"/>
<path d="M68.3868 2.73438L68.3644 7.77955C68.3644 8.3158 68.2303 8.78947 67.9578 9.20953C67.6852 9.62959 67.3187 9.95134 66.854 10.1882C66.3892 10.4206 65.8753 10.5367 65.3123 10.5367C64.7492 10.5367 64.2398 10.4161 63.7795 10.1703C63.3192 9.92901 62.9573 9.59385 62.6936 9.17379C62.43 8.75373 62.2959 8.28899 62.2959 7.77955V2.73438H63.212V7.77955C63.212 8.15493 63.3058 8.49008 63.489 8.78501C63.6723 9.07995 63.927 9.30784 64.2487 9.47319C64.5705 9.63853 64.9235 9.71897 65.3078 9.71897C65.6921 9.71897 66.0362 9.62513 66.3669 9.44192C66.6976 9.2587 66.9568 9.01739 67.1534 8.71799C67.35 8.41858 67.4483 8.10577 67.4483 7.77955V2.73438H68.3823H68.3868Z" fill="#231F20"/>
<path d="M65.3126 10.5908C64.7451 10.5908 64.2178 10.4656 63.753 10.2199C63.2883 9.97409 62.9174 9.63 62.6493 9.20547C62.3811 8.77648 62.2471 8.29832 62.2471 7.78441V2.68115H63.2749V7.78441C63.2749 8.15085 63.3642 8.47706 63.543 8.76306C63.7217 9.04906 63.972 9.2725 64.2803 9.43337C64.5931 9.59424 64.9417 9.67468 65.3126 9.67468C65.6835 9.67468 66.0231 9.58532 66.3449 9.4021C66.6666 9.22335 66.9213 8.9865 67.1135 8.69603C67.3012 8.41004 67.3995 8.10169 67.3995 7.78441V2.68115H68.4452L68.4228 7.78441C68.4228 8.32513 68.2843 8.81669 68.0072 9.24122C67.7302 9.66575 67.3548 10.0009 66.8811 10.2377C66.4074 10.4746 65.8801 10.5908 65.3126 10.5908ZM62.3588 2.7884V7.77995C62.3588 8.27598 62.4884 8.73178 62.7476 9.14291C63.0068 9.55403 63.3642 9.88471 63.8111 10.1216C64.258 10.3584 64.7674 10.479 65.3171 10.479C65.8667 10.479 66.3762 10.3629 66.832 10.135C67.2878 9.90706 67.6497 9.58532 67.9134 9.17866C68.1771 8.77201 68.3111 8.30279 68.3111 7.77995L68.3335 2.7884H67.5112V7.77995C67.5112 8.11958 67.4084 8.44578 67.2073 8.74966C67.0062 9.05353 66.7381 9.30378 66.403 9.49146C66.0678 9.67915 65.7014 9.77747 65.3171 9.77747C64.9328 9.77747 64.5619 9.69256 64.2312 9.52275C63.9005 9.35294 63.6368 9.1161 63.4492 8.81223C63.2615 8.50835 63.1632 8.15979 63.1632 7.77548V2.78394H62.3588V2.7884Z" fill="#231F20"/>
<path d="M77.0293 10.5012H76.846L71.2959 4.39693V10.3358H70.4424V2.54688H70.6569L76.1579 8.65114V2.73009H77.0293V10.5012Z" fill="#231F20"/>
<path d="M77.0882 10.5591H76.8246L76.8067 10.5412L71.3549 4.54422V10.3982H70.3896V2.49756H70.6846L70.7025 2.51544L76.1051 8.51244V2.68078H77.0882V10.5636V10.5591ZM76.8737 10.4474H76.9765V2.78802H76.2168V8.79844L76.1185 8.69119L70.6354 2.6048H70.5014V10.2821H71.2432V4.25376L76.8737 10.4474Z" fill="#231F20"/>
<path d="M79.9831 10.3401H79.0894V2.73438H79.9831V10.3401Z" fill="#231F20"/>
<path d="M80.0367 10.3937H79.0312V2.67627H80.0367V10.3937ZM79.143 10.282H79.925V2.78799H79.143V10.282Z" fill="#231F20"/>
<path d="M87.955 2.73438L84.7912 10.577H84.5141L81.3682 2.73438H82.4183L84.6884 8.97269L86.9406 2.73438H87.9595H87.955Z" fill="#231F20"/>
<path d="M84.8274 10.6306H84.4744L84.4609 10.5948L81.2837 2.67627H82.4545L82.4679 2.71203L84.6844 8.80734L86.8964 2.67627H88.0359L84.8274 10.6306ZM84.5503 10.5189H84.7514L87.8706 2.78799H86.9768L84.6888 9.13356L82.3785 2.78799H81.4535L84.5548 10.5189H84.5503Z" fill="#231F20"/>
<path d="M93.4788 10.3401H89.3452V2.73438H93.4788V3.55662H90.2836V5.80885H93.4788V6.59088H90.2613V9.51788H93.4788V10.3401Z" fill="#231F20"/>
<path d="M93.5319 10.3937H89.2866V2.67627H93.5319V3.61023H90.3368V5.75075H93.5319V6.64449H90.3144V9.45977H93.5319V10.3937ZM89.3983 10.282H93.4202V9.57149H90.2027V6.53277H93.4202V5.86246H90.225V3.49851H93.4202V2.78799H89.3983V10.282Z" fill="#231F20"/>
<path d="M99.4491 10.3401L97.0941 7.13159H96.178V10.3401H95.2217V2.73438L98.0057 2.75671C98.7877 2.76565 99.3999 2.95782 99.8423 3.34213C100.285 3.72644 100.504 4.2582 100.504 4.93745C100.504 5.61669 100.307 6.09485 99.9094 6.48363C99.5116 6.87241 98.962 7.08689 98.2559 7.12711L100.682 10.3446H99.4491V10.3401ZM96.178 6.16634H98.1532C98.5509 6.16634 98.8816 6.06804 99.1407 5.86695C99.3999 5.66585 99.5295 5.35751 99.5295 4.93299C99.5295 4.50846 99.3999 4.19564 99.1407 3.99901C98.8816 3.79792 98.5509 3.69962 98.1532 3.69962H96.178V6.16634Z" fill="#231F20"/>
<path d="M100.794 10.3942H99.4217L99.4038 10.3718L97.0667 7.19008H96.2355V10.3986H95.1675V2.68115L98.0096 2.70349C98.8005 2.71243 99.4306 2.91352 99.882 3.3023C100.333 3.69554 100.566 4.2452 100.566 4.93785C100.566 5.59475 100.36 6.12653 99.9535 6.52425C99.5692 6.89962 99.0329 7.11858 98.3671 7.17667L100.798 10.4031L100.794 10.3942ZM99.4753 10.2824H100.57L98.1481 7.06943H98.2509C98.9391 7.02474 99.4843 6.81024 99.8686 6.43487C100.253 6.0595 100.449 5.55453 100.449 4.92891C100.449 4.27201 100.235 3.74917 99.806 3.37827C99.377 3.00737 98.7737 2.81521 98.0096 2.80628L95.2792 2.7884V10.2824H96.1238V7.07389H97.1248L97.1427 7.09624L99.4798 10.278L99.4753 10.2824ZM98.1526 6.22036H96.1238V3.64192H98.1526C98.5592 3.64192 98.9033 3.7447 99.1714 3.95026C99.444 4.16029 99.5826 4.49098 99.5826 4.92891C99.5826 5.36685 99.444 5.69753 99.1714 5.90756C98.9033 6.11312 98.5592 6.2159 98.1526 6.2159V6.22036ZM96.2355 6.10865H98.1526C98.5369 6.10865 98.8542 6.01034 99.1044 5.82266C99.3502 5.63497 99.4708 5.33557 99.4708 4.93339C99.4708 4.5312 99.3457 4.22732 99.1044 4.0441C98.8542 3.85195 98.5369 3.75811 98.1526 3.75811H96.2355V6.11312V6.10865Z" fill="#231F20"/>
<path d="M106.469 4.4373C106.389 4.11555 106.188 3.86083 105.875 3.66868C105.558 3.47652 105.16 3.38269 104.673 3.38269C104.275 3.38269 103.931 3.49887 103.64 3.72678C103.35 3.95468 103.203 4.24068 103.203 4.58477C103.203 4.83949 103.287 5.06738 103.457 5.27295C103.627 5.47851 103.895 5.63045 104.257 5.72429L105.799 6.13542C106.375 6.29182 106.786 6.56888 107.037 6.95766C107.287 7.34644 107.412 7.77542 107.412 8.23123C107.412 8.68704 107.305 9.06688 107.09 9.4065C106.876 9.74613 106.563 10.0098 106.152 10.1975C105.741 10.3852 105.254 10.479 104.691 10.479C103.341 10.479 102.483 9.85339 102.121 8.60661L102.952 8.18655C103.001 8.45468 103.113 8.70492 103.287 8.9373C103.462 9.16967 103.676 9.35735 103.926 9.49141C104.177 9.62547 104.44 9.69697 104.713 9.69697C105.267 9.69697 105.705 9.56738 106.018 9.29926C106.335 9.03561 106.491 8.69152 106.491 8.26699C106.491 7.58328 106.13 7.14534 105.401 6.96212L103.985 6.60463C103.444 6.4661 103.024 6.21585 102.72 5.84941C102.42 5.48298 102.269 5.08526 102.269 4.66073C102.269 4.23621 102.385 3.87871 102.613 3.56143C102.841 3.24416 103.149 3.00731 103.538 2.84197C103.926 2.67662 104.347 2.59619 104.807 2.59619C105.477 2.59619 106.022 2.72578 106.438 2.98049C106.853 3.23968 107.135 3.59719 107.287 4.053L106.474 4.43283L106.469 4.4373Z" fill="#231F20"/>
<path d="M104.69 10.537C103.318 10.537 102.438 9.8935 102.067 8.62439L102.054 8.5797L102.992 8.10156L103.006 8.17752C103.05 8.4367 103.162 8.67802 103.327 8.90592C103.497 9.12936 103.703 9.31257 103.948 9.44663C104.19 9.57622 104.444 9.64326 104.708 9.64326C105.249 9.64326 105.673 9.51367 105.977 9.25895C106.277 9.00871 106.429 8.67355 106.429 8.2669C106.429 7.60553 106.084 7.1944 105.383 7.01565L103.966 6.65816C103.417 6.51963 102.979 6.26044 102.67 5.88507C102.362 5.5097 102.206 5.09858 102.206 4.66065C102.206 4.22271 102.326 3.85181 102.559 3.53006C102.791 3.20831 103.113 2.95807 103.506 2.79273C103.899 2.62738 104.333 2.54248 104.797 2.54248C105.477 2.54248 106.035 2.67654 106.455 2.93573C106.88 3.19938 107.17 3.57029 107.327 4.0395L107.34 4.08865L106.424 4.51764L106.406 4.45062C106.33 4.14674 106.138 3.8965 105.834 3.71328C105.53 3.52559 105.133 3.43622 104.659 3.43622C104.275 3.43622 103.94 3.54794 103.662 3.7669C103.381 3.98587 103.247 4.254 103.247 4.58021C103.247 4.82152 103.327 5.04049 103.493 5.23264C103.654 5.42926 103.917 5.57226 104.266 5.66611L105.807 6.07723C106.393 6.23811 106.822 6.5241 107.077 6.92181C107.331 7.31953 107.461 7.75747 107.461 8.22668C107.461 8.6959 107.349 9.08467 107.13 9.43323C106.911 9.78179 106.585 10.0544 106.165 10.2465C105.749 10.4387 105.249 10.5325 104.681 10.5325L104.69 10.537ZM102.188 8.64227C102.554 9.84435 103.372 10.4298 104.69 10.4298C105.24 10.4298 105.723 10.3359 106.125 10.1527C106.522 9.96948 106.831 9.71029 107.041 9.38408C107.251 9.05339 107.358 8.66908 107.358 8.23561C107.358 7.80215 107.233 7.36868 106.992 6.98884C106.75 6.61347 106.344 6.34536 105.785 6.18895L104.243 5.77782C103.872 5.67951 103.591 5.51864 103.412 5.30861C103.233 5.09412 103.144 4.84834 103.144 4.58468C103.144 4.22719 103.296 3.92331 103.604 3.682C103.904 3.44515 104.261 3.3245 104.672 3.3245C105.168 3.3245 105.58 3.42282 105.906 3.61944C106.21 3.80713 106.415 4.05291 106.509 4.36125L107.215 4.03056C107.068 3.6105 106.795 3.27535 106.406 3.03404C106.004 2.78379 105.463 2.65866 104.806 2.65866C104.355 2.65866 103.935 2.7391 103.56 2.89997C103.184 3.06085 102.88 3.29322 102.657 3.60156C102.434 3.90544 102.322 4.26293 102.322 4.66958C102.322 5.07623 102.469 5.46502 102.76 5.82251C103.05 6.17554 103.466 6.42579 103.993 6.55985L105.41 6.91735C106.16 7.10951 106.54 7.56531 106.54 8.27583C106.54 8.71823 106.375 9.07573 106.049 9.35279C105.727 9.62538 105.276 9.76392 104.708 9.76392C104.427 9.76392 104.154 9.69242 103.895 9.54942C103.64 9.41089 103.417 9.21873 103.238 8.97742C103.073 8.75846 102.965 8.52608 102.907 8.27583L102.183 8.64227H102.188Z" fill="#231F20"/>
<path d="M110.053 10.3401H109.159V2.73438H110.053V10.3401Z" fill="#231F20"/>
<path d="M110.111 10.3937H109.106V2.67627H110.111V10.3937ZM109.218 10.282H110V2.78799H109.218V10.282Z" fill="#231F20"/>
<path d="M116.971 3.53428H114.781V10.3401H113.834V3.53428H111.644V2.73438H116.966V3.53428H116.971Z" fill="#231F20"/>
<path d="M114.839 10.3937H113.78V3.58789H111.59V2.67627H117.024V3.58789H114.835V10.3937H114.839ZM113.892 10.282H114.727V3.47617H116.917V2.78799H111.707V3.47617H113.896V10.282H113.892Z" fill="#231F20"/>
<path d="M123.897 2.73438L121.399 6.92603V10.3401H120.474V6.92603L117.896 2.73438H119.026L120.979 6.12613L122.838 2.73438H123.897Z" fill="#231F20"/>
<path d="M121.457 10.3937H120.42V6.93942L117.797 2.67627H119.062L120.984 6.00992L122.811 2.67627H124L121.462 6.93942V10.3937H121.457ZM120.532 10.282H121.346V6.91261L121.354 6.89921L123.803 2.78799H122.874L120.984 6.23783L118.999 2.78799H118.003L120.537 6.90814V10.282H120.532Z" fill="#231F20"/>
<g clip-path="url(#clip1_1348_582)">
<path d="M31.4443 16.4098C31.4443 16.0351 31.5804 15.7463 31.8569 15.5431C32.1291 15.34 32.4693 15.2407 32.8734 15.2407C33.3625 15.2407 33.7835 15.3491 34.1365 15.5612V16.0938C33.7878 15.8546 33.3795 15.7372 32.9116 15.7463C32.2737 15.7463 31.9547 15.9584 31.9547 16.3872C31.9547 16.5587 32.0185 16.7077 32.1418 16.8296C32.2652 16.9514 32.4183 17.0462 32.5969 17.1184C32.7756 17.1907 32.9754 17.2674 33.1881 17.3532C33.4008 17.4389 33.6006 17.5157 33.792 17.5924C33.9792 17.6691 34.1365 17.7955 34.2556 17.9715C34.3747 18.1476 34.4385 18.3642 34.4385 18.617C34.4385 18.8292 34.396 19.0142 34.3109 19.1722C34.2259 19.3302 34.111 19.4566 33.9622 19.5514C33.8133 19.6462 33.6517 19.7093 33.4731 19.7545C33.2944 19.7951 33.103 19.8177 32.8946 19.8177C32.3673 19.8177 31.8909 19.6913 31.4656 19.4385V18.9059C31.8824 19.1767 32.346 19.3121 32.8606 19.3121C33.5751 19.3121 33.9324 19.091 33.9324 18.6531C33.9324 18.4951 33.8856 18.3552 33.7963 18.2379C33.707 18.1205 33.5836 18.0347 33.4348 17.9715C33.2859 17.9129 33.12 17.8452 32.9457 17.7775C32.7713 17.7052 32.5969 17.6375 32.4225 17.5698C32.2482 17.5021 32.0908 17.4209 31.9419 17.3306C31.7931 17.2403 31.6783 17.1184 31.5847 16.9605C31.4954 16.807 31.4486 16.6219 31.4486 16.4098H31.4443Z" fill="#231F20"/>
<path d="M32.8906 19.998C32.3377 19.998 31.8273 19.8626 31.3765 19.5963L31.2914 19.5466V18.5897L31.5509 18.7567C31.9379 19.0095 32.3802 19.1359 32.8566 19.1359C33.7582 19.1359 33.7582 18.7793 33.7582 18.6574C33.7582 18.5355 33.7284 18.4453 33.6604 18.3595C33.5881 18.2647 33.4903 18.197 33.3669 18.1474L32.3589 17.7411C32.1803 17.6689 32.0102 17.5831 31.8528 17.4883C31.6827 17.3845 31.5424 17.2401 31.436 17.0595C31.3297 16.8745 31.2744 16.6578 31.2744 16.4141C31.2744 15.9807 31.436 15.6377 31.7593 15.3985C32.0612 15.1773 32.4355 15.0645 32.8736 15.0645C33.3882 15.0645 33.8433 15.1818 34.2218 15.412L34.3069 15.4662V16.4321L34.0432 16.2516C33.7369 16.0394 33.3712 15.9311 32.9586 15.9311H32.9161C32.125 15.9311 32.125 16.2651 32.125 16.3915C32.125 16.5179 32.1676 16.6127 32.2569 16.6984C32.3632 16.8023 32.4993 16.888 32.6567 16.9512L33.8518 17.4251C34.0729 17.5109 34.2516 17.6599 34.3962 17.8675C34.5408 18.0751 34.6131 18.3279 34.6131 18.6168C34.6131 18.8605 34.562 19.0772 34.4642 19.2623C34.3664 19.4473 34.2261 19.6008 34.0559 19.7091C33.8943 19.8129 33.7114 19.8851 33.5158 19.9348C33.3244 19.9799 33.1203 20.0025 32.9033 20.0025L32.8906 19.998ZM31.6317 19.33C32.0059 19.5331 32.4313 19.6369 32.8906 19.6369C33.082 19.6369 33.2649 19.6188 33.4307 19.5782C33.5923 19.5421 33.7369 19.4789 33.8688 19.3977C33.9921 19.3209 34.0857 19.2171 34.1537 19.0862C34.2261 18.9553 34.2601 18.7973 34.2601 18.6168C34.2601 18.4046 34.209 18.2286 34.1112 18.0796C34.0091 17.9307 33.8816 17.8269 33.7242 17.7637L32.5291 17.2897C32.3292 17.2085 32.1548 17.1002 32.0187 16.9647C31.8613 16.8068 31.7805 16.6172 31.7805 16.3915C31.7805 16.0169 31.9762 15.57 32.9076 15.57H32.9544C33.3244 15.57 33.6604 15.6467 33.9624 15.7912V15.6738C33.6519 15.5068 33.2861 15.4256 32.8693 15.4256C32.5036 15.4256 32.1931 15.5158 31.9464 15.6964C31.721 15.8634 31.6104 16.0981 31.6104 16.4141C31.6104 16.5901 31.6487 16.7391 31.721 16.87C31.7975 17.0009 31.8954 17.1047 32.0187 17.1814C32.1591 17.2672 32.3079 17.3439 32.4738 17.4071L33.4818 17.8133C33.6604 17.8856 33.805 17.9894 33.9156 18.1293C34.0347 18.2783 34.0942 18.4543 34.0942 18.6574C34.0942 19.0411 33.8773 19.497 32.8523 19.497C32.4142 19.497 32.0059 19.4022 31.6274 19.2126V19.3345L31.6317 19.33Z" fill="#231F20"/>
<path d="M35.1958 17.5608C35.1958 17.0733 35.3064 16.649 35.5233 16.2879C35.7402 15.9268 36.0124 15.665 36.3399 15.4935C36.6631 15.3265 37.0161 15.2407 37.3861 15.2407C37.8157 15.2407 38.207 15.34 38.56 15.5386V16.0713C38.258 15.8546 37.8965 15.7508 37.4712 15.7508C36.9949 15.7508 36.5823 15.9042 36.2336 16.2157C35.8848 16.5271 35.7062 16.974 35.7019 17.5653C35.7019 17.94 35.7912 18.2649 35.9741 18.5403C36.157 18.8156 36.3782 19.0097 36.6418 19.1361C36.9055 19.258 37.1905 19.3212 37.4925 19.3212C37.939 19.3212 38.3091 19.2128 38.594 19.0007V19.5333C38.2325 19.7319 37.8285 19.8312 37.3861 19.8312C37.1182 19.8312 36.8588 19.7816 36.5993 19.6823C36.3399 19.583 36.106 19.443 35.8976 19.258C35.6849 19.0729 35.519 18.8382 35.3914 18.5448C35.2639 18.2514 35.2001 17.9264 35.2001 17.5743L35.1958 17.5608Z" fill="#231F20"/>
<path d="M37.3817 19.998C37.0968 19.998 36.8118 19.9438 36.5396 19.84C36.2674 19.7362 36.0122 19.5827 35.7868 19.3886C35.5572 19.19 35.37 18.9282 35.2339 18.6123C35.0978 18.2963 35.0298 17.9442 35.0298 17.5651C35.0298 17.046 35.1489 16.5811 35.3828 16.1929C35.6167 15.8047 35.9144 15.5203 36.2674 15.3353C37.0117 14.9516 37.9389 14.9877 38.6407 15.3804L38.73 15.4301V16.4096L38.4663 16.22C38.1941 16.0259 37.8623 15.9266 37.4711 15.9266C37.033 15.9266 36.663 16.0665 36.3397 16.3509C36.0293 16.6262 35.8761 17.0234 35.8719 17.5651C35.8719 17.9036 35.9485 18.188 36.1101 18.4317C36.2717 18.6755 36.4716 18.856 36.7055 18.9643C36.9479 19.0772 37.2074 19.1314 37.4881 19.1314C37.8964 19.1314 38.2366 19.0321 38.4918 18.8425L38.7597 18.6394V19.6279L38.6662 19.6775C38.2834 19.8897 37.8496 19.9935 37.3775 19.9935L37.3817 19.998ZM37.386 15.421C37.0415 15.421 36.714 15.4978 36.412 15.6558C36.1143 15.8092 35.8634 16.053 35.6635 16.3825C35.4636 16.712 35.3615 17.1092 35.3615 17.5561C35.3615 17.881 35.4211 18.1835 35.5359 18.4498C35.6507 18.7161 35.8081 18.9327 35.9952 19.0998C36.1909 19.2713 36.4078 19.4022 36.646 19.4925C37.2499 19.7272 37.8964 19.6504 38.411 19.4022V19.2939C37.9049 19.5376 37.1563 19.5647 36.5609 19.2893C36.2674 19.1539 36.0208 18.9327 35.8209 18.6348C35.621 18.3324 35.5189 17.9713 35.5189 17.5561C35.5189 16.9106 35.723 16.4141 36.1101 16.0665C36.4886 15.7325 36.9437 15.561 37.4583 15.561C37.7985 15.561 38.109 15.6287 38.377 15.7551V15.6422C38.075 15.4888 37.7347 15.412 37.3732 15.412L37.386 15.421Z" fill="#231F20"/>
<path d="M39.6616 15.3174H40.1635V19.7409H39.6616V15.3174Z" fill="#231F20"/>
<path d="M40.3333 19.9213H39.4912V15.1367H40.3333V19.9213ZM39.8315 19.5602H39.9931V15.4978H39.8315V19.5602Z" fill="#231F20"/>
<path d="M41.5537 15.3174H44.365V15.8229H42.0556V17.2583H44.1864V17.7638H42.0556V19.2353H44.4033V19.7409H41.558V15.3174H41.5537Z" fill="#231F20"/>
<path d="M44.5693 19.9213H41.3838V15.1367H44.5353V16.0034H42.2259V17.0776H44.3567V17.9443H42.2259V19.0547H44.5736V19.9213H44.5693ZM41.724 19.5602H44.2291V19.4158H41.8814V17.5832H44.0122V17.4387H41.8814V15.6423H44.1908V15.4978H41.7198V19.5602H41.724Z" fill="#231F20"/>
<path d="M46.0453 19.7409H45.5435V15.3174H45.9985L48.5164 18.8607V15.3174H49.0182V19.7409H48.5546L46.0496 16.2111V19.7409H46.0453Z" fill="#231F20"/>
<path d="M49.1842 19.9213H48.4654L46.2113 16.7526V19.9213H45.3691V15.1367H46.0794L48.342 18.3189V15.1367H49.1842V19.9213ZM48.6355 19.5602H48.8439V15.4978H48.6823V19.3977L45.9135 15.4978H45.7136V19.5602H45.8753V15.6739L48.6355 19.5602Z" fill="#231F20"/>
<path d="M49.9453 15.3174H53.3733V15.8229H51.9102V19.7409H51.4084V15.8229H49.9453V15.3174Z" fill="#231F20"/>
<path d="M52.0806 19.9213H51.2384V16.0034H49.7754V15.1367H53.5436V16.0034H52.0806V19.9213ZM51.5787 19.5602H51.7403V15.6423H53.2034V15.4978H50.1156V15.6423H51.5787V19.5602Z" fill="#231F20"/>
<path d="M54.3047 15.3174H54.8066V19.7409H54.3047V15.3174Z" fill="#231F20"/>
<path d="M54.9725 19.9213H54.1304V15.1367H54.9725V19.9213ZM54.4749 19.5602H54.6365V15.4978H54.4749V19.5602Z" fill="#231F20"/>
<path d="M56.2311 19.7409H55.6909L57.507 15.3174H58.0599L59.8674 19.7409H59.3316L58.9062 18.6711H56.6564L56.2311 19.7409ZM57.7154 16.017L56.852 18.1791H58.7106L57.8472 16.0215C57.8472 16.0215 57.8175 15.9448 57.7792 15.85C57.7452 15.9448 57.7239 15.999 57.7154 16.0125V16.017Z" fill="#231F20"/>
<path d="M60.127 19.9213H59.2211L58.7958 18.8515H56.7714L56.3461 19.9213H55.4316L57.3966 15.1367H58.1749L60.1313 19.9213H60.127ZM59.4465 19.5602H59.6082L57.9452 15.4978H57.8219L58.966 18.3595H56.597L57.5582 15.9447C57.5709 15.9131 57.5922 15.8634 57.622 15.7822L57.7326 15.4933H57.6177L55.9505 19.5557H56.1206L56.5459 18.4859H59.0212L59.4465 19.5557V19.5602ZM57.1116 17.9984H58.4556L57.7836 16.3148L57.1116 17.9984Z" fill="#231F20"/>
<path d="M62.9127 17.0916C62.9722 17.1503 63.002 17.227 63.002 17.3309C63.002 17.4347 62.9722 17.5114 62.9127 17.5656C62.8532 17.6197 62.7809 17.6513 62.6915 17.6513C62.6022 17.6513 62.5299 17.6242 62.4661 17.5656C62.4023 17.5069 62.3726 17.4302 62.3726 17.3309C62.3726 17.2315 62.4023 17.1503 62.4661 17.0916C62.5299 17.0329 62.6022 17.0059 62.6915 17.0059C62.7809 17.0059 62.8532 17.0329 62.9127 17.0916Z" fill="#231F20"/>
<path d="M62.6919 18.2151C62.475 18.2151 62.2794 18.1384 62.1178 17.9894C61.9391 17.8269 61.8413 17.5922 61.8413 17.3259C61.8413 17.0596 61.9391 16.8294 62.1178 16.6624C62.4367 16.369 62.9556 16.369 63.2661 16.6669C63.4362 16.8294 63.5298 17.0641 63.5298 17.3214C63.5298 17.5786 63.4362 17.8134 63.2661 17.9759C63.1087 18.1248 62.9088 18.2061 62.6919 18.2061V18.2151ZM62.6919 17.0866C62.6579 17.0866 62.6026 17.1002 62.5558 17.1453C62.4963 17.204 62.4708 17.2807 62.4708 17.3259C62.4708 17.371 62.4963 17.4523 62.5558 17.5064C62.6409 17.5877 62.7345 17.5922 62.8195 17.5109C62.8833 17.4523 62.9088 17.371 62.9088 17.3214C62.9088 17.2717 62.8791 17.1905 62.8195 17.1318C62.7812 17.0957 62.7259 17.0776 62.6919 17.0776V17.0866Z" fill="#231F20"/>
<path d="M66.0093 15.3174H66.5111V19.2353H68.8206V19.7409H66.0093V15.3174Z" fill="#231F20"/>
<path d="M68.9904 19.9213H65.8389V15.1367H66.681V19.0547H68.9904V19.9213ZM66.1791 19.5602H68.6502V19.4158H66.3407V15.4978H66.1791V19.5602Z" fill="#231F20"/>
<path d="M69.7901 19.7409H69.25L71.0661 15.3174H71.619L73.4308 19.7409H72.8949L72.4696 18.6711H70.2197L69.7944 19.7409H69.7901ZM71.2745 16.017L70.4111 18.1791H72.2697L71.4063 16.0215C71.4063 16.0215 71.3765 15.9448 71.3383 15.85C71.3042 15.9448 71.283 15.999 71.2745 16.0125V16.017Z" fill="#231F20"/>
<path d="M73.6861 19.9213H72.7802L72.3549 18.8515H70.3304L69.9051 19.9213H68.9907L70.9514 15.1367H71.7297L73.6861 19.9213ZM73.0056 19.5602H73.1672L71.5043 15.4978H71.381L72.5208 18.3595H70.1518L71.113 15.9447C71.1258 15.9131 71.147 15.8634 71.1768 15.7822L71.2874 15.4933H71.1683L69.5011 19.5557H69.6712L70.0965 18.4859H72.5718L72.9971 19.5557L73.0056 19.5602ZM70.6707 17.9984H72.0147L71.3427 16.3148L70.6707 17.9984Z" fill="#231F20"/>
<path d="M74.3198 15.3174H76.0296C76.4676 15.3174 76.8121 15.4122 77.0673 15.6063C77.3225 15.8004 77.4501 16.0757 77.4501 16.4368C77.4501 16.6986 77.3863 16.9107 77.2545 17.0777C77.1226 17.2448 76.9652 17.3576 76.7824 17.4163C77.0035 17.4795 77.1992 17.6013 77.365 17.7819C77.5309 17.9624 77.616 18.2107 77.616 18.5312C77.616 18.7253 77.5819 18.8968 77.5096 19.0412C77.4416 19.1902 77.3523 19.3075 77.2459 19.3933C77.1396 19.4791 77.0163 19.5513 76.8759 19.6055C76.7356 19.6596 76.5995 19.6957 76.4719 19.7138C76.3443 19.7318 76.2124 19.7409 76.0763 19.7409H74.3198V15.3174ZM76.9397 16.509C76.9397 16.2608 76.8589 16.0847 76.6973 15.9764C76.5357 15.8681 76.2975 15.8184 75.987 15.8184H74.8217V17.1951H76.1274C76.3656 17.1951 76.5612 17.1409 76.7143 17.0281C76.8674 16.9153 76.944 16.7437 76.944 16.5045L76.9397 16.509ZM77.1056 18.468C77.1056 17.9579 76.7739 17.7052 76.1104 17.7052H74.8174V19.2353H75.9743C76.1019 19.2353 76.2082 19.2353 76.2975 19.2263C76.3868 19.2218 76.4846 19.2037 76.5952 19.1766C76.7058 19.1496 76.7951 19.1089 76.8632 19.0548C76.9312 19.0006 76.9865 18.9239 77.0375 18.8291C77.0843 18.7298 77.1098 18.6124 77.1098 18.4725L77.1056 18.468Z" fill="#231F20"/>
<path d="M76.0761 19.9213H74.1494V15.1367H76.0293C76.5014 15.1367 76.8799 15.245 77.1648 15.4572C77.4668 15.6829 77.6157 16.0124 77.6157 16.4367C77.6157 16.7391 77.5349 16.9964 77.3775 17.195C77.3137 17.2717 77.2499 17.3439 77.1776 17.4026C77.2882 17.4703 77.3903 17.5561 77.4838 17.6554C77.6837 17.8675 77.7815 18.1609 77.7815 18.5311C77.7815 18.7522 77.739 18.9508 77.6582 19.1224C77.5774 19.2939 77.4711 19.4338 77.3477 19.5376C77.2286 19.6369 77.0883 19.7137 76.9309 19.7769C76.7821 19.8355 76.6332 19.8762 76.4929 19.8942C76.3568 19.9123 76.2164 19.9258 76.0718 19.9258L76.0761 19.9213ZM74.4897 19.5602H76.0761C76.2037 19.5602 76.327 19.5512 76.4503 19.5331C76.5652 19.5151 76.6928 19.4835 76.8203 19.4338C76.9437 19.3842 77.0543 19.3255 77.1436 19.2488C77.2286 19.181 77.3009 19.0817 77.3562 18.9599C77.4115 18.838 77.4413 18.6936 77.4413 18.5266C77.4413 18.2557 77.3775 18.0481 77.2414 17.9037C77.0968 17.7457 76.9309 17.6419 76.7353 17.5877L76.1611 17.4252L76.3525 17.362C76.2802 17.3755 76.2037 17.3801 76.1228 17.3801H74.647V15.6423H75.9825C76.3312 15.6423 76.5949 15.7009 76.7821 15.8273C76.9309 15.9221 77.1053 16.1207 77.1053 16.5134C77.1053 16.9061 76.9394 17.0821 76.8033 17.1815C76.7651 17.2085 76.7268 17.2356 76.6842 17.2537L76.7268 17.2401C76.8799 17.1905 77.0075 17.1002 77.1138 16.9603C77.2201 16.8249 77.2712 16.6533 77.2712 16.4322C77.2712 16.1297 77.1691 15.9041 76.9607 15.7506C76.7353 15.5836 76.4206 15.4978 76.025 15.4978H74.4854V19.5602H74.4897ZM74.9915 17.019H76.1271C76.327 17.019 76.4929 16.9738 76.6162 16.8835C76.6843 16.8339 76.7736 16.7436 76.7736 16.5089C76.7736 16.2652 76.68 16.1749 76.6119 16.1297C76.4801 16.044 76.2717 15.9988 75.991 15.9988H74.9958V17.0144L74.9915 17.019ZM75.974 19.4158H74.647V17.5245H76.1101C77.0713 17.5245 77.2754 18.0391 77.2754 18.4679C77.2754 18.6349 77.2457 18.7838 77.1861 18.9057C77.1266 19.0276 77.0543 19.1269 76.965 19.1946C76.8756 19.2623 76.7651 19.3119 76.6332 19.3435C76.5141 19.3751 76.4035 19.3932 76.31 19.3977C76.2164 19.4022 76.1058 19.4067 75.9782 19.4067L75.974 19.4158ZM74.9915 19.0547H75.9782C76.1016 19.0547 76.2037 19.0547 76.2887 19.0456C76.3695 19.0411 76.4588 19.0231 76.5609 19.0005C76.6502 18.9779 76.7183 18.9508 76.7651 18.9102C76.8118 18.8741 76.8501 18.8199 76.8841 18.7477C76.9182 18.6755 76.9352 18.5807 76.9352 18.4724C76.9352 18.2016 76.8416 17.8901 76.1101 17.8901H74.9873V19.0592L74.9915 19.0547Z" fill="#231F20"/>
<path d="M78.594 18.3688C78.5004 18.0979 78.4536 17.8181 78.4536 17.5292C78.4536 17.2403 78.5004 16.9605 78.594 16.6896C78.6875 16.4188 78.8194 16.1751 78.998 15.9584C79.1724 15.7418 79.402 15.5657 79.6828 15.4348C79.9635 15.3039 80.2824 15.2407 80.6354 15.2407C80.9884 15.2407 81.3074 15.3039 81.5881 15.4348C81.8688 15.5657 82.0985 15.7372 82.2729 15.9584C82.4473 16.1751 82.5834 16.4188 82.6727 16.6896C82.7662 16.9605 82.813 17.2403 82.813 17.5292C82.813 17.8181 82.7662 18.1024 82.6727 18.3688C82.5791 18.6396 82.4473 18.8833 82.2729 19.1C82.0985 19.3166 81.8688 19.4927 81.5881 19.6236C81.3074 19.7545 80.9884 19.8177 80.6354 19.8177C80.2824 19.8177 79.9635 19.7545 79.6828 19.6236C79.402 19.4927 79.1724 19.3212 78.998 19.1C78.8236 18.8833 78.6875 18.6396 78.594 18.3688ZM82.2006 18.1927C82.2686 17.9806 82.3069 17.7594 82.3069 17.5292C82.3069 17.299 82.2729 17.0778 82.2006 16.8657C82.1283 16.6535 82.0305 16.464 81.8986 16.2969C81.7668 16.1299 81.5881 15.9945 81.3712 15.8952C81.1543 15.7959 80.9076 15.7463 80.6312 15.7463C80.3547 15.7463 80.1123 15.7959 79.8912 15.8952C79.6742 15.9945 79.4956 16.1299 79.3638 16.2969C79.2319 16.464 79.1299 16.6535 79.0618 16.8657C78.9938 17.0778 78.9555 17.299 78.9555 17.5292C78.9555 17.7594 78.9895 17.9806 79.0618 18.1927C79.1299 18.4049 79.2319 18.5944 79.3638 18.7615C79.4956 18.9285 79.6742 19.0639 79.8912 19.1632C80.1081 19.2625 80.3547 19.3121 80.6312 19.3121C80.9076 19.3121 81.1501 19.2625 81.3712 19.1632C81.5881 19.0639 81.7668 18.9285 81.8986 18.7615C82.0305 18.5944 82.1325 18.4049 82.2006 18.1927Z" fill="#231F20"/>
<path d="M80.6314 19.9978C80.2571 19.9978 79.9126 19.9256 79.6107 19.7857C79.3044 19.6457 79.0535 19.4516 78.8664 19.2169C78.6792 18.9867 78.5346 18.7204 78.4325 18.4315C78.3347 18.1427 78.2837 17.8402 78.2837 17.5288C78.2837 17.2173 78.3347 16.9149 78.4325 16.626C78.5346 16.3371 78.6792 16.0708 78.8664 15.8406C79.0578 15.6059 79.3087 15.4118 79.6107 15.2719C80.2146 14.992 81.0482 14.992 81.6521 15.2719C81.9584 15.4118 82.2093 15.6059 82.3964 15.8406C82.5836 16.0754 82.7282 16.3371 82.8302 16.626C82.9281 16.9149 82.9791 17.2173 82.9791 17.5288C82.9791 17.8402 82.9281 18.1427 82.8302 18.4315C82.7324 18.7204 82.5836 18.9822 82.3964 19.2169C82.205 19.4516 81.9541 19.6457 81.6521 19.7857C81.3502 19.9256 81.0057 19.9978 80.6314 19.9978ZM80.6314 15.4209C80.3039 15.4209 80.0062 15.4795 79.7468 15.6014C79.4916 15.7188 79.2789 15.8813 79.1215 16.0754C78.9599 16.274 78.8366 16.4996 78.7515 16.7524C78.6665 17.0007 78.6239 17.2625 78.6239 17.5288C78.6239 17.7951 78.6665 18.0569 78.7515 18.3051C78.8366 18.5534 78.9642 18.7791 79.1215 18.9777C79.2789 19.1718 79.4873 19.3298 79.7468 19.4516C80.2614 19.6909 80.9972 19.6909 81.516 19.4516C81.7712 19.3343 81.9839 19.1718 82.1412 18.9777C82.3029 18.7791 82.4262 18.5489 82.5113 18.3051C82.5963 18.0569 82.6388 17.7951 82.6388 17.5288C82.6388 17.2625 82.5963 17.0007 82.5113 16.7524C82.4262 16.5042 82.3029 16.2785 82.1412 16.0754C81.9839 15.8813 81.7755 15.7233 81.516 15.6014C81.2566 15.4795 80.9589 15.4209 80.6314 15.4209ZM80.6314 19.4923C80.3337 19.4923 80.0657 19.4381 79.8276 19.3298C79.5851 19.2214 79.3852 19.068 79.2364 18.8784C79.0918 18.6933 78.9769 18.4812 78.9046 18.2555C78.8281 18.0298 78.7898 17.7861 78.7898 17.5333C78.7898 17.2805 78.8281 17.0368 78.9046 16.8111C78.9812 16.5809 79.0918 16.3733 79.2364 16.1882C79.3852 15.9986 79.5851 15.8451 79.8276 15.7368C80.3039 15.5202 80.9589 15.5202 81.4395 15.7368C81.6819 15.8451 81.8775 15.9986 82.0307 16.1882C82.1753 16.3733 82.2901 16.5854 82.3666 16.8156C82.4432 17.0458 82.4815 17.2896 82.4815 17.5378C82.4815 17.7861 82.4432 18.0298 82.3666 18.26C82.2901 18.4902 82.1795 18.7024 82.0349 18.8829C81.8861 19.0725 81.6862 19.226 81.4437 19.3343C81.2056 19.4426 80.9334 19.4968 80.6399 19.4968L80.6314 19.4923ZM80.6314 15.9264C80.3805 15.9264 80.155 15.9715 79.9594 16.0618C79.768 16.1476 79.6107 16.2649 79.4958 16.4139C79.3767 16.5628 79.2832 16.7389 79.2236 16.9239C79.1598 17.1135 79.1301 17.3166 79.1301 17.5288C79.1301 17.7409 79.1641 17.944 79.2236 18.1336C79.2874 18.3232 79.3767 18.4947 79.4958 18.6482C79.6107 18.7926 79.768 18.91 79.9594 19.0003C80.3507 19.1763 80.9121 19.1763 81.3034 19.0003C81.4948 18.9145 81.6521 18.7971 81.767 18.6482C81.8861 18.4992 81.9796 18.3232 82.0392 18.1381C82.103 17.9486 82.1327 17.7454 82.1327 17.5333C82.1327 17.3211 82.0987 17.1225 82.0392 16.9285C81.9754 16.7389 81.8861 16.5674 81.767 16.4184C81.6521 16.274 81.4948 16.1521 81.3034 16.0663C81.1077 15.976 80.8823 15.9309 80.6314 15.9309V15.9264Z" fill="#231F20"/>
<path d="M84.4252 19.7409H83.9233V15.3174H85.5565C85.8287 15.3174 86.0797 15.358 86.3008 15.4347C86.522 15.5115 86.7134 15.6559 86.875 15.8635C87.0366 16.0712 87.1174 16.3375 87.1174 16.658C87.1174 17.0371 87.0153 17.3305 86.8069 17.5427C86.5985 17.7548 86.3306 17.8902 86.0031 17.9534L87.4151 19.7409H86.7899L85.4204 17.9986H84.4252V19.7409ZM84.4252 15.8229V17.493H85.582C85.8755 17.493 86.1222 17.4298 86.3178 17.2989C86.5135 17.1725 86.6113 16.9559 86.6113 16.658C86.6113 16.3601 86.5135 16.1389 86.3178 16.0125C86.1222 15.8861 85.8755 15.8229 85.582 15.8229H84.4252Z" fill="#231F20"/>
<path d="M87.7768 19.9213H86.7093L85.3398 18.179H84.5955V19.9213H83.7534V15.1367H85.5567C85.8502 15.1367 86.1181 15.1773 86.3563 15.2631C86.6072 15.3534 86.8284 15.5159 87.0113 15.7506C87.1984 15.9898 87.292 16.2968 87.292 16.6579C87.292 17.0867 87.1686 17.4297 86.9305 17.6735C86.7603 17.845 86.5562 17.9759 86.3138 18.0571L87.7853 19.9213H87.7768ZM86.8709 19.5602H87.0538L85.6886 17.8314L85.9778 17.7773C86.2712 17.7186 86.5137 17.5967 86.6923 17.4162C86.8667 17.2401 86.9475 16.9919 86.9475 16.6624C86.9475 16.3825 86.8794 16.1613 86.7433 15.9853C86.603 15.8048 86.4371 15.6784 86.2457 15.6107C86.0416 15.5384 85.8119 15.5023 85.5567 15.5023H84.0937V19.5647H84.2553V17.8224H85.5014L86.8709 19.5647V19.5602ZM85.5822 17.6689H84.2553V15.6423H85.5822C85.9055 15.6423 86.1819 15.7145 86.4073 15.8589C86.5775 15.9673 86.7859 16.1975 86.7859 16.6579C86.7859 17.1183 86.5817 17.3394 86.4116 17.4523C86.1904 17.5967 85.914 17.6735 85.5865 17.6735L85.5822 17.6689ZM84.5955 17.3078H85.5822C85.8417 17.3078 86.0586 17.2537 86.2287 17.1408C86.3223 17.0821 86.4414 16.9648 86.4414 16.6533C86.4414 16.4141 86.3733 16.2561 86.2287 16.1613C86.0586 16.053 85.8417 15.9988 85.5822 15.9988H84.5955V17.3078Z" fill="#231F20"/>
<path d="M90.5113 17.0911C90.5709 17.1498 90.6007 17.2265 90.6007 17.3304C90.6007 17.4342 90.5709 17.5109 90.5113 17.5651C90.4518 17.6238 90.3795 17.6508 90.2902 17.6508C90.2009 17.6508 90.1286 17.6238 90.0648 17.5651C90.0052 17.5064 89.9712 17.4297 89.9712 17.3304C89.9712 17.2311 90.001 17.1498 90.0648 17.0911C90.1286 17.0325 90.2009 17.0054 90.2902 17.0054C90.3795 17.0054 90.4518 17.0325 90.5113 17.0911Z" fill="#231F20"/>
<path d="M90.2902 18.2152C90.0733 18.2152 89.8777 18.1385 89.7203 17.994C89.5417 17.827 89.4438 17.5923 89.4438 17.3305C89.4438 17.0687 89.5417 16.834 89.7203 16.667C90.0435 16.3691 90.5582 16.3736 90.8686 16.6715C91.0387 16.834 91.1323 17.0687 91.1323 17.326C91.1323 17.5833 91.0388 17.818 90.8644 17.985C90.707 18.134 90.5071 18.2152 90.2902 18.2152ZM90.2902 17.0868C90.2562 17.0868 90.2009 17.1003 90.1541 17.1454C90.0946 17.1996 90.0691 17.2809 90.0691 17.326C90.0691 17.3711 90.0946 17.4524 90.1584 17.5111C90.2392 17.5878 90.3327 17.5923 90.4178 17.5156C90.4816 17.4569 90.5071 17.3756 90.5071 17.326C90.5071 17.2763 90.4773 17.1951 90.4178 17.1364C90.3753 17.0958 90.3242 17.0823 90.2902 17.0823V17.0868Z" fill="#231F20"/>
<path d="M93.6074 15.3174H94.1093V19.2353H96.4187V19.7409H93.6074V15.3174Z" fill="#231F20"/>
<path d="M96.5885 19.9213H93.437V15.1367H94.2791V19.0547H96.5885V19.9213ZM93.7773 19.5602H96.2483V19.4158H93.9389V15.4978H93.7773V19.5602Z" fill="#231F20"/>
<path d="M97.3501 15.3174H97.852V19.7409H97.3501V15.3174Z" fill="#231F20"/>
<path d="M98.0223 19.9213H97.1802V15.1367H98.0223V19.9213ZM97.5204 19.5602H97.682V15.4978H97.5204V19.5602Z" fill="#231F20"/>
<path d="M99.2471 15.3174H100.957C101.395 15.3174 101.739 15.4122 101.995 15.6063C102.25 15.7958 102.377 16.0757 102.377 16.4368C102.377 16.6986 102.314 16.9107 102.182 17.0777C102.05 17.2448 101.892 17.3576 101.71 17.4163C101.931 17.4795 102.126 17.6013 102.292 17.7819C102.458 17.9624 102.543 18.2107 102.543 18.5312C102.543 18.7253 102.509 18.8968 102.441 19.0412C102.373 19.1902 102.284 19.3075 102.177 19.3933C102.071 19.4791 101.948 19.5513 101.807 19.6055C101.667 19.6596 101.531 19.6957 101.403 19.7138C101.276 19.7318 101.144 19.7409 101.008 19.7409H99.2513V15.3174H99.2471ZM101.867 16.509C101.867 16.2608 101.786 16.0847 101.625 15.9764C101.463 15.8681 101.225 15.8184 100.914 15.8184H99.7489V17.1951H101.055C101.293 17.1951 101.488 17.1409 101.642 17.0281C101.795 16.9153 101.871 16.7437 101.871 16.5045L101.867 16.509ZM102.033 18.468C102.033 17.9579 101.701 17.7052 101.038 17.7052H99.7447V19.2353H100.902C101.029 19.2353 101.135 19.2353 101.225 19.2263C101.314 19.2218 101.412 19.2037 101.522 19.1766C101.633 19.1496 101.722 19.1089 101.79 19.0548C101.858 19.0006 101.914 18.9239 101.965 18.8291C102.012 18.7298 102.037 18.6124 102.037 18.4725L102.033 18.468Z" fill="#231F20"/>
<path d="M101.004 19.9213H99.0771V15.1367H100.957C101.429 15.1367 101.808 15.245 102.093 15.4572C102.395 15.6829 102.543 16.0124 102.543 16.4367C102.543 16.7391 102.463 16.9964 102.309 17.195C102.246 17.2717 102.182 17.3439 102.11 17.4026C102.22 17.4703 102.322 17.5561 102.416 17.6554C102.616 17.8675 102.714 18.1609 102.714 18.5311C102.714 18.7522 102.671 18.9508 102.59 19.1224C102.509 19.2939 102.403 19.4338 102.28 19.5376C102.161 19.6369 102.02 19.7137 101.863 19.7769C101.714 19.8355 101.565 19.8762 101.425 19.8942C101.289 19.9123 101.148 19.9258 101.004 19.9258V19.9213ZM99.4174 19.5602H101.004C101.131 19.5602 101.255 19.5512 101.378 19.5331C101.497 19.5151 101.62 19.4835 101.748 19.4338C101.871 19.3842 101.978 19.3255 102.071 19.2488C102.156 19.181 102.229 19.0817 102.284 18.9599C102.339 18.838 102.369 18.6936 102.369 18.5266C102.369 18.2512 102.305 18.0481 102.169 17.9037C102.025 17.7457 101.859 17.6419 101.663 17.5877L101.089 17.4252L101.28 17.362C101.208 17.371 101.131 17.3801 101.055 17.3801H99.579V15.6423H100.914C101.263 15.6423 101.527 15.7009 101.714 15.8273C101.863 15.9221 102.037 16.1207 102.037 16.5134C102.037 16.8835 101.871 17.0821 101.735 17.1815C101.697 17.2085 101.659 17.2356 101.616 17.2537L101.659 17.2401C101.812 17.1905 101.939 17.1002 102.05 16.9603C102.156 16.8249 102.207 16.6533 102.207 16.4322C102.207 16.1297 102.105 15.9041 101.897 15.7461C101.672 15.5791 101.357 15.4933 100.961 15.4933H99.4216V19.5557L99.4174 19.5602ZM99.915 17.019H101.051C101.255 17.019 101.416 16.9738 101.54 16.8835C101.608 16.8339 101.697 16.7436 101.697 16.5089C101.697 16.2652 101.603 16.1749 101.535 16.1297C101.404 16.044 101.195 15.9988 100.914 15.9988H99.9193V17.0144L99.915 17.019ZM100.902 19.4158H99.5748V17.5245H101.038C101.999 17.5245 102.203 18.0391 102.203 18.4679C102.203 18.6349 102.173 18.7838 102.114 18.9057C102.054 19.0276 101.978 19.1269 101.893 19.1946C101.808 19.2623 101.697 19.3119 101.561 19.3435C101.442 19.3751 101.331 19.3932 101.238 19.3977C101.148 19.4022 101.038 19.4067 100.906 19.4067L100.902 19.4158ZM99.915 19.0547H100.902C101.025 19.0547 101.127 19.0547 101.212 19.0456C101.293 19.0411 101.382 19.0231 101.484 19.0005C101.574 18.9779 101.642 18.9508 101.689 18.9102C101.735 18.8741 101.774 18.8199 101.812 18.7477C101.846 18.6755 101.863 18.5807 101.863 18.4724C101.863 18.2016 101.769 17.8901 101.038 17.8901H99.915V19.0592V19.0547Z" fill="#231F20"/>
<path d="M103.658 15.3174H106.469V15.8229H104.16V17.2583H106.29V17.7638H104.16V19.2353H106.507V19.7409H103.662V15.3174H103.658Z" fill="#231F20"/>
<path d="M106.673 19.9213H103.487V15.1367H106.639V16.0034H104.329V17.0776H106.46V17.9443H104.329V19.0547H106.677V19.9213H106.673ZM103.828 19.5602H106.333V19.4158H103.985V17.5832H106.116V17.4387H103.985V15.6423H106.294V15.4978H103.823V19.5602H103.828Z" fill="#231F20"/>
<path d="M108.149 19.7409H107.647V15.3174H109.28C109.552 15.3174 109.803 15.358 110.024 15.4347C110.246 15.5115 110.437 15.6559 110.599 15.8635C110.76 16.0712 110.841 16.3375 110.841 16.658C110.841 17.0371 110.739 17.3305 110.531 17.5427C110.322 17.7548 110.054 17.8902 109.727 17.9534L111.139 19.7409H110.514L109.144 17.9986H108.149V19.7409ZM108.149 15.8229V17.493H109.306C109.599 17.493 109.846 17.4298 110.041 17.2989C110.237 17.1725 110.335 16.9559 110.335 16.658C110.335 16.3601 110.237 16.1389 110.041 16.0125C109.846 15.8861 109.599 15.8229 109.306 15.8229H108.149Z" fill="#231F20"/>
<path d="M111.5 19.9213H110.429L109.059 18.179H108.315V19.9213H107.473V15.1367H109.276C109.565 15.1367 109.833 15.1773 110.076 15.2631C110.326 15.3534 110.548 15.5159 110.726 15.7506C110.913 15.9898 111.007 16.2968 111.007 16.6579C111.007 17.0867 110.884 17.4297 110.645 17.6735C110.475 17.845 110.271 17.9759 110.029 18.0571L111.5 19.9213ZM110.59 19.5602H110.773L109.408 17.8314L109.697 17.7773C109.99 17.7186 110.233 17.5967 110.412 17.4162C110.586 17.2401 110.671 16.9919 110.671 16.6624C110.671 16.3825 110.603 16.1613 110.467 15.9853C110.326 15.8002 110.165 15.6784 109.969 15.6107C109.765 15.5384 109.531 15.5023 109.28 15.5023H107.817V19.5647H107.979V17.8224H109.225L110.594 19.5647L110.59 19.5602ZM109.301 17.6689H107.975V15.6423H109.301C109.625 15.6423 109.901 15.7145 110.127 15.8589C110.297 15.9673 110.505 16.1975 110.505 16.6579C110.505 17.0235 110.378 17.2898 110.131 17.4523C109.91 17.5967 109.629 17.6735 109.306 17.6735L109.301 17.6689ZM108.319 17.3078H109.306C109.565 17.3078 109.782 17.2537 109.952 17.1408C110.046 17.0821 110.165 16.9648 110.165 16.6533C110.165 16.3419 110.042 16.22 109.952 16.1613C109.782 16.053 109.565 15.9988 109.306 15.9988H108.319V17.3078Z" fill="#231F20"/>
<path d="M111.619 15.3174H115.047V15.8229H113.584V19.7409H113.082V15.8229H111.619V15.3174Z" fill="#231F20"/>
<path d="M113.754 19.9213H112.912V16.0034H111.449V15.1367H115.217V16.0034H113.754V19.9213ZM113.253 19.5602H113.414V15.6423H114.877V15.4978H111.789V15.6423H113.253V19.5602Z" fill="#231F20"/>
<path d="M116.013 19.7409H115.473L117.289 15.3174H117.842L119.653 19.7409H119.118L118.692 18.6711H116.442L116.017 19.7409H116.013ZM117.497 16.017L116.634 18.1791H118.492L117.629 16.0215C117.629 16.0215 117.599 15.9448 117.561 15.85C117.527 15.9448 117.506 15.999 117.497 16.0125V16.017Z" fill="#231F20"/>
<path d="M119.909 19.9213H119.003L118.578 18.8515H116.553L116.128 19.9213H115.213L117.174 15.1367H117.952L119.909 19.9213ZM119.228 19.5602H119.394L117.731 15.4978H117.608L118.748 18.3595H116.379L117.34 15.9447C117.353 15.9131 117.374 15.8634 117.404 15.7822L117.514 15.4933H117.395L115.728 19.5557H115.898L116.323 18.4859H118.799L119.224 19.5557L119.228 19.5602ZM116.893 17.9984H118.237L117.565 16.3148L116.893 17.9984Z" fill="#231F20"/>
<path d="M120.296 16.4098C120.296 16.0351 120.432 15.7463 120.708 15.5431C120.981 15.34 121.321 15.2407 121.725 15.2407C122.214 15.2407 122.635 15.3491 122.988 15.5612V16.0938C122.639 15.8546 122.231 15.7372 121.763 15.7463C121.125 15.7463 120.806 15.9584 120.806 16.3872C120.806 16.5587 120.87 16.7077 120.993 16.8296C121.117 16.9514 121.27 17.0462 121.448 17.1184C121.627 17.1907 121.827 17.2674 122.04 17.3532C122.252 17.4389 122.452 17.5157 122.644 17.5924C122.831 17.6691 122.988 17.7955 123.107 17.9715C123.226 18.1476 123.29 18.3642 123.29 18.617C123.29 18.8292 123.248 19.0142 123.162 19.1722C123.077 19.3302 122.963 19.4566 122.814 19.5514C122.665 19.6462 122.503 19.7093 122.325 19.7545C122.146 19.7951 121.955 19.8177 121.746 19.8177C121.219 19.8177 120.742 19.6913 120.317 19.4385V18.9059C120.734 19.1767 121.198 19.3121 121.712 19.3121C122.427 19.3121 122.784 19.091 122.784 18.6531C122.784 18.4951 122.737 18.3552 122.648 18.2379C122.559 18.1205 122.435 18.0347 122.286 17.9715C122.137 17.9129 121.972 17.8452 121.797 17.7775C121.623 17.7052 121.448 17.6375 121.274 17.5698C121.1 17.5021 120.942 17.4209 120.794 17.3306C120.645 17.2403 120.53 17.1184 120.436 16.9605C120.347 16.807 120.3 16.6219 120.3 16.4098H120.296Z" fill="#231F20"/>
<path d="M121.742 19.998C121.189 19.998 120.678 19.8626 120.227 19.5963L120.138 19.5466V18.5897L120.398 18.7567C120.785 19.0095 121.227 19.1359 121.703 19.1359C122.605 19.1359 122.605 18.7793 122.605 18.6574C122.605 18.5355 122.575 18.4453 122.507 18.3595C122.435 18.2647 122.337 18.197 122.214 18.1474L121.206 17.7411C121.027 17.6689 120.857 17.5831 120.7 17.4883C120.529 17.3845 120.389 17.2401 120.283 17.0595C120.176 16.8745 120.121 16.6578 120.121 16.4141C120.121 15.9807 120.283 15.6377 120.606 15.3985C120.908 15.1773 121.282 15.0645 121.72 15.0645C122.235 15.0645 122.69 15.1818 123.068 15.412L123.154 15.4662V16.4321L122.89 16.2516C122.584 16.0394 122.218 15.9311 121.805 15.9311H121.763C120.972 15.9311 120.972 16.2651 120.972 16.3915C120.972 16.5179 121.014 16.6127 121.104 16.6984C121.21 16.8023 121.346 16.888 121.503 16.9512L122.698 17.4251C122.92 17.5109 123.103 17.6599 123.243 17.8675C123.387 18.0751 123.46 18.3279 123.46 18.6168C123.46 18.8605 123.409 19.0772 123.311 19.2623C123.213 19.4473 123.073 19.6008 122.903 19.7091C122.741 19.8129 122.558 19.8851 122.362 19.9348C122.171 19.9799 121.967 20.0025 121.75 20.0025L121.742 19.998ZM120.483 19.33C120.857 19.5331 121.282 19.6369 121.742 19.6369C121.933 19.6369 122.116 19.6188 122.282 19.5782C122.443 19.5421 122.588 19.4789 122.72 19.3977C122.843 19.3209 122.937 19.2171 123.005 19.0862C123.077 18.9553 123.111 18.7973 123.111 18.6168C123.111 18.4046 123.06 18.2286 122.962 18.0796C122.86 17.9307 122.732 17.8269 122.575 17.7637L121.38 17.2897C121.18 17.2085 121.006 17.1002 120.87 16.9647C120.708 16.8068 120.631 16.6172 120.631 16.3915C120.631 16.0169 120.827 15.57 121.759 15.57H121.805C122.175 15.57 122.511 15.6467 122.813 15.7912V15.6738C122.507 15.5068 122.137 15.4256 121.72 15.4256C121.354 15.4256 121.044 15.5158 120.797 15.6964C120.572 15.8634 120.461 16.0981 120.461 16.4141C120.461 16.5901 120.495 16.7391 120.572 16.87C120.648 17.0009 120.746 17.1047 120.87 17.1814C121.01 17.2672 121.159 17.3439 121.325 17.4071L122.333 17.8133C122.511 17.8856 122.656 17.9894 122.767 18.1293C122.886 18.2783 122.945 18.4543 122.945 18.6574C122.945 19.0411 122.728 19.497 121.703 19.497C121.265 19.497 120.857 19.4022 120.478 19.2126V19.3345L120.483 19.33Z" fill="#231F20"/>
</g>
<defs>
<clipPath id="clip0_1348_582">
<rect width="24.6903" height="22.4956" fill="white"/>
</clipPath>
<clipPath id="clip1_1348_582">
<rect width="92.177" height="4.93805" fill="white" transform="translate(31.2744 15.0601)"/>
</clipPath>
</defs>
</svg>
