<svg width="118" height="30" viewBox="0 0 118 30" fill="none" xmlns="http://www.w3.org/2000/svg">
<g clip-path="url(#clip0_1348_1192)">
<path d="M27.2809 0.260254V0.772137H29.782V29.1345H23.7827V29.6464H30.2939V0.260254H27.2809Z" fill="#FFCD2B"/>
<path d="M6.98385 29.1345H0.983563V0.772137H3.48462V0.260254H0.47168V29.6464H6.98385V29.1345Z" fill="#FFCD2B"/>
<path d="M11.5114 13.7477H11.3239C11.2413 13.7477 11.1608 13.7522 11.0824 13.7589C11.0919 13.7556 11.0993 13.7511 11.1089 13.7477H9.79966C7.66213 13.7477 6.27454 14.3975 5.17081 15.4599C4.06286 16.5256 3.77051 18.0231 3.77051 19.1001C3.77051 22.0163 5.9324 24.0342 8.16315 24.3917C7.42169 23.9117 7.05943 23.2968 6.9302 22.656C6.15484 21.9893 5.26297 20.982 5.26297 19.244C5.26297 17.9489 5.75445 16.6662 6.89419 15.805C7.59328 15.2778 8.37605 15.0327 9.67785 15.0327H10.2975C10.5358 14.4593 10.9712 13.9984 11.5124 13.7466L11.5114 13.7477Z" fill="#FFCD2B"/>
<path d="M22.6394 4.06934C23.4232 4.55414 23.7188 5.17518 23.8554 5.82234C24.8363 6.566 25.4186 7.53106 25.4186 9.17166C25.4186 10.4796 24.9931 11.6899 23.8375 12.5959C23.1802 13.1114 22.4199 13.3702 21.2688 13.41H20.3685C20.158 13.9629 19.7605 14.4227 19.2544 14.7088H19.5388C19.5388 14.7088 19.5287 14.7134 19.5231 14.7145H20.7168C23.1746 14.7145 24.6169 13.9538 25.516 12.9933C26.6044 11.8307 26.9963 10.4047 26.9963 9.31698C26.9963 6.37185 24.9976 4.43152 22.6394 4.06934Z" fill="#FFCD2B"/>
<path d="M19.2147 5.96452C19.8527 5.47922 20.7167 5.23657 21.545 5.23657C22.3099 5.23657 22.8232 5.41942 23.1255 5.56547C22.9997 4.74208 21.8346 4.07394 20.9082 4.06934C19.7857 4.06934 18.8017 4.38903 18.1015 4.91228C17.1832 5.59652 16.3964 6.62576 15.958 8.33349L14.6383 13.4555H13.3093C11.9088 13.4555 11.1624 14.364 11.0575 14.7711H14.3914L13.059 19.8702C12.7429 21.088 12.1453 21.9608 11.5524 22.4427C10.9306 22.9475 9.89808 23.2235 9.06978 23.2235C8.24148 23.2235 7.97846 23.112 7.6416 22.9464C7.76735 23.7698 8.93712 24.3862 9.86463 24.3919C10.9871 24.3919 11.9654 24.0193 12.6656 23.4972C13.5839 22.813 14.3487 21.7619 14.7883 20.0795L16.1472 14.8792H17.3874C18.7879 14.8792 19.5343 13.9707 19.6392 13.5636H16.3953L17.6919 8.50944C18.0772 7.06275 18.6552 6.39346 19.2147 5.96682V5.96452Z" fill="#000002"/>
</g>
<path d="M39.3518 5.76H41.5998L40.4958 2.832L39.3518 5.76ZM40.2158 2.288H40.8238L43.0638 8H42.4798L41.7838 6.224H39.1838L38.4958 8H37.9198L40.2158 2.288ZM50.7854 4.016C50.7374 3.79733 50.6574 3.60267 50.5454 3.432C50.4387 3.256 50.3054 3.10933 50.1454 2.992C49.9907 2.87467 49.8174 2.78667 49.6254 2.728C49.4387 2.664 49.2414 2.632 49.0334 2.632C48.6547 2.632 48.3294 2.704 48.0574 2.848C47.7854 2.992 47.5614 3.184 47.3854 3.424C47.2147 3.65867 47.0867 3.92533 47.0014 4.224C46.9214 4.52267 46.8814 4.82933 46.8814 5.144C46.8814 5.45333 46.9214 5.76 47.0014 6.064C47.0867 6.36267 47.2147 6.632 47.3854 6.872C47.5614 7.10667 47.7854 7.296 48.0574 7.44C48.3294 7.584 48.6547 7.656 49.0334 7.656C49.3001 7.656 49.5401 7.608 49.7534 7.512C49.9667 7.416 50.1507 7.28533 50.3054 7.12C50.4601 6.95467 50.5854 6.76267 50.6814 6.544C50.7774 6.32 50.8387 6.08 50.8654 5.824H51.4094C51.3721 6.176 51.2894 6.49333 51.1614 6.776C51.0334 7.05867 50.8681 7.29867 50.6654 7.496C50.4627 7.69333 50.2227 7.84533 49.9454 7.952C49.6734 8.05867 49.3694 8.112 49.0334 8.112C48.5854 8.112 48.1907 8.032 47.8494 7.872C47.5134 7.70667 47.2334 7.488 47.0094 7.216C46.7854 6.944 46.6174 6.62933 46.5054 6.272C46.3934 5.91467 46.3374 5.53867 46.3374 5.144C46.3374 4.74933 46.3934 4.37333 46.5054 4.016C46.6174 3.65867 46.7854 3.344 47.0094 3.072C47.2334 2.79467 47.5134 2.576 47.8494 2.416C48.1907 2.25067 48.5854 2.168 49.0334 2.168C49.3054 2.168 49.5694 2.208 49.8254 2.288C50.0867 2.368 50.3214 2.488 50.5294 2.648C50.7427 2.80267 50.9187 2.99467 51.0574 3.224C51.2014 3.45333 51.2921 3.71733 51.3294 4.016H50.7854ZM54.2902 4.176C54.0502 4.176 53.8395 4.22667 53.6582 4.328C53.4769 4.42933 53.3249 4.56267 53.2022 4.728C53.0849 4.89333 52.9942 5.08267 52.9302 5.296C52.8715 5.504 52.8422 5.71733 52.8422 5.936C52.8422 6.15467 52.8715 6.37067 52.9302 6.584C52.9942 6.792 53.0849 6.97867 53.2022 7.144C53.3249 7.30933 53.4769 7.44267 53.6582 7.544C53.8395 7.64533 54.0502 7.696 54.2902 7.696C54.5302 7.696 54.7409 7.64533 54.9222 7.544C55.1035 7.44267 55.2529 7.30933 55.3702 7.144C55.4929 6.97867 55.5835 6.792 55.6422 6.584C55.7062 6.37067 55.7382 6.15467 55.7382 5.936C55.7382 5.71733 55.7062 5.504 55.6422 5.296C55.5835 5.08267 55.4929 4.89333 55.3702 4.728C55.2529 4.56267 55.1035 4.42933 54.9222 4.328C54.7409 4.22667 54.5302 4.176 54.2902 4.176ZM54.2902 3.752C54.6049 3.752 54.8822 3.81067 55.1222 3.928C55.3675 4.04533 55.5729 4.20267 55.7382 4.4C55.9035 4.59733 56.0289 4.82933 56.1142 5.096C56.1995 5.35733 56.2422 5.63733 56.2422 5.936C56.2422 6.23467 56.1995 6.51733 56.1142 6.784C56.0289 7.04533 55.9035 7.27467 55.7382 7.472C55.5729 7.66933 55.3675 7.82667 55.1222 7.944C54.8822 8.056 54.6049 8.112 54.2902 8.112C53.9755 8.112 53.6955 8.056 53.4502 7.944C53.2102 7.82667 53.0075 7.66933 52.8422 7.472C52.6769 7.27467 52.5515 7.04533 52.4662 6.784C52.3809 6.51733 52.3382 6.23467 52.3382 5.936C52.3382 5.63733 52.3809 5.35733 52.4662 5.096C52.5515 4.82933 52.6769 4.59733 52.8422 4.4C53.0075 4.20267 53.2102 4.04533 53.4502 3.928C53.6955 3.81067 53.9755 3.752 54.2902 3.752ZM57.3995 2.288H57.9035V8H57.3995V2.288ZM59.2761 2.288H59.7801V8H59.2761V2.288ZM61.0966 5.136C61.1126 4.896 61.1633 4.688 61.2486 4.512C61.334 4.336 61.4486 4.192 61.5926 4.08C61.742 3.968 61.9153 3.88533 62.1126 3.832C62.31 3.77867 62.5286 3.752 62.7686 3.752C62.95 3.752 63.1313 3.77067 63.3126 3.808C63.494 3.84 63.6566 3.904 63.8006 4C63.9446 4.096 64.062 4.232 64.1526 4.408C64.2433 4.57867 64.2886 4.80267 64.2886 5.08V7.272C64.2886 7.47467 64.3873 7.576 64.5846 7.576C64.6433 7.576 64.6966 7.56533 64.7446 7.544V7.968C64.686 7.97867 64.6326 7.98667 64.5846 7.992C64.542 7.99733 64.486 8 64.4166 8C64.2886 8 64.1846 7.984 64.1046 7.952C64.03 7.91467 63.9713 7.864 63.9286 7.8C63.886 7.736 63.8566 7.66133 63.8406 7.576C63.83 7.48533 63.8246 7.38667 63.8246 7.28H63.8086C63.718 7.41333 63.6246 7.53333 63.5286 7.64C63.438 7.74133 63.334 7.82667 63.2166 7.896C63.1046 7.96533 62.974 8.01867 62.8246 8.056C62.6806 8.09333 62.5073 8.112 62.3046 8.112C62.1126 8.112 61.9313 8.088 61.7606 8.04C61.5953 7.99733 61.4486 7.928 61.3206 7.832C61.198 7.73067 61.0993 7.60533 61.0246 7.456C60.9553 7.30133 60.9206 7.12 60.9206 6.912C60.9206 6.624 60.9846 6.4 61.1126 6.24C61.2406 6.07467 61.4086 5.94933 61.6166 5.864C61.83 5.77867 62.0673 5.72 62.3286 5.688C62.5953 5.65067 62.8646 5.616 63.1366 5.584C63.2433 5.57333 63.3366 5.56 63.4166 5.544C63.4966 5.528 63.5633 5.50133 63.6166 5.464C63.67 5.42133 63.71 5.36533 63.7366 5.296C63.7686 5.22667 63.7846 5.136 63.7846 5.024C63.7846 4.85333 63.7553 4.71467 63.6966 4.608C63.6433 4.496 63.566 4.408 63.4646 4.344C63.3686 4.28 63.254 4.23733 63.1206 4.216C62.9926 4.18933 62.854 4.176 62.7046 4.176C62.3846 4.176 62.1233 4.25333 61.9206 4.408C61.718 4.55733 61.6113 4.8 61.6006 5.136H61.0966ZM63.7846 5.744H63.7686C63.7366 5.80267 63.6753 5.84533 63.5846 5.872C63.494 5.89867 63.414 5.91733 63.3446 5.928C63.1313 5.96533 62.91 6 62.6806 6.032C62.4566 6.05867 62.2513 6.10133 62.0646 6.16C61.878 6.21867 61.7233 6.304 61.6006 6.416C61.4833 6.52267 61.4246 6.67733 61.4246 6.88C61.4246 7.008 61.4486 7.12267 61.4966 7.224C61.55 7.32 61.6193 7.40533 61.7046 7.48C61.79 7.54933 61.8886 7.60267 62.0006 7.64C62.1126 7.67733 62.2273 7.696 62.3446 7.696C62.5366 7.696 62.7206 7.66667 62.8966 7.608C63.0726 7.54933 63.2246 7.464 63.3526 7.352C63.486 7.24 63.59 7.104 63.6646 6.944C63.7446 6.784 63.7846 6.60267 63.7846 6.4V5.744ZM65.6931 2.288H66.1971V4.656H66.2131C66.2664 4.50667 66.3411 4.376 66.4371 4.264C66.5384 4.152 66.6531 4.05867 66.7811 3.984C66.9091 3.904 67.0478 3.84533 67.1971 3.808C67.3464 3.77067 67.4958 3.752 67.6451 3.752C67.9598 3.752 68.2318 3.81067 68.4611 3.928C68.6958 4.04533 68.8904 4.20533 69.0451 4.408C69.1998 4.60533 69.3144 4.83733 69.3891 5.104C69.4638 5.36533 69.5011 5.64267 69.5011 5.936C69.5011 6.22933 69.4638 6.50933 69.3891 6.776C69.3144 7.03733 69.1998 7.26933 69.0451 7.472C68.8904 7.66933 68.6958 7.82667 68.4611 7.944C68.2318 8.056 67.9598 8.112 67.6451 8.112C67.3091 8.112 67.0078 8.03467 66.7411 7.88C66.4798 7.72533 66.2904 7.504 66.1731 7.216H66.1571V8H65.6931V2.288ZM68.9971 5.936C68.9971 5.72267 68.9704 5.512 68.9171 5.304C68.8691 5.09067 68.7891 4.90133 68.6771 4.736C68.5704 4.57067 68.4318 4.43733 68.2611 4.336C68.0904 4.22933 67.8851 4.176 67.6451 4.176C67.3784 4.176 67.1518 4.22933 66.9651 4.336C66.7838 4.43733 66.6344 4.57067 66.5171 4.736C66.4051 4.90133 66.3224 5.09067 66.2691 5.304C66.2211 5.512 66.1971 5.72267 66.1971 5.936C66.1971 6.14933 66.2211 6.36267 66.2691 6.576C66.3224 6.784 66.4051 6.97067 66.5171 7.136C66.6344 7.30133 66.7838 7.43733 66.9651 7.544C67.1518 7.64533 67.3784 7.696 67.6451 7.696C67.8851 7.696 68.0904 7.64533 68.2611 7.544C68.4318 7.43733 68.5704 7.30133 68.6771 7.136C68.7891 6.97067 68.8691 6.784 68.9171 6.576C68.9704 6.36267 68.9971 6.14933 68.9971 5.936ZM72.4308 4.176C72.1908 4.176 71.9802 4.22667 71.7988 4.328C71.6175 4.42933 71.4655 4.56267 71.3428 4.728C71.2255 4.89333 71.1348 5.08267 71.0708 5.296C71.0122 5.504 70.9828 5.71733 70.9828 5.936C70.9828 6.15467 71.0122 6.37067 71.0708 6.584C71.1348 6.792 71.2255 6.97867 71.3428 7.144C71.4655 7.30933 71.6175 7.44267 71.7988 7.544C71.9802 7.64533 72.1908 7.696 72.4308 7.696C72.6708 7.696 72.8815 7.64533 73.0628 7.544C73.2442 7.44267 73.3935 7.30933 73.5108 7.144C73.6335 6.97867 73.7242 6.792 73.7828 6.584C73.8468 6.37067 73.8788 6.15467 73.8788 5.936C73.8788 5.71733 73.8468 5.504 73.7828 5.296C73.7242 5.08267 73.6335 4.89333 73.5108 4.728C73.3935 4.56267 73.2442 4.42933 73.0628 4.328C72.8815 4.22667 72.6708 4.176 72.4308 4.176ZM72.4308 3.752C72.7455 3.752 73.0228 3.81067 73.2628 3.928C73.5082 4.04533 73.7135 4.20267 73.8788 4.4C74.0442 4.59733 74.1695 4.82933 74.2548 5.096C74.3402 5.35733 74.3828 5.63733 74.3828 5.936C74.3828 6.23467 74.3402 6.51733 74.2548 6.784C74.1695 7.04533 74.0442 7.27467 73.8788 7.472C73.7135 7.66933 73.5082 7.82667 73.2628 7.944C73.0228 8.056 72.7455 8.112 72.4308 8.112C72.1162 8.112 71.8362 8.056 71.5908 7.944C71.3508 7.82667 71.1482 7.66933 70.9828 7.472C70.8175 7.27467 70.6922 7.04533 70.6068 6.784C70.5215 6.51733 70.4788 6.23467 70.4788 5.936C70.4788 5.63733 70.5215 5.35733 70.6068 5.096C70.6922 4.82933 70.8175 4.59733 70.9828 4.4C71.1482 4.20267 71.3508 4.04533 71.5908 3.928C71.8362 3.81067 72.1162 3.752 72.4308 3.752ZM75.5321 3.872H75.9961V4.84H76.0121C76.1401 4.504 76.3375 4.24533 76.6041 4.064C76.8761 3.88267 77.1988 3.8 77.5721 3.816V4.32C77.3428 4.30933 77.1348 4.34133 76.9481 4.416C76.7615 4.48533 76.5988 4.58667 76.4601 4.72C76.3268 4.85333 76.2228 5.01333 76.1481 5.2C76.0735 5.38133 76.0361 5.58133 76.0361 5.8V8H75.5321V3.872ZM78.4076 5.136C78.4236 4.896 78.4743 4.688 78.5596 4.512C78.6449 4.336 78.7596 4.192 78.9036 4.08C79.0529 3.968 79.2263 3.88533 79.4236 3.832C79.6209 3.77867 79.8396 3.752 80.0796 3.752C80.2609 3.752 80.4423 3.77067 80.6236 3.808C80.8049 3.84 80.9676 3.904 81.1116 4C81.2556 4.096 81.3729 4.232 81.4636 4.408C81.5543 4.57867 81.5996 4.80267 81.5996 5.08V7.272C81.5996 7.47467 81.6983 7.576 81.8956 7.576C81.9543 7.576 82.0076 7.56533 82.0556 7.544V7.968C81.9969 7.97867 81.9436 7.98667 81.8956 7.992C81.8529 7.99733 81.7969 8 81.7276 8C81.5996 8 81.4956 7.984 81.4156 7.952C81.3409 7.91467 81.2823 7.864 81.2396 7.8C81.1969 7.736 81.1676 7.66133 81.1516 7.576C81.1409 7.48533 81.1356 7.38667 81.1356 7.28H81.1196C81.0289 7.41333 80.9356 7.53333 80.8396 7.64C80.7489 7.74133 80.6449 7.82667 80.5276 7.896C80.4156 7.96533 80.2849 8.01867 80.1356 8.056C79.9916 8.09333 79.8183 8.112 79.6156 8.112C79.4236 8.112 79.2423 8.088 79.0716 8.04C78.9063 7.99733 78.7596 7.928 78.6316 7.832C78.5089 7.73067 78.4103 7.60533 78.3356 7.456C78.2663 7.30133 78.2316 7.12 78.2316 6.912C78.2316 6.624 78.2956 6.4 78.4236 6.24C78.5516 6.07467 78.7196 5.94933 78.9276 5.864C79.1409 5.77867 79.3783 5.72 79.6396 5.688C79.9063 5.65067 80.1756 5.616 80.4476 5.584C80.5543 5.57333 80.6476 5.56 80.7276 5.544C80.8076 5.528 80.8743 5.50133 80.9276 5.464C80.9809 5.42133 81.0209 5.36533 81.0476 5.296C81.0796 5.22667 81.0956 5.136 81.0956 5.024C81.0956 4.85333 81.0663 4.71467 81.0076 4.608C80.9543 4.496 80.8769 4.408 80.7756 4.344C80.6796 4.28 80.5649 4.23733 80.4316 4.216C80.3036 4.18933 80.1649 4.176 80.0156 4.176C79.6956 4.176 79.4343 4.25333 79.2316 4.408C79.0289 4.55733 78.9223 4.8 78.9116 5.136H78.4076ZM81.0956 5.744H81.0796C81.0476 5.80267 80.9863 5.84533 80.8956 5.872C80.8049 5.89867 80.7249 5.91733 80.6556 5.928C80.4423 5.96533 80.2209 6 79.9916 6.032C79.7676 6.05867 79.5623 6.10133 79.3756 6.16C79.1889 6.21867 79.0343 6.304 78.9116 6.416C78.7943 6.52267 78.7356 6.67733 78.7356 6.88C78.7356 7.008 78.7596 7.12267 78.8076 7.224C78.8609 7.32 78.9303 7.40533 79.0156 7.48C79.1009 7.54933 79.1996 7.60267 79.3116 7.64C79.4236 7.67733 79.5383 7.696 79.6556 7.696C79.8476 7.696 80.0316 7.66667 80.2076 7.608C80.3836 7.54933 80.5356 7.464 80.6636 7.352C80.7969 7.24 80.9009 7.104 80.9756 6.944C81.0556 6.784 81.0956 6.60267 81.0956 6.4V5.744ZM83.804 3.872H84.644V4.296H83.804V7.08C83.804 7.24533 83.8254 7.376 83.868 7.472C83.916 7.56267 84.0307 7.61333 84.212 7.624C84.356 7.624 84.5 7.616 84.644 7.6V8.024C84.5694 8.024 84.4947 8.02667 84.42 8.032C84.3454 8.03733 84.2707 8.04 84.196 8.04C83.86 8.04 83.6254 7.976 83.492 7.848C83.3587 7.71467 83.2947 7.472 83.3 7.12V4.296H82.58V3.872H83.3V2.632H83.804V3.872ZM85.7792 2.288H86.2832V3.096H85.7792V2.288ZM85.7792 3.872H86.2832V8H85.7792V3.872ZM87.1838 3.872H87.7438L89.0398 7.496H89.0558L90.3358 3.872H90.8558L89.3118 8H88.7758L87.1838 3.872ZM94.7189 5.648C94.7136 5.456 94.6789 5.272 94.6149 5.096C94.5562 4.92 94.4709 4.76533 94.3589 4.632C94.2469 4.49333 94.1109 4.384 93.9509 4.304C93.7909 4.21867 93.6096 4.176 93.4069 4.176C93.1989 4.176 93.0149 4.21867 92.8549 4.304C92.6949 4.384 92.5589 4.49333 92.4469 4.632C92.3349 4.76533 92.2442 4.92267 92.1749 5.104C92.1109 5.28 92.0682 5.46133 92.0469 5.648H94.7189ZM92.0469 6.072C92.0469 6.25333 92.0709 6.44267 92.1189 6.64C92.1722 6.832 92.2549 7.00533 92.3669 7.16C92.4789 7.31467 92.6202 7.44267 92.7909 7.544C92.9616 7.64533 93.1669 7.696 93.4069 7.696C93.7749 7.696 94.0629 7.6 94.2709 7.408C94.4789 7.216 94.6229 6.96 94.7029 6.64H95.2069C95.1002 7.10933 94.9029 7.472 94.6149 7.728C94.3322 7.984 93.9296 8.112 93.4069 8.112C93.0816 8.112 92.7989 8.056 92.5589 7.944C92.3242 7.82667 92.1322 7.66933 91.9829 7.472C91.8336 7.26933 91.7216 7.03733 91.6469 6.776C91.5776 6.50933 91.5429 6.22933 91.5429 5.936C91.5429 5.664 91.5776 5.39733 91.6469 5.136C91.7216 4.87467 91.8336 4.64267 91.9829 4.44C92.1322 4.232 92.3242 4.06667 92.5589 3.944C92.7989 3.816 93.0816 3.752 93.4069 3.752C93.7376 3.752 94.0202 3.81867 94.2549 3.952C94.4896 4.08533 94.6789 4.26133 94.8229 4.48C94.9722 4.69333 95.0789 4.94133 95.1429 5.224C95.2069 5.50133 95.2336 5.784 95.2229 6.072H92.0469ZM98.4459 2.288H99.0299L100.326 7.288H100.342L101.734 2.288H102.414L103.814 7.288H103.83L105.134 2.288H105.678L104.102 8H103.526L102.078 2.888H102.062L100.622 8H100.03L98.4459 2.288ZM108.187 4.176C107.947 4.176 107.736 4.22667 107.555 4.328C107.374 4.42933 107.222 4.56267 107.099 4.728C106.982 4.89333 106.891 5.08267 106.827 5.296C106.768 5.504 106.739 5.71733 106.739 5.936C106.739 6.15467 106.768 6.37067 106.827 6.584C106.891 6.792 106.982 6.97867 107.099 7.144C107.222 7.30933 107.374 7.44267 107.555 7.544C107.736 7.64533 107.947 7.696 108.187 7.696C108.427 7.696 108.638 7.64533 108.819 7.544C109 7.44267 109.15 7.30933 109.267 7.144C109.39 6.97867 109.48 6.792 109.539 6.584C109.603 6.37067 109.635 6.15467 109.635 5.936C109.635 5.71733 109.603 5.504 109.539 5.296C109.48 5.08267 109.39 4.89333 109.267 4.728C109.15 4.56267 109 4.42933 108.819 4.328C108.638 4.22667 108.427 4.176 108.187 4.176ZM108.187 3.752C108.502 3.752 108.779 3.81067 109.019 3.928C109.264 4.04533 109.47 4.20267 109.635 4.4C109.8 4.59733 109.926 4.82933 110.011 5.096C110.096 5.35733 110.139 5.63733 110.139 5.936C110.139 6.23467 110.096 6.51733 110.011 6.784C109.926 7.04533 109.8 7.27467 109.635 7.472C109.47 7.66933 109.264 7.82667 109.019 7.944C108.779 8.056 108.502 8.112 108.187 8.112C107.872 8.112 107.592 8.056 107.347 7.944C107.107 7.82667 106.904 7.66933 106.739 7.472C106.574 7.27467 106.448 7.04533 106.363 6.784C106.278 6.51733 106.235 6.23467 106.235 5.936C106.235 5.63733 106.278 5.35733 106.363 5.096C106.448 4.82933 106.574 4.59733 106.739 4.4C106.904 4.20267 107.107 4.04533 107.347 3.928C107.592 3.81067 107.872 3.752 108.187 3.752ZM111.288 3.872H111.752V4.84H111.768C111.896 4.504 112.094 4.24533 112.36 4.064C112.632 3.88267 112.955 3.8 113.328 3.816V4.32C113.099 4.30933 112.891 4.34133 112.704 4.416C112.518 4.48533 112.355 4.58667 112.216 4.72C112.083 4.85333 111.979 5.01333 111.904 5.2C111.83 5.38133 111.792 5.58133 111.792 5.8V8H111.288V3.872ZM114.212 2.288H114.716V5.872L117.004 3.872H117.676L115.916 5.4L117.796 8H117.164L115.532 5.752L114.716 6.432V8H114.212V2.288ZM38.7838 15.144C38.7838 15.4533 38.8238 15.76 38.9038 16.064C38.9891 16.3627 39.1171 16.632 39.2878 16.872C39.4638 17.1067 39.6878 17.296 39.9598 17.44C40.2318 17.584 40.5571 17.656 40.9358 17.656C41.3144 17.656 41.6371 17.584 41.9038 17.44C42.1758 17.296 42.3971 17.1067 42.5678 16.872C42.7438 16.632 42.8718 16.3627 42.9518 16.064C43.0371 15.76 43.0798 15.4533 43.0798 15.144C43.0798 14.8293 43.0371 14.5227 42.9518 14.224C42.8718 13.9253 42.7438 13.6587 42.5678 13.424C42.3971 13.184 42.1758 12.992 41.9038 12.848C41.6371 12.704 41.3144 12.632 40.9358 12.632C40.5571 12.632 40.2318 12.704 39.9598 12.848C39.6878 12.992 39.4638 13.184 39.2878 13.424C39.1171 13.6587 38.9891 13.9253 38.9038 14.224C38.8238 14.5227 38.7838 14.8293 38.7838 15.144ZM38.2398 15.144C38.2398 14.7493 38.2958 14.3733 38.4078 14.016C38.5198 13.6587 38.6878 13.344 38.9118 13.072C39.1358 12.7947 39.4158 12.576 39.7518 12.416C40.0931 12.2507 40.4878 12.168 40.9358 12.168C41.3838 12.168 41.7758 12.2507 42.1118 12.416C42.4478 12.576 42.7278 12.7947 42.9518 13.072C43.1758 13.344 43.3438 13.6587 43.4558 14.016C43.5678 14.3733 43.6238 14.7493 43.6238 15.144C43.6238 15.5387 43.5678 15.9147 43.4558 16.272C43.3438 16.6293 43.1758 16.944 42.9518 17.216C42.7278 17.488 42.4478 17.7067 42.1118 17.872C41.7758 18.032 41.3838 18.112 40.9358 18.112C40.4878 18.112 40.0931 18.032 39.7518 17.872C39.4158 17.7067 39.1358 17.488 38.9118 17.216C38.6878 16.944 38.5198 16.6293 38.4078 16.272C38.2958 15.9147 38.2398 15.5387 38.2398 15.144ZM46.3695 14.296H45.5535V18H45.0495V14.296H44.3455V13.872H45.0495V13.496C45.0495 13.32 45.0628 13.1573 45.0895 13.008C45.1161 12.8587 45.1668 12.7307 45.2415 12.624C45.3161 12.5173 45.4175 12.4347 45.5455 12.376C45.6788 12.3173 45.8468 12.288 46.0495 12.288C46.1241 12.288 46.1935 12.2907 46.2575 12.296C46.3215 12.3013 46.3935 12.3093 46.4735 12.32V12.752C46.4041 12.7413 46.3401 12.7333 46.2815 12.728C46.2228 12.7173 46.1641 12.712 46.1055 12.712C45.9668 12.712 45.8601 12.7333 45.7855 12.776C45.7108 12.8187 45.6548 12.8773 45.6175 12.952C45.5855 13.0213 45.5668 13.104 45.5615 13.2C45.5561 13.296 45.5535 13.4 45.5535 13.512V13.872H46.3695V14.296ZM50.0023 12.288H53.9463V13.152H51.0023V14.648H53.5863V15.464H51.0023V18H50.0023V12.288ZM55.0165 13.864H55.8725V14.664H55.8885C55.9152 14.552 55.9659 14.4427 56.0405 14.336C56.1205 14.2293 56.2139 14.1333 56.3205 14.048C56.4325 13.9573 56.5552 13.8853 56.6885 13.832C56.8219 13.7787 56.9579 13.752 57.0965 13.752C57.2032 13.752 57.2752 13.7547 57.3125 13.76C57.3552 13.7653 57.3979 13.7707 57.4405 13.776V14.656C57.3765 14.6453 57.3099 14.6373 57.2405 14.632C57.1765 14.6213 57.1125 14.616 57.0485 14.616C56.8939 14.616 56.7472 14.648 56.6085 14.712C56.4752 14.7707 56.3579 14.8613 56.2565 14.984C56.1552 15.1013 56.0752 15.248 56.0165 15.424C55.9579 15.6 55.9285 15.8027 55.9285 16.032V18H55.0165V13.864ZM60.9284 15.568C60.9177 15.424 60.8857 15.2853 60.8324 15.152C60.7844 15.0187 60.7151 14.904 60.6244 14.808C60.5391 14.7067 60.4324 14.6267 60.3044 14.568C60.1817 14.504 60.0431 14.472 59.8884 14.472C59.7284 14.472 59.5817 14.5013 59.4484 14.56C59.3204 14.6133 59.2084 14.6907 59.1124 14.792C59.0217 14.888 58.9471 15.0027 58.8884 15.136C58.8351 15.2693 58.8057 15.4133 58.8004 15.568H60.9284ZM58.8004 16.168C58.8004 16.328 58.8217 16.4827 58.8644 16.632C58.9124 16.7813 58.9817 16.912 59.0724 17.024C59.1631 17.136 59.2777 17.2267 59.4164 17.296C59.5551 17.36 59.7204 17.392 59.9124 17.392C60.1791 17.392 60.3924 17.336 60.5524 17.224C60.7177 17.1067 60.8404 16.9333 60.9204 16.704H61.7844C61.7364 16.928 61.6537 17.128 61.5364 17.304C61.4191 17.48 61.2777 17.6293 61.1124 17.752C60.9471 17.8693 60.7604 17.9573 60.5524 18.016C60.3497 18.08 60.1364 18.112 59.9124 18.112C59.5871 18.112 59.2991 18.0587 59.0484 17.952C58.7977 17.8453 58.5844 17.696 58.4084 17.504C58.2377 17.312 58.1071 17.0827 58.0164 16.816C57.9311 16.5493 57.8884 16.256 57.8884 15.936C57.8884 15.6427 57.9337 15.3653 58.0244 15.104C58.1204 14.8373 58.2537 14.6053 58.4244 14.408C58.6004 14.2053 58.8111 14.0453 59.0564 13.928C59.3017 13.8107 59.5791 13.752 59.8884 13.752C60.2137 13.752 60.5044 13.8213 60.7604 13.96C61.0217 14.0933 61.2377 14.272 61.4084 14.496C61.5791 14.72 61.7017 14.9787 61.7764 15.272C61.8564 15.56 61.8777 15.8587 61.8404 16.168H58.8004ZM65.7737 15.568C65.763 15.424 65.731 15.2853 65.6777 15.152C65.6297 15.0187 65.5604 14.904 65.4697 14.808C65.3844 14.7067 65.2777 14.6267 65.1497 14.568C65.027 14.504 64.8884 14.472 64.7337 14.472C64.5737 14.472 64.427 14.5013 64.2937 14.56C64.1657 14.6133 64.0537 14.6907 63.9577 14.792C63.867 14.888 63.7924 15.0027 63.7337 15.136C63.6804 15.2693 63.651 15.4133 63.6457 15.568H65.7737ZM63.6457 16.168C63.6457 16.328 63.667 16.4827 63.7097 16.632C63.7577 16.7813 63.827 16.912 63.9177 17.024C64.0084 17.136 64.123 17.2267 64.2617 17.296C64.4004 17.36 64.5657 17.392 64.7577 17.392C65.0244 17.392 65.2377 17.336 65.3977 17.224C65.563 17.1067 65.6857 16.9333 65.7657 16.704H66.6297C66.5817 16.928 66.499 17.128 66.3817 17.304C66.2644 17.48 66.123 17.6293 65.9577 17.752C65.7924 17.8693 65.6057 17.9573 65.3977 18.016C65.195 18.08 64.9817 18.112 64.7577 18.112C64.4324 18.112 64.1444 18.0587 63.8937 17.952C63.643 17.8453 63.4297 17.696 63.2537 17.504C63.083 17.312 62.9524 17.0827 62.8617 16.816C62.7764 16.5493 62.7337 16.256 62.7337 15.936C62.7337 15.6427 62.779 15.3653 62.8697 15.104C62.9657 14.8373 63.099 14.6053 63.2697 14.408C63.4457 14.2053 63.6564 14.0453 63.9017 13.928C64.147 13.8107 64.4244 13.752 64.7337 13.752C65.059 13.752 65.3497 13.8213 65.6057 13.96C65.867 14.0933 66.083 14.272 66.2537 14.496C66.4244 14.72 66.547 14.9787 66.6217 15.272C66.7017 15.56 66.723 15.8587 66.6857 16.168H63.6457ZM70.4696 12.288H71.4696V15.616C71.4696 15.808 71.4776 16.0027 71.4936 16.2C71.5149 16.3973 71.5683 16.576 71.6536 16.736C71.7443 16.8907 71.8776 17.0187 72.0536 17.12C72.2349 17.2213 72.4883 17.272 72.8136 17.272C73.1389 17.272 73.3896 17.2213 73.5656 17.12C73.7469 17.0187 73.8803 16.8907 73.9656 16.736C74.0563 16.576 74.1096 16.3973 74.1256 16.2C74.1469 16.0027 74.1576 15.808 74.1576 15.616V12.288H75.1576V15.944C75.1576 16.312 75.1016 16.632 74.9896 16.904C74.8776 17.176 74.7176 17.4053 74.5096 17.592C74.3069 17.7733 74.0616 17.9093 73.7736 18C73.4856 18.0907 73.1656 18.136 72.8136 18.136C72.4616 18.136 72.1416 18.0907 71.8536 18C71.5656 17.9093 71.3176 17.7733 71.1096 17.592C70.9069 17.4053 70.7496 17.176 70.6376 16.904C70.5256 16.632 70.4696 16.312 70.4696 15.944V12.288ZM76.579 13.864H77.443V14.472L77.459 14.488C77.5977 14.2587 77.779 14.08 78.003 13.952C78.227 13.8187 78.475 13.752 78.747 13.752C79.2004 13.752 79.5577 13.8693 79.819 14.104C80.0804 14.3387 80.211 14.6907 80.211 15.16V18H79.299V15.4C79.2884 15.0747 79.219 14.84 79.091 14.696C78.963 14.5467 78.763 14.472 78.491 14.472C78.3364 14.472 78.1977 14.5013 78.075 14.56C77.9524 14.6133 77.8484 14.6907 77.763 14.792C77.6777 14.888 77.611 15.0027 77.563 15.136C77.515 15.2693 77.491 15.4107 77.491 15.56V18H76.579V13.864ZM81.5968 12.288H82.5088V13.152H81.5968V12.288ZM81.5968 13.864H82.5088V18H81.5968V13.864ZM83.4945 13.864H84.4865L85.5345 17.04H85.5505L86.5585 13.864H87.5025L86.0225 18H84.9985L83.4945 13.864ZM91.2909 15.568C91.2802 15.424 91.2482 15.2853 91.1949 15.152C91.1469 15.0187 91.0776 14.904 90.9869 14.808C90.9016 14.7067 90.7949 14.6267 90.6669 14.568C90.5442 14.504 90.4056 14.472 90.2509 14.472C90.0909 14.472 89.9442 14.5013 89.8109 14.56C89.6829 14.6133 89.5709 14.6907 89.4749 14.792C89.3842 14.888 89.3096 15.0027 89.2509 15.136C89.1976 15.2693 89.1682 15.4133 89.1629 15.568H91.2909ZM89.1629 16.168C89.1629 16.328 89.1842 16.4827 89.2269 16.632C89.2749 16.7813 89.3442 16.912 89.4349 17.024C89.5256 17.136 89.6402 17.2267 89.7789 17.296C89.9176 17.36 90.0829 17.392 90.2749 17.392C90.5416 17.392 90.7549 17.336 90.9149 17.224C91.0802 17.1067 91.2029 16.9333 91.2829 16.704H92.1469C92.0989 16.928 92.0162 17.128 91.8989 17.304C91.7816 17.48 91.6402 17.6293 91.4749 17.752C91.3096 17.8693 91.1229 17.9573 90.9149 18.016C90.7122 18.08 90.4989 18.112 90.2749 18.112C89.9496 18.112 89.6616 18.0587 89.4109 17.952C89.1602 17.8453 88.9469 17.696 88.7709 17.504C88.6002 17.312 88.4696 17.0827 88.3789 16.816C88.2936 16.5493 88.2509 16.256 88.2509 15.936C88.2509 15.6427 88.2962 15.3653 88.3869 15.104C88.4829 14.8373 88.6162 14.6053 88.7869 14.408C88.9629 14.2053 89.1736 14.0453 89.4189 13.928C89.6642 13.8107 89.9416 13.752 90.2509 13.752C90.5762 13.752 90.8669 13.8213 91.1229 13.96C91.3842 14.0933 91.6002 14.272 91.7709 14.496C91.9416 14.72 92.0642 14.9787 92.1389 15.272C92.2189 15.56 92.2402 15.8587 92.2029 16.168H89.1629ZM93.2962 13.864H94.1522V14.664H94.1682C94.1949 14.552 94.2455 14.4427 94.3202 14.336C94.4002 14.2293 94.4935 14.1333 94.6002 14.048C94.7122 13.9573 94.8349 13.8853 94.9682 13.832C95.1015 13.7787 95.2375 13.752 95.3762 13.752C95.4829 13.752 95.5549 13.7547 95.5922 13.76C95.6349 13.7653 95.6775 13.7707 95.7202 13.776V14.656C95.6562 14.6453 95.5895 14.6373 95.5202 14.632C95.4562 14.6213 95.3922 14.616 95.3282 14.616C95.1735 14.616 95.0269 14.648 94.8882 14.712C94.7549 14.7707 94.6375 14.8613 94.5362 14.984C94.4349 15.1013 94.3549 15.248 94.2962 15.424C94.2375 15.6 94.2082 15.8027 94.2082 16.032V18H93.2962V13.864ZM97.1967 16.672C97.2234 16.9387 97.3247 17.1253 97.5007 17.232C97.6767 17.3387 97.8874 17.392 98.1327 17.392C98.218 17.392 98.314 17.3867 98.4207 17.376C98.5327 17.36 98.6367 17.3333 98.7327 17.296C98.8287 17.2587 98.906 17.2053 98.9647 17.136C99.0287 17.0613 99.058 16.9653 99.0527 16.848C99.0474 16.7307 99.0047 16.6347 98.9247 16.56C98.8447 16.4853 98.7407 16.4267 98.6127 16.384C98.49 16.336 98.3487 16.296 98.1887 16.264C98.0287 16.232 97.866 16.1973 97.7007 16.16C97.53 16.1227 97.3647 16.0773 97.2047 16.024C97.05 15.9707 96.9087 15.8987 96.7807 15.808C96.658 15.7173 96.5594 15.6027 96.4847 15.464C96.41 15.32 96.3727 15.144 96.3727 14.936C96.3727 14.712 96.426 14.5253 96.5327 14.376C96.6447 14.2213 96.7834 14.0987 96.9487 14.008C97.1194 13.912 97.306 13.8453 97.5087 13.808C97.7167 13.7707 97.914 13.752 98.1007 13.752C98.314 13.752 98.5167 13.776 98.7087 13.824C98.906 13.8667 99.082 13.9387 99.2367 14.04C99.3967 14.1413 99.5274 14.2747 99.6287 14.44C99.7354 14.6 99.802 14.7947 99.8287 15.024H98.8767C98.834 14.8053 98.7327 14.6587 98.5727 14.584C98.418 14.5093 98.2394 14.472 98.0367 14.472C97.9727 14.472 97.8954 14.4773 97.8047 14.488C97.7194 14.4987 97.6367 14.52 97.5567 14.552C97.482 14.5787 97.418 14.6213 97.3647 14.68C97.3114 14.7333 97.2847 14.8053 97.2847 14.896C97.2847 15.008 97.322 15.0987 97.3967 15.168C97.4767 15.2373 97.578 15.296 97.7007 15.344C97.8287 15.3867 97.9727 15.424 98.1327 15.456C98.2927 15.488 98.458 15.5227 98.6287 15.56C98.794 15.5973 98.9567 15.6427 99.1167 15.696C99.2767 15.7493 99.418 15.8213 99.5407 15.912C99.6687 16.0027 99.77 16.1173 99.8447 16.256C99.9247 16.3947 99.9647 16.5653 99.9647 16.768C99.9647 17.0133 99.9087 17.2213 99.7967 17.392C99.6847 17.5627 99.538 17.7013 99.3567 17.808C99.1807 17.9147 98.9834 17.992 98.7647 18.04C98.546 18.088 98.33 18.112 98.1167 18.112C97.8554 18.112 97.6127 18.0827 97.3887 18.024C97.17 17.9653 96.978 17.8773 96.8127 17.76C96.6527 17.6373 96.5247 17.488 96.4287 17.312C96.338 17.1307 96.29 16.9173 96.2847 16.672H97.1967ZM101.081 12.288H101.993V13.152H101.081V12.288ZM101.081 13.864H101.993V18H101.081V13.864ZM102.971 13.864H103.659V12.624H104.571V13.864H105.395V14.544H104.571V16.752C104.571 16.848 104.574 16.9307 104.579 17C104.59 17.0693 104.608 17.128 104.635 17.176C104.667 17.224 104.712 17.2613 104.771 17.288C104.83 17.3093 104.91 17.32 105.011 17.32C105.075 17.32 105.139 17.32 105.203 17.32C105.267 17.3147 105.331 17.304 105.395 17.288V17.992C105.294 18.0027 105.195 18.0133 105.099 18.024C105.003 18.0347 104.904 18.04 104.803 18.04C104.563 18.04 104.368 18.0187 104.219 17.976C104.075 17.928 103.96 17.8613 103.875 17.776C103.795 17.6853 103.739 17.5733 103.707 17.44C103.68 17.3067 103.664 17.1547 103.659 16.984V14.544H102.971V13.864ZM105.995 13.864H106.995L108.075 16.952H108.091L109.139 13.864H110.091L108.483 18.224C108.408 18.4107 108.334 18.5893 108.259 18.76C108.19 18.9307 108.102 19.08 107.995 19.208C107.894 19.3413 107.766 19.4453 107.611 19.52C107.456 19.6 107.259 19.64 107.019 19.64C106.806 19.64 106.595 19.624 106.387 19.592V18.824C106.462 18.8347 106.534 18.8453 106.603 18.856C106.672 18.872 106.744 18.88 106.819 18.88C106.926 18.88 107.014 18.8667 107.083 18.84C107.152 18.8133 107.208 18.7733 107.251 18.72C107.299 18.672 107.339 18.6133 107.371 18.544C107.403 18.4747 107.432 18.3947 107.459 18.304L107.563 17.984L105.995 13.864ZM38.7998 26.12C38.7944 26.4133 38.8398 26.6587 38.9358 26.856C39.0318 27.0533 39.1624 27.2107 39.3278 27.328C39.4984 27.4453 39.6984 27.5307 39.9278 27.584C40.1571 27.632 40.4024 27.656 40.6638 27.656C40.8131 27.656 40.9758 27.6347 41.1518 27.592C41.3278 27.5493 41.4904 27.4827 41.6398 27.392C41.7944 27.296 41.9224 27.176 42.0238 27.032C42.1251 26.8827 42.1758 26.704 42.1758 26.496C42.1758 26.336 42.1384 26.1973 42.0638 26.08C41.9944 25.9627 41.9011 25.864 41.7838 25.784C41.6718 25.704 41.5464 25.64 41.4078 25.592C41.2691 25.5387 41.1331 25.496 40.9998 25.464L39.7278 25.152C39.5624 25.1093 39.3998 25.056 39.2398 24.992C39.0851 24.928 38.9491 24.8427 38.8318 24.736C38.7144 24.6293 38.6184 24.4987 38.5438 24.344C38.4744 24.1893 38.4398 24 38.4398 23.776C38.4398 23.6373 38.4664 23.4747 38.5198 23.288C38.5731 23.1013 38.6718 22.9253 38.8158 22.76C38.9651 22.5947 39.1678 22.456 39.4238 22.344C39.6798 22.2267 40.0078 22.168 40.4078 22.168C40.6904 22.168 40.9598 22.2053 41.2158 22.28C41.4718 22.3547 41.6958 22.4667 41.8878 22.616C42.0798 22.7653 42.2318 22.952 42.3438 23.176C42.4611 23.3947 42.5198 23.6507 42.5198 23.944H41.9758C41.9651 23.7253 41.9144 23.536 41.8238 23.376C41.7384 23.2107 41.6238 23.0747 41.4798 22.968C41.3411 22.856 41.1784 22.7733 40.9918 22.72C40.8104 22.6613 40.6184 22.632 40.4158 22.632C40.2291 22.632 40.0478 22.6533 39.8718 22.696C39.7011 22.7333 39.5491 22.7973 39.4158 22.888C39.2878 22.9733 39.1838 23.088 39.1038 23.232C39.0238 23.376 38.9838 23.5547 38.9838 23.768C38.9838 23.9013 39.0051 24.0187 39.0478 24.12C39.0958 24.216 39.1598 24.2987 39.2398 24.368C39.3198 24.4373 39.4104 24.4933 39.5118 24.536C39.6184 24.5787 39.7304 24.6133 39.8478 24.64L41.2398 24.984C41.4424 25.0373 41.6318 25.104 41.8078 25.184C41.9891 25.2587 42.1464 25.3547 42.2798 25.472C42.4184 25.584 42.5251 25.7227 42.5998 25.888C42.6798 26.0533 42.7198 26.2533 42.7198 26.488C42.7198 26.552 42.7118 26.6373 42.6958 26.744C42.6851 26.8507 42.6531 26.9653 42.5998 27.088C42.5518 27.2053 42.4798 27.3253 42.3838 27.448C42.2931 27.5707 42.1651 27.6827 41.9998 27.784C41.8398 27.88 41.6398 27.9573 41.3998 28.016C41.1598 28.08 40.8718 28.112 40.5358 28.112C40.1998 28.112 39.8878 28.0747 39.5998 28C39.3118 27.92 39.0664 27.8 38.8638 27.64C38.6611 27.48 38.5038 27.2747 38.3918 27.024C38.2851 26.7733 38.2398 26.472 38.2558 26.12H38.7998ZM44.6868 23.872H45.5268V24.296H44.6868V27.08C44.6868 27.2453 44.7082 27.376 44.7508 27.472C44.7988 27.5627 44.9135 27.6133 45.0948 27.624C45.2388 27.624 45.3828 27.616 45.5268 27.6V28.024C45.4522 28.024 45.3775 28.0267 45.3028 28.032C45.2282 28.0373 45.1535 28.04 45.0788 28.04C44.7428 28.04 44.5082 27.976 44.3748 27.848C44.2415 27.7147 44.1775 27.472 44.1828 27.12V24.296H43.4628V23.872H44.1828V22.632H44.6868V23.872ZM49.998 28H49.534V27.256H49.518C49.3847 27.5333 49.19 27.7467 48.934 27.896C48.6834 28.04 48.4034 28.112 48.094 28.112C47.8327 28.112 47.6087 28.0747 47.422 28C47.2407 27.9307 47.0914 27.8293 46.974 27.696C46.862 27.5627 46.7794 27.4 46.726 27.208C46.6727 27.016 46.646 26.7973 46.646 26.552V23.872H47.15V26.56C47.1607 26.9333 47.246 27.216 47.406 27.408C47.5714 27.6 47.854 27.696 48.254 27.696C48.4727 27.696 48.6594 27.6507 48.814 27.56C48.9687 27.464 49.0967 27.3387 49.198 27.184C49.2994 27.0293 49.374 26.8533 49.422 26.656C49.47 26.4533 49.494 26.248 49.494 26.04V23.872H49.998V28ZM54.9829 28H54.5189V27.216H54.5029C54.4496 27.3493 54.3696 27.472 54.2629 27.584C54.1616 27.696 54.0442 27.792 53.9109 27.872C53.7776 27.9467 53.6336 28.0053 53.4789 28.048C53.3296 28.0907 53.1802 28.112 53.0309 28.112C52.7162 28.112 52.4416 28.056 52.2069 27.944C51.9776 27.8267 51.7856 27.6693 51.6309 27.472C51.4762 27.2693 51.3616 27.0373 51.2869 26.776C51.2122 26.5093 51.1749 26.2293 51.1749 25.936C51.1749 25.6427 51.2122 25.3653 51.2869 25.104C51.3616 24.8373 51.4762 24.6053 51.6309 24.408C51.7856 24.2053 51.9776 24.0453 52.2069 23.928C52.4416 23.8107 52.7162 23.752 53.0309 23.752C53.1856 23.752 53.3349 23.7707 53.4789 23.808C53.6282 23.8453 53.7669 23.904 53.8949 23.984C54.0229 24.0587 54.1349 24.152 54.2309 24.264C54.3322 24.376 54.4096 24.5067 54.4629 24.656H54.4789V22.288H54.9829V28ZM51.6789 25.936C51.6789 26.1493 51.7029 26.3627 51.7509 26.576C51.8042 26.784 51.8842 26.9707 51.9909 27.136C52.1029 27.3013 52.2442 27.4373 52.4149 27.544C52.5856 27.6453 52.7909 27.696 53.0309 27.696C53.2976 27.696 53.5216 27.6453 53.7029 27.544C53.8896 27.4373 54.0389 27.3013 54.1509 27.136C54.2682 26.9707 54.3509 26.784 54.3989 26.576C54.4522 26.3627 54.4789 26.1493 54.4789 25.936C54.4789 25.7227 54.4522 25.512 54.3989 25.304C54.3509 25.0907 54.2682 24.9013 54.1509 24.736C54.0389 24.5707 53.8896 24.4373 53.7029 24.336C53.5216 24.2293 53.2976 24.176 53.0309 24.176C52.7909 24.176 52.5856 24.2293 52.4149 24.336C52.2442 24.4373 52.1029 24.5707 51.9909 24.736C51.8842 24.9013 51.8042 25.0907 51.7509 25.304C51.7029 25.512 51.6789 25.7227 51.6789 25.936ZM59.3126 25.648C59.3073 25.456 59.2726 25.272 59.2086 25.096C59.15 24.92 59.0646 24.7653 58.9526 24.632C58.8406 24.4933 58.7046 24.384 58.5446 24.304C58.3846 24.2187 58.2033 24.176 58.0006 24.176C57.7926 24.176 57.6086 24.2187 57.4486 24.304C57.2886 24.384 57.1526 24.4933 57.0406 24.632C56.9286 24.7653 56.838 24.9227 56.7686 25.104C56.7046 25.28 56.662 25.4613 56.6406 25.648H59.3126ZM56.6406 26.072C56.6406 26.2533 56.6646 26.4427 56.7126 26.64C56.766 26.832 56.8486 27.0053 56.9606 27.16C57.0726 27.3147 57.214 27.4427 57.3846 27.544C57.5553 27.6453 57.7606 27.696 58.0006 27.696C58.3686 27.696 58.6566 27.6 58.8646 27.408C59.0726 27.216 59.2166 26.96 59.2966 26.64H59.8006C59.694 27.1093 59.4966 27.472 59.2086 27.728C58.926 27.984 58.5233 28.112 58.0006 28.112C57.6753 28.112 57.3926 28.056 57.1526 27.944C56.918 27.8267 56.726 27.6693 56.5766 27.472C56.4273 27.2693 56.3153 27.0373 56.2406 26.776C56.1713 26.5093 56.1366 26.2293 56.1366 25.936C56.1366 25.664 56.1713 25.3973 56.2406 25.136C56.3153 24.8747 56.4273 24.6427 56.5766 24.44C56.726 24.232 56.918 24.0667 57.1526 23.944C57.3926 23.816 57.6753 23.752 58.0006 23.752C58.3313 23.752 58.614 23.8187 58.8486 23.952C59.0833 24.0853 59.2726 24.2613 59.4166 24.48C59.566 24.6933 59.6726 24.9413 59.7366 25.224C59.8006 25.5013 59.8273 25.784 59.8166 26.072H56.6406ZM60.8851 23.872H61.3891V24.584H61.4051C61.5011 24.3333 61.6718 24.1333 61.9171 23.984C62.1624 23.8293 62.4318 23.752 62.7251 23.752C63.0131 23.752 63.2531 23.7893 63.4451 23.864C63.6424 23.9387 63.7998 24.0453 63.9171 24.184C64.0344 24.3173 64.1171 24.4827 64.1651 24.68C64.2131 24.8773 64.2371 25.0987 64.2371 25.344V28H63.7331V25.424C63.7331 25.248 63.7171 25.0853 63.6851 24.936C63.6531 24.7813 63.5971 24.648 63.5171 24.536C63.4371 24.424 63.3278 24.336 63.1891 24.272C63.0558 24.208 62.8878 24.176 62.6851 24.176C62.4824 24.176 62.3011 24.2133 62.1411 24.288C61.9864 24.3573 61.8531 24.456 61.7411 24.584C61.6344 24.7067 61.5491 24.856 61.4851 25.032C61.4264 25.2027 61.3944 25.3893 61.3891 25.592V28H60.8851V23.872ZM66.39 23.872H67.23V24.296H66.39V27.08C66.39 27.2453 66.4113 27.376 66.454 27.472C66.502 27.5627 66.6166 27.6133 66.798 27.624C66.942 27.624 67.086 27.616 67.23 27.6V28.024C67.1553 28.024 67.0806 28.0267 67.006 28.032C66.9313 28.0373 66.8566 28.04 66.782 28.04C66.446 28.04 66.2113 27.976 66.078 27.848C65.9446 27.7147 65.8806 27.472 65.886 27.12V24.296H65.166V23.872H65.886V22.632H66.39V23.872ZM70.8291 25.08C70.8238 24.9253 70.7918 24.792 70.7331 24.68C70.6745 24.5627 70.5945 24.4667 70.4931 24.392C70.3971 24.3173 70.2851 24.264 70.1571 24.232C70.0291 24.1947 69.8931 24.176 69.7491 24.176C69.6371 24.176 69.5225 24.1893 69.4051 24.216C69.2931 24.2373 69.1891 24.2773 69.0931 24.336C68.9971 24.3893 68.9198 24.4613 68.8611 24.552C68.8025 24.6427 68.7731 24.7547 68.7731 24.888C68.7731 25 68.7998 25.096 68.8531 25.176C68.9118 25.2507 68.9838 25.3147 69.0691 25.368C69.1545 25.4213 69.2478 25.4667 69.3491 25.504C69.4505 25.536 69.5438 25.5627 69.6291 25.584L70.3011 25.736C70.4451 25.7573 70.5865 25.7973 70.7251 25.856C70.8691 25.9093 70.9945 25.9813 71.1011 26.072C71.2131 26.1627 71.3038 26.2747 71.3731 26.408C71.4425 26.5413 71.4771 26.6987 71.4771 26.88C71.4771 27.104 71.4265 27.296 71.3251 27.456C71.2238 27.6107 71.0931 27.7387 70.9331 27.84C70.7785 27.936 70.6025 28.0053 70.4051 28.048C70.2078 28.0907 70.0131 28.112 69.8211 28.112C69.3358 28.112 68.9411 27.9973 68.6371 27.768C68.3385 27.5387 68.1678 27.1707 68.1251 26.664H68.6291C68.6505 27.0053 68.7731 27.264 68.9971 27.44C69.2265 27.6107 69.5091 27.696 69.8451 27.696C69.9678 27.696 70.0931 27.6827 70.2211 27.656C70.3545 27.6293 70.4771 27.584 70.5891 27.52C70.7011 27.456 70.7918 27.376 70.8611 27.28C70.9358 27.1787 70.9731 27.056 70.9731 26.912C70.9731 26.7893 70.9465 26.688 70.8931 26.608C70.8451 26.5227 70.7785 26.4533 70.6931 26.4C70.6078 26.3413 70.5091 26.2933 70.3971 26.256C70.2905 26.2187 70.1811 26.1867 70.0691 26.16L69.4211 26.016C69.2558 25.9733 69.1038 25.9253 68.9651 25.872C68.8265 25.8133 68.7038 25.744 68.5971 25.664C68.4958 25.5787 68.4158 25.4773 68.3571 25.36C68.2985 25.2373 68.2691 25.088 68.2691 24.912C68.2691 24.704 68.3145 24.5253 68.4051 24.376C68.5011 24.2267 68.6238 24.1067 68.7731 24.016C68.9225 23.9253 69.0878 23.8587 69.2691 23.816C69.4558 23.7733 69.6398 23.752 69.8211 23.752C70.0291 23.752 70.2211 23.7787 70.3971 23.832C70.5785 23.8853 70.7358 23.968 70.8691 24.08C71.0078 24.192 71.1171 24.3307 71.1971 24.496C71.2771 24.6613 71.3225 24.856 71.3331 25.08H70.8291Z" fill="#1E1E1E"/>
<defs>
<clipPath id="clip0_1348_1192">
<rect width="30.9677" height="30" fill="white"/>
</clipPath>
</defs>
</svg>
